<svg width="1232" height="495" viewBox="0 0 1232 495" fill="none" xmlns="http://www.w3.org/2000/svg">
<g clip-path="url(#clip0_2166_2161)">
<g opacity="0.6">
<path d="M681.751 295.248C487.566 250.558 469.812 449.684 437.75 514.745L479.751 520.248C509.25 342.245 602.075 292.235 681.751 325.748C937.931 387.1 1023.59 218.702 1076.75 102.248C1119.28 9.08441 1237.25 -0.252039 1284.8 27.3208L1276.06 -5.81697C1165.21 -37.0264 1073.01 36.6159 1050.25 89.7448C1003.25 184.58 937.259 354.051 681.751 295.248Z" fill="#4C5524"/>
<path d="M693.751 318.252C499.566 273.562 481.812 472.688 449.75 537.748L491.751 543.252C521.25 365.248 614.075 315.239 693.751 348.752C949.931 410.103 1035.59 241.706 1088.75 125.251C1131.28 32.088 1249.25 22.7515 1296.8 50.3243L1288.06 17.1866C1177.21 -14.0228 1085.01 59.6194 1062.25 112.748C1015.25 207.584 949.259 377.054 693.751 318.252Z" fill="#C6DC68"/>
<path d="M701.751 343.252C507.566 298.562 489.812 497.688 457.75 562.748L499.751 568.252C529.25 390.248 622.075 340.239 701.751 373.752C957.931 435.103 1043.59 266.706 1096.75 150.251C1139.28 57.088 1257.25 47.7515 1304.8 75.3243L1296.06 42.1866C1185.21 10.9772 1093.01 84.6194 1070.25 137.748C1023.25 232.584 957.259 402.054 701.751 343.252Z" fill="#1B8691"/>
<path d="M710.751 367.252C516.566 322.562 498.812 521.688 466.75 586.748L508.751 592.252C538.25 414.248 631.075 364.239 710.751 397.752C966.931 459.103 1052.59 290.706 1105.75 174.251C1148.28 81.088 1266.25 71.7515 1313.8 99.3243L1305.06 66.1866C1194.21 34.9772 1102.01 108.619 1079.25 161.748C1032.25 256.584 966.259 426.054 710.751 367.252Z" fill="#96F1FE"/>
<path d="M718.751 392.252C524.566 347.562 506.812 546.688 474.75 611.748L516.751 617.252C546.25 439.248 639.075 389.239 718.751 422.752C974.931 484.103 1060.59 315.706 1113.75 199.251C1156.28 106.088 1274.25 96.7515 1321.8 124.324L1313.06 91.1866C1202.21 59.9772 1110.01 133.619 1087.25 186.748C1040.25 281.584 974.259 451.054 718.751 392.252Z" fill="#FDBAD1"/>
<path d="M727.751 417.252C533.566 372.562 515.812 571.688 483.75 636.748L525.751 642.252C555.25 464.248 648.075 414.239 727.751 447.752C983.931 509.103 1069.59 340.706 1122.75 224.251C1165.28 131.088 1283.25 121.752 1330.8 149.324L1322.06 116.187C1211.21 84.9772 1119.01 158.619 1096.25 211.748C1049.25 306.584 983.259 476.054 727.751 417.252Z" fill="#D01878"/>
</g>
</g>
<defs>
<clipPath id="clip0_2166_2161">
<rect width="1232" height="495" fill="white"/>
</clipPath>
</defs>
</svg>
