<svg width="2545" height="1068" viewBox="0 0 2545 1068" fill="none" xmlns="http://www.w3.org/2000/svg">
<g clip-path="url(#clip0_2179_1380)">
<g opacity="0.6">
<path d="M376.947 173.617C213.635 -4.05166 11.7663 70.0087 -81.8364 72.8645L-42.6838 109.443C152.118 54.3144 295.842 107.528 348.889 187.171C562.137 422.627 807.223 417.406 970.316 408.859C1100.79 402.021 1233.57 493.744 1258.26 544.641L1279.55 522.813C1191.55 418.853 1026.75 376.651 953.921 381.767C817.203 385.715 591.832 407.394 376.947 173.617Z" fill="#58644E"/>
<path d="M368.419 193.593C205.107 15.9237 3.23891 89.9841 -90.3637 92.8398L-51.2112 129.419C143.591 74.2897 287.315 127.503 340.362 207.147C553.61 442.602 798.695 437.381 961.788 428.834C1092.26 421.997 1225.04 513.719 1249.74 564.617L1271.02 542.788C1183.03 438.828 1018.22 396.626 945.393 401.742C808.676 405.691 583.304 427.369 368.419 193.593Z" fill="#C6DC68"/>
<path d="M353.84 211.208C190.528 33.5388 -11.3401 107.599 -104.943 110.455L-65.7902 147.034C129.012 91.9048 272.736 145.118 325.783 224.762C539.031 460.217 784.116 454.996 947.209 446.449C1077.68 439.612 1210.46 531.335 1235.16 582.232L1256.44 560.403C1168.45 456.444 1003.64 414.242 930.814 419.357C794.097 423.306 568.725 444.984 353.84 211.208Z" fill="#1B8691"/>
<path d="M341.239 229.183C177.928 51.5141 -23.9409 125.575 -117.544 128.43L-78.391 165.009C116.411 109.88 260.135 163.094 313.182 242.737C526.43 478.192 771.516 472.972 934.608 464.425C1065.08 457.587 1197.86 549.31 1222.56 600.207L1243.84 578.378C1155.85 474.419 991.044 432.217 918.213 437.333C781.496 441.281 556.124 462.96 341.239 229.183Z" fill="#96F1FE"/>
<path d="M326.66 246.795C163.348 69.1262 -38.5202 143.187 -132.123 146.042L-92.9703 182.621C101.832 127.492 245.556 180.706 298.603 260.349C511.851 495.804 756.936 490.584 920.029 482.037C1050.5 475.199 1183.28 566.922 1207.98 617.819L1229.26 595.99C1141.27 492.031 976.465 449.829 903.634 454.945C766.917 458.893 541.545 480.572 326.66 246.795Z" fill="#FDBAD1"/>
<path d="M313.133 265.218C149.822 87.5489 -52.047 161.609 -145.65 164.465L-106.497 201.044C88.3053 145.915 232.029 199.129 285.076 278.772C498.324 514.227 743.409 509.007 906.502 500.459C1036.98 493.622 1169.76 585.345 1194.45 636.242L1215.73 614.413C1127.74 510.454 962.938 468.252 890.107 473.367C753.39 477.316 528.018 498.994 313.133 265.218Z" fill="#D01878"/>
</g>
<g opacity="0.6">
<path d="M2149.5 807.501C2344.4 961.78 2544.01 846.714 2641 826.141L2595.12 795.417C2400.2 889.444 2243.18 861.062 2176.79 788.114C1921.81 583.058 1667.56 634.575 1499.08 674.14C1364.29 705.791 1213.25 635.256 1180.4 586.907L1161.32 613.636C1267.49 705.332 1444.89 718.285 1519.94 699.264C1661.63 669.447 1893.06 604.502 2149.5 807.501Z" fill="#58644E"/>
<path d="M2155.57 785.1C2350.46 939.378 2550.08 824.313 2647.06 803.74L2601.18 773.016C2406.26 867.043 2249.24 838.661 2182.85 765.712C1927.88 560.657 1673.62 612.174 1505.14 651.738C1370.35 683.39 1219.31 612.855 1186.46 564.505L1167.39 591.235C1273.55 682.931 1450.95 695.884 1526.01 676.863C1667.69 647.046 1899.12 582.1 2155.57 785.1Z" fill="#C6DC68"/>
<path d="M2168.26 764.018C2363.15 918.297 2562.77 803.231 2659.75 782.658L2613.87 751.935C2418.95 845.961 2261.93 817.579 2195.54 744.631C1940.57 539.575 1686.31 591.093 1517.83 630.657C1383.04 662.308 1232 591.774 1199.15 543.424L1180.08 570.153C1286.24 661.849 1463.64 674.802 1538.7 655.782C1680.38 625.965 1911.82 561.019 2168.26 764.018Z" fill="#1B8691"/>
<path d="M2178.84 742.933C2373.74 897.212 2573.35 782.146 2670.33 761.573L2624.46 730.85C2429.53 824.876 2272.52 796.495 2206.13 723.546C1951.15 518.491 1696.89 570.008 1528.41 609.572C1393.63 641.223 1242.58 570.689 1209.73 522.339L1190.66 549.068C1296.83 640.764 1474.22 653.717 1549.28 634.697C1690.97 604.88 1922.4 539.934 2178.84 742.933Z" fill="#96F1FE"/>
<path d="M2191.53 721.855C2386.43 876.133 2586.04 761.068 2683.03 740.495L2637.15 709.771C2442.22 803.798 2285.21 775.416 2218.82 702.467C1963.84 497.412 1709.59 548.929 1541.1 588.493C1406.32 620.145 1255.27 549.61 1222.43 501.26L1203.35 527.99C1309.52 619.686 1486.92 632.638 1561.97 613.618C1703.66 583.801 1935.09 518.855 2191.53 721.855Z" fill="#FDBAD1"/>
<path d="M2203.02 700.13C2397.91 854.409 2597.53 739.343 2694.51 718.77L2648.63 688.047C2453.71 782.073 2296.69 753.692 2230.3 680.743C1975.33 475.688 1721.07 527.205 1552.59 566.769C1417.8 598.42 1266.76 527.886 1233.91 479.536L1214.84 506.265C1321 597.961 1498.4 610.914 1573.46 591.894C1715.14 562.077 1946.58 497.131 2203.02 700.13Z" fill="#D01878"/>
</g>
</g>
<defs>
<clipPath id="clip0_2179_1380">
<rect width="2545" height="1068" fill="white"/>
</clipPath>
</defs>
</svg>
