<svg width="2545" height="1068" viewBox="0 0 2545 1068" fill="none" xmlns="http://www.w3.org/2000/svg">
<g clip-path="url(#clip0_2179_1380)">
<g opacity="0.6">
<path d="M318.644 145.853C175.548 -0.20969 -18.4307 88.304 -106.542 100.5L-71.8857 130.006C114.352 59.5603 246.29 93.6037 291.493 161.142C478.143 355.037 708.718 325.169 862.451 300.646C985.437 281.028 1104.85 351.473 1125.09 395.577L1146.35 373.4C1069.74 287.159 917.35 265.362 848.624 277.503C719.94 295.114 506.929 338.041 318.644 145.853Z" fill="#58644E"/>
<path d="M309.469 165.027C166.373 18.9641 -27.6057 107.478 -115.717 119.674L-81.0606 149.18C105.177 78.7341 237.115 112.778 282.318 180.316C468.968 374.21 699.543 344.343 853.276 319.82C976.262 300.202 1095.67 370.647 1115.91 414.751L1137.18 392.573C1060.56 306.333 908.175 284.536 839.449 296.677C710.765 314.287 497.754 357.215 309.469 165.027Z" fill="#C6DC68"/>
<path d="M294.746 182.657C151.65 36.5949 -42.3291 125.109 -130.44 137.305L-95.784 166.811C90.4535 96.3649 222.392 130.408 267.595 197.947C454.244 391.841 684.82 361.974 838.552 337.451C961.538 317.833 1080.95 388.278 1101.19 432.381L1122.46 410.204C1045.84 323.964 893.452 302.167 824.726 314.308C696.042 331.918 483.031 374.846 294.746 182.657Z" fill="#1B8691"/>
<path d="M281.86 200.416C138.764 54.3533 -55.2148 142.867 -143.326 155.063L-108.67 184.569C77.5678 114.123 209.506 148.167 254.709 215.705C441.358 409.6 671.934 379.732 825.667 355.209C948.653 335.591 1068.07 406.036 1088.3 450.14L1109.57 427.963C1032.95 341.722 880.566 319.925 811.84 332.066C683.156 349.677 470.145 392.604 281.86 200.416Z" fill="#96F1FE"/>
<path d="M267.136 218.044C124.041 71.9812 -69.9383 160.495 -158.049 172.691L-123.393 202.197C62.8443 131.751 194.782 165.795 239.986 233.333C426.635 427.228 657.211 397.36 810.943 372.837C933.929 353.219 1053.34 423.664 1073.58 467.768L1094.85 445.59C1018.23 359.35 865.843 337.553 797.116 349.694C668.433 367.305 455.422 410.232 267.136 218.044Z" fill="#FDBAD1"/>
<path d="M253.355 236.307C110.259 90.2443 -83.7202 178.758 -171.831 190.954L-137.175 220.46C49.0624 150.014 181.001 184.058 226.204 251.596C412.853 445.491 643.429 415.623 797.161 391.1C920.147 371.482 1039.56 441.927 1059.8 486.031L1081.07 463.854C1004.45 377.613 852.061 355.816 783.335 367.957C654.651 385.568 441.64 428.495 253.355 236.307Z" fill="#D01878"/>
</g>
<g opacity="0.6">
<path d="M2137.32 911.671C2306.84 1046.54 2482.92 944.768 2568.16 926.363L2528.2 899.529C2356.42 982.798 2218.99 958.403 2161.43 894.546C1939.68 715.279 1716.25 761.407 1568.15 796.741C1449.66 825.008 1317.85 763.562 1289.47 721.199L1272.51 744.746C1364.78 824.937 1520.23 835.708 1586.22 818.742C1710.74 792.062 1914.27 734.215 2137.32 911.671Z" fill="#58644E"/>
<path d="M2142.84 891.971C2312.36 1026.84 2488.44 925.068 2573.68 906.663L2533.72 879.829C2361.94 963.098 2224.51 938.703 2166.94 874.845C1945.19 695.579 1721.77 741.707 1573.66 777.041C1455.18 805.308 1323.36 743.861 1294.99 701.499L1278.03 725.046C1370.3 805.236 1525.75 816.008 1591.74 799.042C1716.25 772.362 1919.79 714.515 2142.84 891.971Z" fill="#C6DC68"/>
<path d="M2154.16 873.407C2323.68 1008.27 2499.76 906.504 2584.99 888.099L2545.04 861.266C2373.26 944.535 2235.82 920.14 2178.26 856.282C1956.51 677.015 1733.09 723.144 1584.98 758.477C1466.5 786.745 1334.68 725.298 1306.31 682.935L1289.34 706.482C1381.62 786.673 1537.07 797.444 1603.06 780.478C1727.57 753.799 1931.11 695.951 2154.16 873.407Z" fill="#1B8691"/>
<path d="M2163.63 854.848C2333.15 989.713 2509.23 887.945 2594.46 869.54L2554.51 842.706C2382.73 925.976 2245.29 901.58 2187.73 837.723C1965.98 658.456 1742.55 704.584 1594.45 739.918C1475.97 768.185 1344.15 706.739 1315.78 664.376L1298.81 687.923C1391.09 768.114 1546.54 778.885 1612.53 761.919C1737.04 735.24 1940.58 677.392 2163.63 854.848Z" fill="#96F1FE"/>
<path d="M2174.95 836.287C2344.47 971.152 2520.55 869.384 2605.78 850.979L2565.83 824.146C2394.05 907.415 2256.61 883.02 2199.05 819.162C1977.3 639.895 1753.87 686.024 1605.77 721.357C1487.29 749.625 1355.47 688.178 1327.1 645.815L1310.13 669.362C1402.41 749.553 1557.86 760.324 1623.84 743.358C1748.36 716.679 1951.89 658.832 2174.95 836.287Z" fill="#FDBAD1"/>
<path d="M2185.22 817.163C2354.74 952.028 2530.82 850.26 2616.05 831.855L2576.09 805.021C2404.32 888.291 2266.88 863.895 2209.32 800.038C1987.57 620.771 1764.14 666.899 1616.04 702.233C1497.56 730.5 1365.74 669.054 1337.37 626.691L1320.4 650.238C1412.67 730.429 1568.12 741.2 1634.11 724.234C1758.63 697.555 1962.16 639.707 2185.22 817.163Z" fill="#D01878"/>
</g>
</g>
<defs>
<clipPath id="clip0_2179_1380">
<rect width="2545" height="1068" fill="white"/>
</clipPath>
</defs>
</svg>
