<svg width="118" height="151" viewBox="0 0 118 151" fill="none" xmlns="http://www.w3.org/2000/svg">
<path d="M106.412 3.18829L5.48696 68.1639C2.75926 70.4385 0.637717 72.7118 3.06234 77.2601C5.00204 80.8987 8.51775 80.0757 10.0331 79.2093L45.7963 59.7166L55.4948 84.4074L36.4009 116.245C34.7845 121.66 31.1274 133.854 29.4301 139.312C27.7329 144.77 31.9558 147.434 34.2794 148.084C39.6135 149.903 41.9574 146.026 42.4625 143.86L48.524 120.469L70.0426 97.7274L91.8642 118.844C93.4806 123.284 97.4408 133.854 100.35 140.611C103.26 147.369 107.624 147.542 109.443 146.784C114.777 144.705 114.494 139.42 113.686 137.038L105.806 112.347L84.2872 81.8084L77.3165 42.823C87.8232 34.1596 109.806 15.988 113.686 12.6093C117.565 9.23057 115.706 5.57058 114.292 4.16293C111.867 0.784195 108.028 2.10537 106.412 3.18829Z" fill="#FCE3D9" stroke="#FF6D3B" stroke-width="4"/>
<path d="M42.9207 4C50.5588 4.0002 56.9832 10.6808 56.9832 19.2188C56.9831 27.7566 50.5588 34.4373 42.9207 34.4375C35.2825 34.4375 28.8573 27.7567 28.8572 19.2188C28.8572 10.6807 35.2824 4 42.9207 4Z" fill="#FCE3D9" stroke="#FF6D3B" stroke-width="4"/>
</svg>
