<svg width="1621" height="388" viewBox="0 0 1621 388" fill="none" xmlns="http://www.w3.org/2000/svg">
<path d="M599.412 150.679C312.064 374.557 125.575 243.961 68.25 150.679V363.745H1552.65V226.064C1457 292.772 1220.59 386.163 1040.16 226.064C859.735 65.9651 671.15 109.099 599.412 150.679Z" fill="#F8AD83"/>
<path d="M145.247 184.708L155.028 136.954C156.162 131.605 155.679 128.235 153.577 126.844L153.402 126.728L153.788 126.144L172.468 138.507L172.081 139.091L171.848 138.937C170.058 137.752 168.51 137.511 167.205 138.214C165.926 138.879 165.045 140.422 164.561 142.844L157.566 175.989L185.634 156.791C187.493 155.503 188.336 154.019 188.162 152.337C188.053 150.641 186.973 149.059 184.923 147.591L185.31 147.007L196.693 154.541L196.306 155.124C195.541 154.674 194.55 154.522 193.334 154.668C192.157 154.841 190.916 155.194 189.61 155.729C188.369 156.251 187.232 156.87 186.199 157.585L145.831 185.094L145.247 184.708ZM165.089 196.51L165.402 195.884L165.465 195.915C166.968 196.666 168.408 196.812 169.785 196.353C171.162 195.893 172.226 194.912 172.977 193.409L183.24 172.871C184.033 171.284 184.315 169.886 184.085 168.676C183.897 167.486 182.759 166.37 180.672 165.327L180.985 164.701L187.371 167.892C189.5 168.956 191.243 169.54 192.6 169.644C193.873 169.706 194.885 169.508 195.636 169.048L196.262 169.361L181.994 197.915C181.243 199.418 181.097 200.858 181.557 202.235C182.016 203.612 182.998 204.676 184.5 205.427L184.563 205.459L184.25 206.085L165.089 196.51ZM193.663 163.132C192.16 162.381 191.147 161.275 190.625 159.815C190.166 158.333 190.312 156.841 191.062 155.338C191.813 153.835 192.909 152.844 194.349 152.363C195.851 151.862 197.354 151.987 198.857 152.738C200.318 153.468 201.278 154.574 201.738 156.055C202.239 157.558 202.124 159.04 201.394 160.501C200.664 161.962 199.548 162.943 198.045 163.444C196.585 163.966 195.124 163.862 193.663 163.132ZM197.104 211.389L197.334 210.727C198.921 211.279 200.36 211.261 201.652 210.673C203.003 210.056 203.962 208.932 204.529 207.301L217.636 169.615C218.188 168.028 218.126 166.574 217.449 165.252C216.817 163.945 215.707 163.015 214.121 162.463L214.35 161.802L221.094 164.148C223.342 164.929 225.145 165.285 226.504 165.214C227.775 165.112 228.753 164.786 229.439 164.234L230.1 164.464L214.05 210.612C213.483 212.243 213.515 213.712 214.148 215.019C214.839 216.297 215.979 217.212 217.566 217.764L217.336 218.425L197.104 211.389ZM233.362 222.892C230.23 222.143 227.623 220.705 225.541 218.576C223.504 216.457 222.131 213.874 221.42 210.825C220.72 207.731 220.793 204.414 221.64 200.873C222.508 197.242 224.016 194.244 226.165 191.879C228.313 189.514 230.86 187.891 233.806 187.012C236.807 186.098 239.964 186.037 243.278 186.829C246.046 187.491 248.367 188.622 250.24 190.221C252.158 191.831 253.514 193.786 254.307 196.087C255.157 198.354 255.364 200.802 254.927 203.432L254.751 204.47L231.875 199.002L231.794 199.342C230.644 204.153 230.788 208.266 232.227 211.681C233.677 215.05 236.194 217.164 239.78 218.021C241.959 218.542 244.149 218.513 246.35 217.936C248.607 217.324 250.566 216.257 252.225 214.734L252.789 215.085C251.464 217.215 249.773 218.97 247.716 220.35C245.659 221.729 243.399 222.652 240.936 223.119C238.474 223.586 235.949 223.51 233.362 222.892ZM232.187 197.997L246.008 201.301C246.865 197.715 246.969 194.669 246.321 192.163C245.718 189.668 244.372 188.171 242.285 187.671C240.288 187.194 238.371 187.887 236.533 189.751C234.696 191.615 233.248 194.364 232.187 197.997ZM266.544 243.668C261.627 243.124 257.713 242.011 254.8 240.328C251.929 238.696 250.611 236.813 250.847 234.679C251.026 233.056 251.953 231.679 253.627 230.55C255.342 229.472 257.584 228.733 260.351 228.335C256.114 226.74 254.152 224.527 254.464 221.698C254.633 220.167 255.393 218.819 256.742 217.654C258.097 216.442 259.908 215.562 262.175 215.015C259.969 213.738 258.324 212.054 257.24 209.962C256.203 207.875 255.831 205.51 256.123 202.866C256.548 199.016 258.211 196.078 261.111 194.051C264.058 192.029 267.781 191.267 272.28 191.764C274.414 192 276.465 192.555 278.434 193.43L291.236 194.845L290.402 196.02L280.94 194.974C282.677 196.246 283.933 197.84 284.707 199.757C285.533 201.633 285.815 203.753 285.554 206.119C285.128 209.968 283.463 212.93 280.557 215.004C277.704 217.036 274.004 217.801 269.458 217.298C266.953 217.022 264.791 216.407 262.971 215.455C261.4 216.079 260.555 216.925 260.438 217.992C260.335 218.919 260.915 219.617 262.178 220.086C262.807 220.343 263.717 220.608 264.907 220.88C266.098 221.153 267.549 221.407 269.26 221.643L271.68 222.051C276.993 222.826 280.986 224.3 283.656 226.473C286.374 228.652 287.555 231.341 287.202 234.542C286.807 238.113 284.786 240.683 281.138 242.252C277.485 243.867 272.621 244.339 266.544 243.668ZM269.481 216.456C270.919 216.615 272.222 215.655 273.391 213.578C274.467 211.49 275.204 208.637 275.604 205.019C276.009 201.355 275.912 198.41 275.313 196.184C274.662 193.999 273.618 192.827 272.18 192.668C270.696 192.504 269.421 193.42 268.355 195.415C267.285 197.456 266.547 200.309 266.142 203.973C265.737 207.638 265.831 210.606 266.425 212.878C267.024 215.104 268.043 216.297 269.481 216.456ZM267.409 242.848C269.543 243.084 271.55 242.977 273.431 242.527C275.307 242.124 276.84 241.425 278.029 240.43C279.266 239.44 279.963 238.225 280.122 236.788C280.296 235.21 279.623 233.868 278.102 232.761C276.483 231.69 273.914 230.937 270.394 230.501L267.974 230.093C266.634 229.898 265.392 229.667 264.248 229.399C263.145 229.183 262.163 228.934 261.302 228.651C260.292 228.868 259.501 229.438 258.93 230.361C258.358 231.284 257.998 232.418 257.85 233.763C257.583 236.175 258.275 238.2 259.925 239.838C261.575 241.475 264.07 242.479 267.409 242.848ZM303.379 230.597C300.159 230.619 297.284 229.844 294.753 228.274C292.269 226.704 290.318 224.523 288.9 221.733C287.481 218.895 286.76 215.657 286.736 212.017C286.711 208.283 287.46 205.012 288.981 202.202C290.503 199.392 292.589 197.208 295.238 195.65C297.935 194.046 300.986 193.232 304.393 193.21C307.239 193.191 309.763 193.735 311.964 194.84C314.211 195.945 315.995 197.52 317.315 199.565C318.681 201.563 319.467 203.891 319.671 206.55L319.748 207.599L296.228 207.754L296.23 208.104C296.263 213.051 297.386 217.01 299.599 219.982C301.811 222.908 304.761 224.358 308.448 224.334C310.688 224.319 312.807 223.769 314.807 222.682C316.853 221.549 318.5 220.044 319.747 218.169L320.379 218.375C319.601 220.761 318.378 222.869 316.71 224.7C315.042 226.531 313.068 227.967 310.788 229.009C308.509 230.05 306.039 230.58 303.379 230.597ZM296.291 206.704L310.501 206.61C310.477 202.924 309.85 199.941 308.622 197.662C307.44 195.383 305.776 194.251 303.63 194.265C301.576 194.279 299.88 195.41 298.542 197.659C297.203 199.907 296.453 202.922 296.291 206.704ZM320.761 229.599L320.683 228.904L320.753 228.896C322.422 228.709 323.71 228.049 324.617 226.915C325.523 225.781 325.883 224.379 325.697 222.709L323.15 199.891C322.953 198.128 322.429 196.802 321.578 195.911C320.774 195.014 319.212 194.696 316.893 194.954L316.816 194.259L323.703 193.49C326.161 193.216 327.99 192.777 329.191 192.173C330.386 191.523 331.195 190.775 331.617 189.93L331.965 189.891L333.308 201.292C333.755 199.834 334.358 198.287 335.114 196.653C335.917 195.014 336.981 193.604 338.305 192.423C339.67 191.191 341.373 190.461 343.413 190.233C344.109 190.155 344.859 190.142 345.663 190.193C346.467 190.244 347.33 190.406 348.253 190.679L346.448 199.121C344.675 198.38 343.141 197.894 341.848 197.663C340.601 197.426 339.513 197.36 338.586 197.463C337.009 197.639 335.88 198.258 335.201 199.32C334.567 200.377 334.047 201.609 333.641 203.016L335.715 221.591C335.901 223.26 336.561 224.548 337.695 225.455C338.83 226.361 340.232 226.721 341.901 226.535L341.971 226.527L342.048 227.223L320.761 229.599ZM366.657 223.471L366.48 222.794C368.061 222.382 369.152 221.76 369.755 220.928C370.392 220.038 370.687 219.045 370.642 217.948C370.643 216.838 370.484 215.674 370.166 214.455L360.492 177.335C360.069 175.709 359.208 174.535 357.911 173.812C356.658 173.077 355.219 172.922 353.593 173.345L353.417 172.668L360.326 170.867C362.629 170.267 364.326 169.56 365.415 168.745C366.415 167.954 367.046 167.139 367.31 166.299L367.987 166.122L374.695 191.862C375.291 189.151 376.586 186.812 378.581 184.846C380.565 182.834 382.888 181.481 385.553 180.786C387.675 180.233 389.611 180.259 391.36 180.864C393.098 181.424 394.562 182.417 395.753 183.843C396.99 185.256 397.873 186.979 398.402 189.012L403.204 207.436C403.639 209.107 404.483 210.31 405.736 211.044C407.022 211.722 408.477 211.849 410.103 211.425L410.28 212.103L389.62 217.487L389.443 216.809C391.069 216.386 392.255 215.57 393.001 214.363C393.781 213.099 393.953 211.631 393.518 209.961L388.539 190.859C388.281 189.865 387.868 188.839 387.303 187.781C386.726 186.677 385.971 185.813 385.036 185.189C384.135 184.507 383.053 184.331 381.788 184.661C380.614 184.967 379.579 185.622 378.684 186.627C377.822 187.575 377.097 188.68 376.51 189.943C375.922 191.205 375.47 192.432 375.154 193.624L379.92 211.913C380.238 213.132 380.645 214.232 381.142 215.211C381.683 216.179 382.426 216.902 383.371 217.379C384.348 217.8 385.627 217.804 387.208 217.392L387.384 218.069L366.657 223.471ZM424.838 207.994L400.874 182.37C400.073 181.516 399.181 180.894 398.198 180.502C397.26 180.095 396.145 180.097 394.855 180.509L394.619 179.85L413.074 173.246L413.309 173.905C411.834 174.631 411.068 175.674 411.009 177.033C410.994 178.377 411.682 179.816 413.074 181.35L425.546 194.805L426.726 176.911C426.804 175.743 426.67 174.676 426.324 173.709C425.931 172.611 425.279 171.828 424.369 171.361C423.458 170.893 422.386 170.806 421.152 171.099L420.917 170.44L431.33 166.714L431.566 167.373C430.518 168.045 429.655 169.097 428.978 170.529C428.301 171.961 427.875 173.749 427.7 175.893L425.431 207.782L424.838 207.994ZM455.921 195.22C452.97 196.507 450.022 196.927 447.078 196.481C444.176 196.015 441.524 194.779 439.121 192.772C436.7 190.723 434.762 188.03 433.306 184.694C431.814 181.272 431.213 177.97 431.505 174.787C431.797 171.605 432.855 168.777 434.677 166.301C436.524 163.765 439.008 161.816 442.131 160.454C444.74 159.316 447.274 158.821 449.732 158.971C452.233 159.102 454.493 159.847 456.511 161.207C458.554 162.505 460.193 164.336 461.427 166.699L461.911 167.634L440.353 177.038L440.493 177.358C442.471 181.893 445.062 185.09 448.266 186.951C451.452 188.768 454.735 188.94 458.114 187.466C460.167 186.571 461.899 185.23 463.309 183.444C464.743 181.596 465.665 179.565 466.073 177.35L466.735 177.291C466.959 179.79 466.665 182.209 465.853 184.549C465.041 186.889 463.792 188.986 462.106 190.842C460.421 192.697 458.359 194.156 455.921 195.22ZM439.997 176.047L453.022 170.366C451.548 166.987 449.798 164.492 447.772 162.881C445.788 161.251 443.812 160.866 441.845 161.724C439.963 162.545 438.849 164.253 438.504 166.847C438.159 169.441 438.657 172.508 439.997 176.047ZM471.525 187.468L471.206 186.845L471.268 186.813C472.763 186.047 473.733 184.972 474.178 183.59C474.622 182.208 474.462 180.77 473.695 179.275L463.216 158.845C462.407 157.268 461.447 156.213 460.335 155.682C459.265 155.129 457.692 155.385 455.616 156.45L455.296 155.827L461.462 152.665C463.663 151.536 465.218 150.476 466.126 149.486C467.013 148.454 467.503 147.468 467.598 146.528L467.909 146.369L473.211 156.551C473.112 155.029 473.126 153.369 473.254 151.573C473.423 149.756 473.917 148.06 474.735 146.486C475.574 144.85 476.907 143.563 478.734 142.626C479.357 142.306 480.054 142.028 480.823 141.79C481.593 141.553 482.458 141.398 483.417 141.325L484.726 149.859C482.805 149.795 481.199 149.884 479.907 150.127C478.657 150.349 477.617 150.673 476.786 151.099C475.375 151.823 474.539 152.802 474.281 154.036C474.064 155.249 474.015 156.585 474.134 158.045L482.664 174.675C483.431 176.169 484.505 177.139 485.887 177.584C487.269 178.029 488.708 177.868 490.202 177.102L490.265 177.07L490.584 177.693L471.525 187.468ZM528.944 156.64C526.201 158.327 523.341 159.155 520.363 159.123C517.425 159.068 514.627 158.214 511.967 156.562C509.283 154.871 506.988 152.475 505.081 149.375C503.125 146.195 502.07 143.009 501.915 139.817C501.759 136.625 502.411 133.677 503.87 130.971C505.345 128.202 507.533 125.925 510.434 124.14C512.859 122.649 515.299 121.806 517.754 121.611C520.249 121.391 522.591 121.813 524.779 122.878C526.983 123.878 528.862 125.462 530.414 127.63L531.024 128.488L510.99 140.81L511.173 141.108C513.765 145.321 516.777 148.126 520.21 149.521C523.618 150.876 526.893 150.588 530.033 148.656C531.941 147.483 533.468 145.913 534.615 143.948C535.778 141.918 536.406 139.778 536.502 137.528L537.148 137.377C537.719 139.82 537.766 142.256 537.289 144.687C536.811 147.117 535.867 149.369 534.458 151.441C533.048 153.513 531.21 155.246 528.944 156.64ZM510.499 139.879L522.603 132.434C520.672 129.294 518.59 127.068 516.359 125.756C514.167 124.419 512.157 124.313 510.329 125.438C508.58 126.514 507.715 128.36 507.736 130.977C507.757 133.594 508.678 136.561 510.499 139.879ZM543.318 146.787L542.92 146.211L542.978 146.172C544.36 145.217 545.182 144.025 545.443 142.597C545.705 141.169 545.358 139.764 544.403 138.381L531.356 119.489C530.349 118.029 529.259 117.109 528.088 116.727C526.955 116.318 525.428 116.777 523.508 118.103L523.111 117.527L528.813 113.589C530.771 112.236 532.123 110.991 532.868 109.852C533.537 108.767 533.851 107.785 533.81 106.905L534.386 106.507L540.013 114.531C539.632 111.845 540.035 109.185 541.222 106.551C542.408 103.916 544.134 101.817 546.4 100.252C548.973 98.4755 551.611 97.9016 554.313 98.5304C557.055 99.1328 559.38 100.816 561.289 103.581L572.109 119.248C573.063 120.631 574.255 121.453 575.683 121.714C577.111 121.975 578.517 121.629 579.899 120.674L579.957 120.634L580.354 121.21L562.786 133.342L562.389 132.766L562.446 132.727C563.829 131.772 564.651 130.581 564.912 129.152C565.173 127.724 564.827 126.319 563.872 124.936L552.655 108.693C551.329 106.773 549.884 105.503 548.321 104.881C546.795 104.233 545.418 104.333 544.19 105.182C542.999 106.004 542.109 107.384 541.52 109.322C540.942 111.196 540.77 113.328 541.003 115.719L552.698 132.653C553.652 134.036 554.844 134.858 556.272 135.119C557.7 135.38 559.105 135.034 560.488 134.079L560.545 134.039L560.943 134.615L543.318 146.787ZM594.073 112.706C591.427 114.542 588.617 115.526 585.642 115.659C582.706 115.766 579.864 115.068 577.118 113.565C574.344 112.025 571.92 109.759 569.845 106.769C567.717 103.702 566.487 100.579 566.156 97.4004C565.825 94.222 566.313 91.242 567.621 88.4603C568.94 85.6136 570.999 83.2193 573.798 81.2771C576.136 79.6542 578.526 78.6776 580.966 78.3474C583.445 77.9905 585.807 78.2831 588.051 79.2251C590.307 80.1022 592.27 81.5803 593.939 83.6592L594.596 84.482L575.272 97.8908L575.472 98.1783C578.292 102.242 581.454 104.876 584.959 106.079C588.437 107.244 591.69 106.776 594.719 104.674C596.56 103.397 597.998 101.746 599.035 99.72C600.083 97.6292 600.593 95.4579 600.564 93.2059L601.201 93.0193C601.906 95.4269 602.088 97.8573 601.745 100.31C601.402 102.763 600.584 105.063 599.291 107.211C597.997 109.358 596.258 111.189 594.073 112.706ZM574.731 96.9882L586.406 88.8871C584.304 85.8582 582.103 83.7503 579.802 82.5633C577.54 81.3498 575.527 81.3549 573.764 82.5787C572.077 83.7493 571.316 85.6406 571.481 88.2524C571.646 90.8643 572.729 93.7762 574.731 96.9882ZM621.541 97.016C620.433 97.511 619.583 97.8396 618.991 98.0019C618.399 98.1642 617.819 98.2957 617.251 98.3964C616.725 98.478 616.038 98.657 615.191 98.9336C614.343 99.2101 613.089 99.7196 611.427 100.462L604.524 89.1327L605.355 88.7614C607.826 92.4617 610.456 94.9156 613.245 96.123C616.014 97.2877 618.507 97.3751 620.722 96.385C622.895 95.414 624.336 94.2337 625.044 92.8439C625.794 91.4351 625.827 89.9638 625.141 88.43C624.703 87.4501 624.067 86.7122 623.232 86.2163C622.421 85.6589 621.247 85.2632 619.711 85.0294C618.157 84.753 616.109 84.5178 613.569 84.324L611.259 84.1296C608.325 83.856 605.893 83.1028 603.962 81.87C602.055 80.5756 600.644 78.9058 599.73 76.8607C598.435 73.9635 598.461 71.2176 599.806 68.623C601.194 66.0094 603.656 63.9125 607.192 62.3322C608.087 61.9324 608.83 61.6513 609.422 61.489C610.014 61.3267 610.594 61.1953 611.163 61.0946C611.731 60.994 612.418 60.8149 613.223 60.5574C614.028 60.2999 615.069 59.8856 616.347 59.3144L621.84 69.2039L621.073 69.5466C619.923 67.6584 618.557 66.1473 616.977 65.0133C615.421 63.8176 613.856 63.0603 612.282 62.7413C610.689 62.3796 609.275 62.4749 608.039 63.027C606.42 63.7505 605.311 64.7573 604.712 66.0473C604.155 67.3183 604.22 68.7207 604.905 70.2545C605.419 71.4049 606.257 72.3082 607.42 72.9645C608.605 73.5591 610.511 73.9343 613.136 74.0901L615.482 74.192C619.15 74.3931 622.037 75.0198 624.143 76.0722C626.249 77.1246 627.882 78.9502 629.044 81.5492C632.014 88.1958 629.513 93.3514 621.541 97.016ZM647.119 87.0762C644.823 87.8633 642.698 87.7781 640.741 86.8208C638.785 85.8635 637.406 84.215 636.604 81.8754L627.863 56.3821L622.235 58.3118L621.94 57.451C624.91 56.1859 627.292 54.284 629.086 51.7451C630.923 49.191 632.115 46.1924 632.661 42.7491L633.721 42.3859L636.99 51.921L645.797 48.9016L645.543 50.3206L637.399 53.1129L645.64 77.1495C646.85 80.681 648.648 82.0381 651.031 81.2209C651.826 80.9484 652.648 80.3954 653.497 79.5617C654.39 78.7129 655.163 77.7322 655.818 76.6198L656.045 77.282C655.224 79.6355 654.009 81.7046 652.401 83.4892C650.778 85.2298 649.017 86.4254 647.119 87.0762ZM673.558 79.7044C670.428 80.4619 667.452 80.3661 664.63 79.4168C661.852 78.4566 659.454 76.7805 657.435 74.3885C655.404 71.9511 653.961 68.9635 653.104 65.4256C652.226 61.7971 652.206 58.441 653.044 55.3572C653.882 52.2735 655.413 49.6704 657.636 47.5478C659.893 45.3689 662.677 43.8787 665.988 43.0772C668.755 42.4074 671.336 42.3589 673.731 42.9314C676.172 43.493 678.269 44.6179 680.022 46.3062C681.809 47.9381 683.107 50.0248 683.914 52.5662L684.229 53.5703L661.369 59.1038L661.451 59.4439C662.615 64.2518 664.614 67.8491 667.449 70.2359C670.272 72.5773 673.476 73.3144 677.059 72.447C679.236 71.92 681.173 70.8989 682.871 69.3836C684.603 67.8119 685.862 65.9707 686.648 63.86L687.309 63.9159C687.098 66.4158 686.39 68.7478 685.186 70.9119C683.981 73.0761 682.388 74.9261 680.407 76.4619C678.426 77.9977 676.143 79.0786 673.558 79.7044ZM661.19 58.0668L675.001 54.7236C674.134 51.1404 672.842 48.3803 671.124 46.4433C669.452 44.4953 667.573 43.7738 665.487 44.2789C663.491 44.7619 662.099 46.2513 661.311 48.7468C660.522 51.2423 660.482 54.349 661.19 58.0668ZM734.617 72.2653L733.688 62.3686C732.782 64.883 731.282 67.0274 729.187 68.8017C727.089 70.5296 724.761 71.5045 722.204 71.7264C719.693 71.9442 717.37 71.3495 715.234 69.9423C713.097 68.535 711.329 66.5103 709.929 63.8681C708.524 61.1795 707.671 58.0917 707.368 54.6048C707.029 50.6995 707.456 47.243 708.647 44.2355C709.884 41.2239 711.738 38.838 714.209 37.0778C716.675 35.2712 719.605 34.2206 722.999 33.9261C724.905 33.7607 726.489 33.9278 727.75 34.4273C729.008 34.8803 730.185 35.7618 731.282 37.0719L730.114 23.6124C729.969 21.9387 729.317 20.6369 728.159 19.7068C727.048 18.7727 725.655 18.3783 723.981 18.5236L723.921 17.8262L731.034 17.2089C733.359 17.0072 735.105 16.6215 736.274 16.0517C737.442 15.4819 738.246 14.7563 738.685 13.8751L739.382 13.8146L743.606 62.4917C743.751 64.1654 744.379 65.4693 745.491 66.4034C746.603 67.3374 748.018 67.7298 749.739 67.5806L749.799 68.2779L742.686 68.8952C740.64 69.0727 739.031 69.4231 737.859 69.9464C736.733 70.4657 735.885 71.2185 735.314 72.2048L734.617 72.2653ZM725.798 68.604C726.867 68.5113 727.908 68.093 728.921 67.3494C729.976 66.5552 730.897 65.5618 731.683 64.3694C732.47 63.1769 733.018 61.9349 733.328 60.6433L731.851 43.6272C731.376 40.8579 730.485 38.6868 729.178 37.1139C727.917 35.537 726.38 34.8273 724.567 34.9846C722.149 35.1944 720.399 36.892 719.317 40.0775C718.282 43.2589 718.024 47.8483 718.545 53.8458C719.428 64.0275 721.846 68.947 725.798 68.604ZM759.541 69.6474C756.695 69.5914 754.424 68.7766 752.728 67.2029C751.032 65.6292 750.209 63.5826 750.258 61.0631C750.28 59.99 750.486 58.9905 750.878 58.0647C751.27 57.0923 751.989 56.1495 753.034 55.2366C754.125 54.3245 755.614 53.397 757.499 52.4539C759.386 51.4641 761.88 50.4396 764.981 49.3804L771.537 47.1289L771.64 41.88C771.692 39.2205 771.314 37.1126 770.504 35.5564C769.695 33.9535 768.545 33.1374 767.052 33.108C765.278 33.1198 763.738 34.2564 762.434 36.5178C761.176 38.7802 760.297 41.9369 759.797 45.9878L752.324 41.5C753.154 39.6026 754.401 37.9468 756.062 36.5325C757.724 35.1183 759.612 34.0352 761.727 33.2833C763.889 32.5324 766.136 32.1798 768.469 32.2257C772.435 32.3037 775.632 33.4869 778.061 35.7751C780.538 38.0175 781.738 41.0517 781.663 44.8777L781.331 61.7444C781.278 64.4505 782.161 65.8215 783.981 65.8573C785.054 65.8784 786.115 65.3159 787.164 64.1696L787.715 64.6705C786.47 66.2797 784.974 67.5805 783.227 68.573C781.481 69.5655 779.791 70.0457 778.158 70.0136C776.385 69.9787 774.857 69.3419 773.574 68.1031C772.339 66.8652 771.577 65.2399 771.29 63.2272C768.958 65.5151 766.918 67.1786 765.171 68.2178C763.471 69.2112 761.594 69.6878 759.541 69.6474ZM764.876 65.4115C765.902 65.4317 766.887 65.1943 767.83 64.6994C768.82 64.2055 769.933 63.3872 771.169 62.2446L771.519 48.0388L768.699 49.0335C766.302 49.8732 764.464 50.7472 763.186 51.6556C761.909 52.5173 761.003 53.503 760.467 54.6127C759.979 55.7233 759.72 57.0018 759.692 58.4482C759.652 60.4544 760.11 62.1204 761.064 63.4461C762.065 64.7261 763.336 65.3812 764.876 65.4115ZM802.38 86.9161C797.469 86.3219 793.566 85.168 790.671 83.4545C787.817 81.7929 786.518 79.8965 786.776 77.7654C786.972 76.1439 787.913 74.7771 789.599 73.6648C791.326 72.6046 793.575 71.8895 796.346 71.5198C792.125 69.8809 790.186 67.6485 790.528 64.8224C790.713 63.2936 791.486 61.9534 792.848 60.802C794.215 59.6042 796.035 58.7432 798.308 58.2191C796.115 56.9196 794.487 55.2184 793.425 53.1157C792.41 51.0185 792.062 48.6496 792.382 46.0088C792.847 42.1635 794.54 39.2424 797.461 37.2455C800.428 35.2542 804.159 34.5305 808.653 35.0743C810.784 35.3321 812.83 35.9087 814.79 36.804L827.576 38.3512L826.73 39.518L817.279 38.3744C819.003 39.6642 820.242 41.2714 820.997 43.1959C821.803 45.0797 822.063 47.203 821.777 49.5658C821.312 53.4111 819.616 56.3553 816.689 58.3985C813.815 60.4011 810.107 61.1276 805.567 60.5782C803.065 60.2755 800.909 59.6386 799.1 58.6675C797.522 59.2757 796.668 60.1126 796.54 61.1781C796.427 62.1047 797 62.8086 798.258 63.2899C798.884 63.5537 799.791 63.828 800.979 64.1127C802.167 64.3974 803.615 64.6667 805.324 64.9204L807.739 65.3537C813.044 66.1837 817.021 67.6991 819.669 69.8998C822.364 72.1061 823.518 74.8076 823.131 78.0043C822.699 81.5716 820.651 84.1208 816.988 85.6517C813.318 87.229 808.449 87.6505 802.38 86.9161ZM805.598 59.7359C807.035 59.9097 808.348 58.9639 809.538 56.8986C810.635 54.822 811.402 51.9769 811.84 48.3633C812.283 44.7033 812.216 41.7573 811.64 39.5253C811.012 37.334 809.98 36.1515 808.544 35.9777C807.061 35.7983 805.777 36.7005 804.691 38.6844C803.599 40.7146 802.832 43.5597 802.389 47.2197C801.946 50.8797 802.01 53.8488 802.58 56.1272C803.156 58.3592 804.162 59.5621 805.598 59.7359ZM803.254 86.1052C805.385 86.3631 807.393 86.277 809.278 85.8471C811.158 85.4634 812.698 84.7801 813.898 83.7972C815.144 82.8198 815.855 81.613 816.028 80.1769C816.219 78.6017 815.56 77.2527 814.05 76.1299C812.443 75.0423 809.881 74.2622 806.366 73.7899L803.95 73.3566C802.612 73.1477 801.373 72.9036 800.231 72.6245C799.131 72.3973 798.151 72.1378 797.293 71.846C796.281 72.0525 795.485 72.6142 794.904 73.5311C794.323 74.4479 793.951 75.5781 793.788 76.9217C793.497 79.3307 794.168 81.3627 795.801 83.0175C797.434 84.6724 799.918 85.7016 803.254 86.1052Z" fill="#303030"/>
</svg>
