<svg width="430" height="148" viewBox="0 0 430 148" fill="none" xmlns="http://www.w3.org/2000/svg">
<g clip-path="url(#clip0_2133_2052)">
<rect width="430" height="148" fill="#EEE5DB"/>
<path d="M153.866 49.8C70.6276 118.535 16.606 78.4394 0 49.8V148.551H430V72.9446C402.292 93.4251 333.809 122.098 281.543 72.9446C229.276 23.7914 174.647 37.0344 153.866 49.8Z" fill="#F8AD83"/>
<path d="M7.16215 49.4259L13.0217 29.3737C13.6945 27.1289 13.6067 25.6724 12.7581 25.0043L12.6874 24.9486L12.8729 24.7129L20.4158 30.6514L20.2303 30.8871L20.136 30.8128C19.4131 30.2437 18.7606 30.0864 18.1785 30.3408C17.6087 30.5795 17.1779 31.2076 16.886 32.2251L12.7308 46.1355L25.3953 38.9243C26.2349 38.4399 26.6472 37.8354 26.6321 37.1108C26.6452 36.3829 26.2398 35.6692 25.416 34.9697L25.6016 34.734L30.198 38.3527L30.0124 38.5885C29.7015 38.3691 29.2837 38.2693 28.7591 38.289C28.2502 38.3211 27.7076 38.4284 27.1311 38.6109C26.5828 38.7901 26.0754 39.0143 25.6089 39.2834L7.39787 49.6114L7.16215 49.4259ZM18.0136 57.0655L18.1494 56.798L18.1761 56.8115C18.8182 57.1372 19.435 57.2034 20.0265 57.01C20.6179 56.8167 21.0765 56.3989 21.4022 55.7568L25.8534 46.9811C26.1972 46.3033 26.3214 45.7048 26.226 45.1854C26.1484 44.6752 25.6637 44.1938 24.7719 43.7415L24.9076 43.4739L27.6366 44.8582C28.5463 45.3196 29.2917 45.5743 29.8728 45.6224C30.4182 45.6524 30.8525 45.5699 31.1756 45.375L31.4432 45.5107L25.2549 57.711C24.9292 58.3531 24.863 58.9699 25.0564 59.5613C25.2498 60.1528 25.6675 60.6114 26.3097 60.9371L26.3364 60.9506L26.2007 61.2182L18.0136 57.0655ZM30.345 42.8344C29.7029 42.5087 29.2719 42.0322 29.0519 41.4048C28.8587 40.7687 28.925 40.1295 29.2507 39.4874C29.5764 38.8453 30.0485 38.4231 30.6668 38.221C31.312 38.01 31.9557 38.0674 32.5978 38.3931C33.2221 38.7097 33.6308 39.1862 33.8239 39.8223C34.0348 40.4675 33.982 41.1023 33.6653 41.7266C33.3487 42.3509 32.8677 42.7685 32.2225 42.9794C31.5952 43.1994 30.9693 43.1511 30.345 42.8344ZM36.3718 65.0719L36.4442 64.7808C37.1429 64.9547 37.7565 64.891 38.2849 64.5898C38.8376 64.2739 39.2033 63.7569 39.382 63.0389L43.5127 46.4453C43.6866 45.7466 43.6036 45.1282 43.2635 44.5901C42.9428 44.0569 42.4331 43.7033 41.7344 43.5293L41.8069 43.2382L44.7763 43.9774C45.7661 44.2238 46.5495 44.3055 47.1267 44.2224C47.665 44.1297 48.0699 43.9523 48.3413 43.6901L48.6324 43.7625L43.5741 64.0824C43.3953 64.8005 43.4663 65.4262 43.787 65.9594C44.1319 66.4781 44.6537 66.8244 45.3524 66.9983L45.2799 67.2894L36.3718 65.0719ZM55.3897 68.6278C54.0137 68.5218 52.8135 68.0882 51.789 67.3272C50.7844 66.5678 50.0291 65.5668 49.5231 64.3242C49.0186 63.0617 48.8263 61.6528 48.9462 60.0974C49.0692 58.5021 49.5058 57.1316 50.2561 55.9859C51.0064 54.8402 51.9752 53.9821 53.1625 53.4116C54.3713 52.8228 55.7036 52.5845 57.1593 52.6967C58.3757 52.7905 59.434 53.1128 60.3344 53.6636C61.2546 54.2159 61.9601 54.9523 62.4508 55.8728C62.963 56.7748 63.2152 57.7972 63.2073 58.94L63.2027 59.391L53.1525 58.6163L53.141 58.7658C52.978 60.8796 53.316 62.6106 54.1548 63.9591C54.9952 65.2876 56.2031 66.0126 57.7784 66.134C58.7356 66.2078 59.6605 66.0484 60.5533 65.6559C61.4676 65.2449 62.2247 64.6614 62.8246 63.9053L63.0869 64.0157C62.6695 65.0066 62.0719 65.8632 61.2941 66.5856C60.5163 67.3079 59.6219 67.8508 58.611 68.2142C57.6001 68.5775 56.5263 68.7154 55.3897 68.6278ZM53.217 58.1699L59.289 58.6379C59.4104 57.0626 59.2495 55.7664 58.8064 54.7494C58.3832 53.7338 57.713 53.1907 56.7957 53.12C55.9183 53.0524 55.1535 53.4748 54.5015 54.3874C53.8494 55.3 53.4212 56.5608 53.217 58.1699ZM74.5371 74.7072C72.4306 74.9457 70.6888 74.8511 69.312 74.4232C67.9572 74.013 67.2281 73.3508 67.1246 72.4367C67.0459 71.7411 67.3029 71.078 67.8957 70.4473C68.5107 69.8342 69.3776 69.3134 70.4965 68.8848C68.5744 68.6194 67.5447 67.8805 67.4075 66.6682C67.3333 66.0124 67.523 65.3771 67.9767 64.7621C68.4281 64.1273 69.1018 63.5881 69.9975 63.1445C68.9544 62.8198 68.1074 62.2716 67.4564 61.4999C66.8253 60.726 66.4457 59.7727 66.3174 58.6399C66.1307 56.9904 66.5475 55.6048 67.5677 54.4829C68.6079 53.3587 70.0918 52.6875 72.0195 52.4693C72.9336 52.3658 73.8437 52.4037 74.7496 52.5829L80.2346 51.9619L79.9972 52.5322L75.9431 52.9912C76.7898 53.3583 77.4656 53.9058 77.9707 54.6336C78.4934 55.3392 78.8122 56.1988 78.9269 57.2124C79.1136 58.8618 78.698 60.2574 77.68 61.3992C76.6796 62.5189 75.2056 63.1889 73.258 63.4094C72.1849 63.5309 71.2229 63.4788 70.3721 63.2531C69.7744 63.6629 69.5015 64.0964 69.5532 64.5534C69.5982 64.9509 69.9068 65.1877 70.479 65.2638C70.7662 65.3118 71.1716 65.3364 71.695 65.3375C72.2185 65.3386 72.849 65.3075 73.5865 65.2441L74.6366 65.1856C76.931 65.0064 78.7393 65.2444 80.0614 65.8999C81.4034 66.5531 82.152 67.5653 82.3072 68.9365C82.4805 70.4667 81.8791 71.7324 80.5029 72.7336C79.1291 73.7546 77.1405 74.4125 74.5371 74.7072ZM73.1877 63.0551C73.8038 62.9853 74.2577 62.4609 74.5494 61.4819C74.8014 60.5074 74.8396 59.2451 74.6641 57.695C74.4864 56.125 74.1669 54.9032 73.7057 54.0295C73.2269 53.178 72.6794 52.7871 72.0634 52.8568C71.4274 52.9288 70.9812 53.4322 70.7247 54.367C70.4705 55.3216 70.4323 56.584 70.61 58.1539C70.7878 59.7239 71.1084 60.9557 71.5718 61.8492C72.033 62.7229 72.5717 63.1248 73.1877 63.0551ZM74.8211 74.2826C75.7353 74.1791 76.5641 73.9444 77.3077 73.5784C78.0535 73.2323 78.6279 72.7949 79.031 72.2662C79.454 71.7353 79.6306 71.1617 79.5608 70.5457C79.4843 69.87 79.0758 69.3728 78.3353 69.0541C77.5572 68.7597 76.4119 68.6881 74.8993 68.8392L73.8492 68.8977C73.2706 68.9431 72.7296 68.9641 72.226 68.9607C71.7445 68.975 71.3105 68.9637 70.9239 68.927C70.5223 69.1134 70.2458 69.4265 70.0943 69.8663C69.9428 70.3061 69.8997 70.8142 69.965 71.3905C70.082 72.4239 70.5629 73.2048 71.4076 73.7331C72.2524 74.2614 73.3903 74.4446 74.8211 74.2826ZM91.572 64.9315C90.2431 65.3037 88.967 65.308 87.7437 64.9445C86.5395 64.5756 85.4868 63.8942 84.5854 62.9005C83.6786 61.8875 83.0148 60.6299 82.5941 59.1277C82.1626 57.587 82.1028 56.1499 82.4147 54.8164C82.7267 53.4828 83.3425 52.3446 84.2623 51.4016C85.1959 50.4339 86.3657 49.7532 87.7716 49.3595C88.9464 49.0305 90.0511 48.9703 91.0857 49.179C92.1396 49.3823 93.0548 49.8322 93.8314 50.5285C94.6218 51.2003 95.2093 52.0742 95.5938 53.1504L95.744 53.5756L86.0375 56.2941L86.078 56.4385C86.6497 58.48 87.5608 59.9902 88.8111 60.9693C90.0561 61.9291 91.4393 62.196 92.9608 61.7699C93.8852 61.511 94.6995 61.0441 95.4036 60.3692C96.1215 59.6696 96.6326 58.8619 96.9368 57.9459L97.2211 57.9597C97.1688 59.0336 96.9011 60.0432 96.4182 60.9885C95.9352 61.9338 95.2812 62.7504 94.4562 63.4384C93.6312 64.1264 92.6698 64.6241 91.572 64.9315ZM85.945 55.8527L91.8094 54.2103C91.3833 52.6888 90.7877 51.5264 90.0227 50.7229C89.2769 49.9141 88.4611 49.6337 87.5752 49.8818C86.7278 50.1191 86.1543 50.7782 85.8547 51.8591C85.555 52.9399 85.5852 54.2711 85.945 55.8527ZM101.156 61.7531L101.039 61.4769L101.066 61.4652C101.729 61.1837 102.177 60.7545 102.41 60.1775C102.643 59.6005 102.619 58.9806 102.337 58.3179L98.4902 49.2611C98.193 48.5616 97.8151 48.0811 97.3564 47.8196C96.9161 47.5503 96.2357 47.6112 95.3153 48.0021L95.198 47.726L97.9316 46.5649C98.9072 46.1505 99.6045 45.7457 100.023 45.3505C100.434 44.9369 100.675 44.5306 100.744 44.1316L100.882 44.073L102.833 48.5897C102.838 47.9358 102.896 47.2269 103.006 46.4631C103.134 45.6914 103.398 44.9819 103.796 44.3345C104.206 43.6609 104.815 43.1521 105.625 42.808C105.901 42.6908 106.208 42.5933 106.544 42.5156C106.88 42.4379 107.255 42.3984 107.667 42.3971L107.962 46.0851C107.143 45.9984 106.454 45.987 105.894 46.0509C105.353 46.1069 104.899 46.2131 104.53 46.3695C103.905 46.6353 103.517 47.028 103.368 47.5475C103.238 48.0592 103.176 48.6289 103.182 49.2565L106.313 56.629C106.595 57.2917 107.024 57.7395 107.601 57.9725C108.178 58.2055 108.798 58.1812 109.461 57.8997L109.488 57.888L109.605 58.1641L101.156 61.7531ZM122.951 51.7209L122.792 51.4665C123.386 51.0956 123.753 50.7014 123.893 50.2838C124.039 49.8387 124.033 49.3945 123.874 48.9514C123.732 48.4977 123.518 48.0418 123.232 47.5838L114.523 33.64C114.142 33.0293 113.639 32.6592 113.016 32.5297C112.41 32.3896 111.801 32.5102 111.191 32.8916L111.032 32.6372L113.627 31.0162C114.492 30.4759 115.096 29.9694 115.437 29.4967C115.745 29.0453 115.899 28.6309 115.899 28.2535L116.153 28.0946L122.192 37.7637C122.089 36.5786 122.319 35.4561 122.883 34.3963C123.437 33.3195 124.214 32.4686 125.215 31.8435C126.012 31.3455 126.807 31.1083 127.6 31.1319C128.382 31.1385 129.108 31.3571 129.778 31.7877C130.465 32.2076 131.047 32.7993 131.523 33.5627L135.846 40.4837C136.238 41.1113 136.737 41.4952 137.344 41.6353C137.956 41.7479 138.568 41.6134 139.178 41.232L139.337 41.4865L131.577 46.3335L131.418 46.0791C132.028 45.6977 132.409 45.2123 132.56 44.623C132.717 44.0061 132.599 43.3839 132.207 42.7562L127.726 35.5808C127.493 35.2076 127.193 34.8407 126.826 34.4802C126.449 34.1027 126.029 33.8461 125.567 33.7102C125.112 33.5469 124.646 33.6135 124.171 33.9101C123.73 34.1856 123.391 34.5862 123.153 35.1119C122.922 35.61 122.767 36.1548 122.688 36.7462C122.61 37.3377 122.582 37.8974 122.605 38.4252L126.896 45.2954C127.182 45.7534 127.489 46.151 127.818 46.4882C128.163 46.8148 128.56 47.0152 129.007 47.0896C129.461 47.1363 129.984 46.9743 130.578 46.6035L130.737 46.858L122.951 51.7209ZM146.572 36.8186L133.535 29.3264C133.1 29.0773 132.657 28.9341 132.205 28.8969C131.769 28.8478 131.312 28.9886 130.835 29.3194L130.656 29.0789L137.389 24.0565L137.569 24.297C137.055 24.7796 136.872 25.3032 137.019 25.8675C137.181 26.42 137.644 26.9232 138.407 27.3772L145.206 31.325L143.444 23.8444C143.329 23.3561 143.14 22.9356 142.877 22.5829C142.578 22.1821 142.213 21.9431 141.781 21.866C141.349 21.7889 140.899 21.8877 140.43 22.1625L140.251 21.922L144.05 19.0879L144.23 19.3284C143.885 19.7355 143.663 20.2749 143.565 20.9467C143.468 21.6184 143.518 22.4045 143.715 23.3051L146.788 36.6572L146.572 36.8186ZM158.369 28.9523C157.173 29.6417 155.938 29.9616 154.663 29.9121C153.405 29.8525 152.216 29.4528 151.097 28.713C149.968 27.9559 149.013 26.9016 148.234 25.5502C147.435 24.1642 147.021 22.7865 146.994 21.4173C146.966 20.048 147.281 18.7928 147.939 17.6515C148.604 16.483 149.569 15.534 150.834 14.8047C151.891 14.1952 152.946 13.8636 154 13.8099C155.072 13.7461 156.07 13.9555 156.994 14.4381C157.926 14.8934 158.712 15.5948 159.351 16.5424L159.601 16.9173L150.869 21.9527L150.944 22.0827C152.003 23.9192 153.26 25.1571 154.713 25.7964C156.157 26.4183 157.563 26.3346 158.932 25.5453C159.764 25.0658 160.437 24.4119 160.952 23.5838C161.475 22.7284 161.77 21.8193 161.838 20.8565L162.117 20.7996C162.332 21.8531 162.323 22.8975 162.089 23.9329C161.855 24.9682 161.423 25.9213 160.794 26.792C160.165 27.6627 159.356 28.3828 158.369 28.9523ZM150.67 21.5479L155.946 18.5057C155.157 17.1369 154.292 16.158 153.352 15.5688C152.429 14.9696 151.57 14.8998 150.773 15.3594C150.01 15.799 149.618 16.5795 149.595 17.7008C149.572 18.8222 149.931 20.1046 150.67 21.5479ZM163.297 25.4108L163.209 25.124L163.238 25.1152C163.926 24.9045 164.416 24.5245 164.708 23.975C165 23.4255 165.041 22.8065 164.83 22.118L161.952 12.7086C161.729 11.9818 161.404 11.4645 160.975 11.1565C160.565 10.8426 159.882 10.832 158.926 11.1245L158.838 10.8377L161.678 9.96874C162.692 9.65862 163.427 9.32894 163.885 8.9797C164.337 8.61134 164.619 8.23241 164.73 7.84292L164.873 7.79904L166.341 12.495C166.414 11.8452 166.545 11.1462 166.735 10.398C166.943 9.64404 167.28 8.96596 167.744 8.36382C168.221 7.73671 168.881 7.29442 169.722 7.03696C170.009 6.94918 170.324 6.88425 170.667 6.84215C171.009 6.80005 171.386 6.79991 171.796 6.84173L171.704 10.5405C170.898 10.3686 170.214 10.2852 169.651 10.2902C169.107 10.2893 168.644 10.3474 168.261 10.4644C167.611 10.6634 167.185 11.0134 166.982 11.5145C166.799 12.0097 166.678 12.5698 166.618 13.1946L168.961 20.8541C169.172 21.5426 169.552 22.0329 170.102 22.3249C170.651 22.6169 171.27 22.6576 171.959 22.4469L171.987 22.4382L172.075 22.725L163.297 25.4108ZM190.23 20.1254C188.853 20.2075 187.605 19.9412 186.486 19.3266C185.388 18.7108 184.503 17.8217 183.833 16.6595C183.162 15.4773 182.779 14.1076 182.687 12.5504C182.592 10.9532 182.838 9.53608 183.425 8.29897C184.013 7.06187 184.856 6.08002 185.955 5.35343C187.072 4.60569 188.36 4.18844 189.817 4.10167C191.035 4.02916 192.127 4.20455 193.094 4.62783C194.081 5.04993 194.88 5.68356 195.492 6.52872C196.122 7.35273 196.51 8.33135 196.658 9.46458L196.715 9.912L186.653 10.5111L186.661 10.6608C186.787 12.7771 187.358 14.4461 188.372 15.668C189.385 16.8699 190.681 17.4239 192.258 17.33C193.216 17.2729 194.111 16.9893 194.942 16.479C195.792 15.9475 196.463 15.2665 196.954 14.4358L197.229 14.5096C196.95 15.548 196.475 16.4779 195.802 17.2993C195.13 18.1207 194.318 18.7801 193.365 19.2776C192.413 19.7751 191.368 20.0577 190.23 20.1254ZM186.656 10.0601L192.735 9.69815C192.641 8.12094 192.306 6.85866 191.728 5.91129C191.171 4.96274 190.433 4.51581 189.515 4.57048C188.636 4.62278 187.936 5.14532 187.414 6.1381C186.892 7.13087 186.639 8.4382 186.656 10.0601ZM196.884 19.23L196.918 18.932L196.948 18.9354C197.663 19.0175 198.264 18.8652 198.752 18.4783C199.239 18.0914 199.524 17.5402 199.606 16.825L200.729 7.04924C200.816 6.2942 200.724 5.6898 200.454 5.23602C200.204 4.78453 199.582 4.50172 198.589 4.3876L198.623 4.08956L201.574 4.4285C202.587 4.54491 203.374 4.52464 203.936 4.3677C204.458 4.2062 204.836 3.97791 205.072 3.68282L205.37 3.71706L204.92 7.89304C205.555 6.91918 206.436 6.17482 207.562 5.65997C208.688 5.14512 209.838 4.95503 211.01 5.08969C212.341 5.24262 213.354 5.80185 214.048 6.7674C214.762 7.73523 215.037 8.93444 214.873 10.365L213.942 18.4717C213.86 19.187 214.012 19.7883 214.399 20.2757C214.786 20.763 215.337 21.0478 216.052 21.1299L216.082 21.1334L216.048 21.4314L206.958 20.3872L206.992 20.0891L207.022 20.0926C207.737 20.1747 208.338 20.0224 208.826 19.6355C209.313 19.2485 209.598 18.6974 209.68 17.9821L210.645 9.57741C210.759 8.58394 210.652 7.76635 210.323 7.12462C210.014 6.48517 209.542 6.12893 208.906 6.05589C208.29 5.98514 207.613 6.1792 206.876 6.63807C206.161 7.07935 205.504 7.71852 204.904 8.55558L203.898 17.318C203.816 18.0333 203.968 18.6346 204.355 19.1219C204.742 19.6092 205.293 19.894 206.008 19.9762L206.038 19.9796L206.004 20.2776L196.884 19.23ZM221.846 23.6586C220.521 23.273 219.435 22.6028 218.588 21.6481C217.761 20.699 217.226 19.5646 216.986 18.2447C216.75 16.9056 216.851 15.4872 217.287 13.9893C217.734 12.453 218.442 11.201 219.411 10.2332C220.38 9.26546 221.504 8.62399 222.783 8.30883C224.087 7.98005 225.439 8.01964 226.841 8.4276C228.013 8.7685 228.983 9.30072 229.751 10.0243C230.539 10.7534 231.078 11.6187 231.37 12.6201C231.687 13.6079 231.724 14.6603 231.482 15.7772L231.386 16.2177L221.707 13.4011L221.665 13.5451C221.073 15.5807 221.049 17.3443 221.594 18.8359C222.144 20.3084 223.178 21.2654 224.695 21.7069C225.617 21.9751 226.555 22.0086 227.509 21.8072C228.488 21.5922 229.349 21.1761 230.091 20.5589L230.325 20.7207C229.714 21.6051 228.953 22.3211 228.044 22.8689C227.135 23.4166 226.148 23.7648 225.084 23.9135C224.02 24.0621 222.941 23.9771 221.846 23.6586ZM221.862 12.9774L227.709 14.6791C228.151 13.162 228.259 11.8604 228.033 10.7741C227.827 9.69341 227.282 9.02454 226.399 8.76747C225.554 8.52157 224.719 8.77847 223.894 9.53816C223.068 10.2979 222.391 11.4443 221.862 12.9774ZM234.385 28.1155C233.91 27.9045 233.561 27.728 233.34 27.5859C233.118 27.4438 232.91 27.2967 232.715 27.1445C232.539 27.0004 232.285 26.8329 231.954 26.6422C231.622 26.4515 231.1 26.1978 230.388 25.8813L232.018 20.4343L232.374 20.5926C231.904 22.4407 231.876 23.982 232.291 25.2165C232.714 26.4327 233.401 27.2518 234.351 27.6738C235.283 28.0877 236.072 28.2082 236.718 28.0353C237.382 27.8705 237.86 27.4591 238.152 26.8011C238.339 26.3806 238.392 25.9664 238.31 25.5582C238.255 25.1399 238.045 24.6526 237.679 24.0964C237.321 23.5218 236.809 22.8022 236.143 21.9374L235.543 21.1457C234.789 20.1327 234.331 19.1419 234.171 18.1733C234.036 17.1946 234.164 16.2665 234.553 15.3891C235.105 14.146 235.987 13.3669 237.199 13.0516C238.43 12.7445 239.804 12.9277 241.321 13.6013C241.705 13.7717 242.007 13.9279 242.229 14.07C242.45 14.212 242.658 14.3592 242.853 14.5114C243.048 14.6636 243.302 14.831 243.615 15.0137C243.928 15.1963 244.358 15.4094 244.907 15.6528L243.331 20.2378L243.002 20.0917C243.274 19.1838 243.364 18.3157 243.272 17.4872C243.207 16.6486 242.999 15.9328 242.65 15.34C242.308 14.7289 241.872 14.3057 241.342 14.0703C240.648 13.762 240.009 13.6973 239.426 13.8762C238.862 14.0633 238.433 14.4858 238.141 15.1439C237.922 15.6374 237.875 16.1634 237.999 16.7218C238.149 17.27 238.576 17.9846 239.279 18.8657L239.919 19.6421C240.906 20.8683 241.534 21.9676 241.803 22.9402C242.071 23.9128 241.958 24.9566 241.463 26.0717C240.197 28.9233 237.838 29.6046 234.385 28.1155ZM244.964 33.449C244.059 32.9358 243.482 32.2293 243.234 31.3296C242.986 30.4298 243.123 29.519 243.646 28.597L249.346 18.5512L247.128 17.2929L247.32 16.9537C248.57 17.5477 249.857 17.7719 251.181 17.6264C252.523 17.4908 253.824 17.0217 255.084 16.219L255.501 16.4559L253.369 20.2133L256.84 22.1822L256.312 22.5038L253.103 20.6829L247.729 30.1547C246.94 31.5464 247.015 32.5086 247.954 33.0416C248.267 33.2192 248.678 33.3259 249.187 33.3615C249.713 33.407 250.247 33.3768 250.79 33.271L250.642 33.5319C249.654 33.9368 248.645 34.1347 247.615 34.1255C246.595 34.0988 245.712 33.8733 244.964 33.449ZM254.771 39.8725C253.652 39.0653 252.853 38.0701 252.375 36.8868C251.913 35.7152 251.79 34.4673 252.005 33.1431C252.232 31.8026 252.802 30.4997 253.714 29.2344C254.65 27.9367 255.737 26.9942 256.974 26.407C258.211 25.8197 259.485 25.5919 260.796 25.7234C262.134 25.8504 263.396 26.3409 264.58 27.1949C265.57 27.9085 266.305 28.7349 266.787 29.6741C267.285 30.6249 267.503 31.621 267.443 32.6623C267.41 33.6991 267.093 34.7032 266.491 35.6747L266.252 36.0572L258.076 30.161L257.989 30.2827C256.749 32.0022 256.135 33.6559 256.149 35.2439C256.174 36.8157 256.828 38.0637 258.109 38.988C258.888 39.5495 259.761 39.8952 260.727 40.0252C261.722 40.1506 262.672 40.0468 263.578 39.7138L263.744 39.9448C262.872 40.5732 261.916 40.9931 260.875 41.2046C259.835 41.4161 258.789 41.4137 257.737 41.1973C256.684 40.9809 255.696 40.5393 254.771 39.8725ZM258.364 29.8136L263.303 33.3759C264.228 32.0944 264.765 30.9041 264.917 29.8051C265.085 28.7177 264.795 27.905 264.049 27.3669C263.335 26.8521 262.463 26.8144 261.431 27.2538C260.399 27.6932 259.376 28.5464 258.364 29.8136ZM276.23 58.0576L278.918 54.753C277.886 55.2495 276.783 55.4545 275.61 55.3678C274.45 55.2658 273.445 54.8647 272.597 54.1645C271.764 53.477 271.232 52.5973 271.002 51.5255C270.771 50.4536 270.839 49.3035 271.205 48.0751C271.583 46.8314 272.249 45.6311 273.204 44.4742C274.273 43.1785 275.442 42.2498 276.709 41.6882C277.992 41.1392 279.276 40.9667 280.56 41.1706C281.856 41.3591 283.068 41.918 284.194 42.8473C284.826 43.3693 285.26 43.896 285.496 44.4276C285.744 44.9437 285.839 45.5668 285.781 46.2969L289.467 41.8314C289.925 41.2761 290.117 40.6823 290.042 40.0502C289.983 39.4308 289.675 38.8919 289.12 38.4336L289.311 38.2022L291.671 40.15C292.442 40.7866 293.092 41.1932 293.62 41.37C294.149 41.5467 294.612 41.5663 295.011 41.4287L295.243 41.6196L281.913 57.7695C281.455 58.3248 281.256 58.9121 281.315 59.5315C281.374 60.151 281.689 60.6962 282.26 61.1672L282.069 61.3986L279.709 59.4508C279.03 58.8906 278.433 58.5145 277.917 58.3223C277.417 58.1428 276.932 58.1183 276.461 58.2485L276.23 58.0576ZM274.633 54.2893C274.988 54.5821 275.432 54.7669 275.965 54.8438C276.526 54.9179 277.106 54.8909 277.705 54.7626C278.303 54.6342 278.844 54.4191 279.326 54.1173L283.986 48.4718C284.673 47.4826 285.052 46.5513 285.125 45.6777C285.213 44.8169 284.956 44.1382 284.355 43.6417C283.553 42.9797 282.508 42.9731 281.22 43.6219C279.948 44.2835 278.491 45.6092 276.849 47.599C274.061 50.9771 273.322 53.2071 274.633 54.2893ZM288.127 65.5822C287.065 64.9819 286.374 64.2125 286.054 63.2738C285.735 62.3352 285.841 61.3957 286.372 60.4555C286.598 60.055 286.88 59.72 287.216 59.4505C287.562 59.1635 288.025 58.9542 288.604 58.8224C289.202 58.7005 289.952 58.6535 290.855 58.6814C291.768 58.692 292.917 58.813 294.303 59.0445L297.233 59.5292L298.34 57.5703C298.901 56.5778 299.187 55.7057 299.199 54.954C299.22 54.1849 298.952 53.6429 298.394 53.328C297.723 52.9715 296.911 53.087 295.959 53.6746C295.024 54.2719 294.05 55.2837 293.037 56.71L291.132 53.4966C291.831 52.95 292.638 52.579 293.553 52.3837C294.467 52.1883 295.4 52.164 296.35 52.3108C297.319 52.4674 298.238 52.7917 299.109 53.2837C300.589 54.1201 301.554 55.2169 302.005 56.5742C302.482 57.9239 302.318 59.3127 301.511 60.7404L297.954 67.0349C297.383 68.0448 297.437 68.7416 298.116 69.1254C298.517 69.3517 299.032 69.3554 299.661 69.1366L299.766 69.4375C298.969 69.7911 298.14 69.9774 297.28 69.9964C296.419 70.0154 295.684 69.8527 295.074 69.5083C294.413 69.1344 293.966 68.5833 293.734 67.8551C293.52 67.1367 293.563 66.3687 293.865 65.5511C292.52 65.9395 291.412 66.152 290.541 66.1884C289.698 66.2172 288.893 66.0151 288.127 65.5822ZM291.001 65.0698C291.384 65.2863 291.804 65.3972 292.26 65.4025C292.734 65.4176 293.32 65.3354 294.019 65.1559L297.041 59.8687L295.775 59.6701C294.7 59.4991 293.829 59.4549 293.162 59.5374C292.505 59.6026 291.963 59.79 291.535 60.0996C291.125 60.4191 290.767 60.8488 290.462 61.3885C290.039 62.1373 289.873 62.8587 289.963 63.5529C290.08 64.2395 290.426 64.7451 291.001 65.0698ZM306.281 81.1762C304.279 80.4787 302.751 79.6389 301.695 78.6569C300.652 77.7003 300.281 76.7877 300.584 75.9189C300.814 75.2579 301.333 74.7715 302.141 74.4599C302.961 74.1737 303.967 74.0797 305.162 74.1781C303.544 73.1063 302.936 71.9943 303.338 70.8422C303.555 70.219 304.001 69.7285 304.676 69.3708C305.358 68.9942 306.199 68.7999 307.198 68.7882C306.399 68.0436 305.873 67.1826 305.62 66.2052C305.387 65.2342 305.458 64.2105 305.833 63.134C306.379 61.5664 307.355 60.498 308.76 59.9288C310.185 59.3661 311.813 59.4039 313.645 60.0422C314.514 60.3449 315.318 60.7733 316.056 61.3272L321.269 63.1434L320.808 63.5546L316.955 62.2122C317.559 62.9098 317.931 63.696 318.071 64.5708C318.237 65.4332 318.152 66.346 317.816 67.3093C317.27 68.8768 316.291 69.9547 314.879 70.5428C313.492 71.1186 311.873 71.0841 310.022 70.4392C309.003 70.0839 308.158 69.6202 307.489 69.0483C306.773 69.1587 306.339 69.4312 306.188 69.8656C306.056 70.2433 306.232 70.5904 306.714 70.9069C306.952 71.0745 307.307 71.2722 307.778 71.5C308.25 71.7277 308.832 71.9728 309.524 72.2352L310.496 72.6373C312.641 73.4696 314.168 74.4674 315.076 75.6309C316.002 76.8009 316.239 78.0375 315.784 79.3407C315.278 80.7949 314.187 81.6752 312.513 81.9815C310.833 82.3066 308.756 82.0382 306.281 81.1762ZM310.113 70.0894C310.698 70.2934 311.334 70.0174 312.021 69.2613C312.67 68.4921 313.252 67.3709 313.765 65.8978C314.285 64.4057 314.526 63.1661 314.489 62.1789C314.426 61.204 314.102 60.6145 313.517 60.4105C312.912 60.1999 312.292 60.4604 311.656 61.1918C311.013 61.9422 310.432 63.0633 309.912 64.5554C309.392 66.0474 309.148 67.2965 309.178 68.3026C309.216 69.2898 309.527 69.8854 310.113 70.0894ZM306.721 80.9165C307.59 81.2192 308.439 81.3666 309.268 81.3589C310.09 81.37 310.797 81.2246 311.389 80.9226C312 80.6273 312.408 80.1869 312.612 79.6014C312.836 78.9593 312.683 78.3342 312.154 77.7261C311.58 77.1238 310.578 76.5632 309.15 76.0442L308.178 75.642C307.637 75.4323 307.14 75.2169 306.688 74.9957C306.247 74.8 305.861 74.6019 305.529 74.4013C305.086 74.3953 304.701 74.5577 304.374 74.8885C304.047 75.2193 303.788 75.6586 303.597 76.2063C303.255 77.1884 303.35 78.1005 303.883 78.9426C304.415 79.7847 305.362 80.4427 306.721 80.9165Z" fill="#272727"/>
</g>
<defs>
<clipPath id="clip0_2133_2052">
<rect width="430" height="148" fill="white"/>
</clipPath>
</defs>
</svg>
