<svg width="429" height="141" viewBox="0 0 429 141" fill="none" xmlns="http://www.w3.org/2000/svg">
<path d="M158.627 57.7929C82.5504 126.527 33.1771 86.4323 18 57.7929V140.493H411V80.9375C385.676 101.418 323.086 130.091 275.317 80.9375C227.548 31.7843 177.62 45.0273 158.627 57.7929Z" fill="#F8AD83"/>
<path d="M28.0712 59.454L34.6413 39.6232C35.3936 37.4038 35.3577 35.9451 34.5334 35.2472L34.4648 35.1891L34.6586 34.9601L41.9852 41.1634L41.7913 41.3924L41.6998 41.3149C40.9976 40.7204 40.3512 40.5399 39.7603 40.7734C39.1824 40.9917 38.7295 41.604 38.4015 42.6104L33.7535 56.364L46.6668 49.6085C47.5231 49.1543 47.9567 48.5648 47.9675 47.8402C48.0065 47.1133 47.6268 46.3856 46.8284 45.6572L47.0222 45.4282L51.4869 49.2084L51.293 49.4373C50.9901 49.207 50.5761 49.0924 50.0511 49.0934C49.5414 49.1073 48.9953 49.1953 48.4127 49.3571C47.8583 49.5167 47.3433 49.7227 46.8676 49.975L28.3002 59.6478L28.0712 59.454ZM38.8251 67.5661L38.9653 67.3009L38.9918 67.3149C39.6284 67.6512 40.244 67.7276 40.8386 67.5441C41.4332 67.3606 41.8986 66.9505 42.2349 66.3139L46.8313 57.6133C47.1863 56.9414 47.3204 56.3449 47.2337 55.8241C47.1646 55.3126 46.688 54.8233 45.8038 54.3562L45.9439 54.0909L48.6495 55.5203C49.5514 55.9967 50.2925 56.2638 50.8727 56.3215C51.4176 56.3606 51.8532 56.2853 52.1795 56.0958L52.4447 56.2359L46.0547 68.3318C45.7184 68.9684 45.642 69.584 45.8255 70.1786C46.009 70.7732 46.4191 71.2386 47.0557 71.5749L47.0822 71.5889L46.9421 71.8542L38.8251 67.5661ZM51.3912 53.5418C50.7546 53.2055 50.3315 52.7219 50.1219 52.0909C49.9394 51.4516 50.0163 50.8137 50.3526 50.1771C50.6889 49.5404 51.1679 49.1262 51.7895 48.9343C52.4381 48.7341 53.0808 48.8022 53.7174 49.1385C54.3363 49.4655 54.7371 49.9486 54.9196 50.5879C55.1198 51.2365 55.0564 51.8703 54.7294 52.4893C54.4024 53.1082 53.9146 53.5178 53.266 53.718C52.6351 53.9275 52.0101 53.8688 51.3912 53.5418ZM57.4893 75.8418L57.556 75.5493C58.258 75.7093 58.8702 75.6335 59.3925 75.3218C59.9388 74.9951 60.2942 74.471 60.4587 73.7495L64.26 57.0774C64.42 56.3754 64.3247 55.7588 63.974 55.2275C63.6429 54.7007 63.1263 54.3573 62.4243 54.1972L62.491 53.9047L65.4744 54.585C66.4689 54.8117 67.2538 54.8778 67.8292 54.7834C68.3656 54.68 68.7669 54.4946 69.033 54.2271L69.3255 54.2938L64.6707 74.7098C64.5062 75.4313 64.5895 76.0555 64.9207 76.5823C65.2758 77.094 65.8044 77.4299 66.5064 77.59L66.4397 77.8825L57.4893 75.8418ZM76.9086 78.8065C75.5292 78.7666 74.3095 78.3911 73.2497 77.6802C72.2098 76.9698 71.4073 76.0062 70.8422 74.7894C70.2777 73.5526 70.0181 72.1545 70.0632 70.5951C70.1094 68.9958 70.4797 67.6059 71.1742 66.4255C71.8686 65.2451 72.7951 64.3415 73.9537 63.7147C75.1329 63.0685 76.4522 62.7666 77.9115 62.8088C79.131 62.844 80.2036 63.1152 81.1294 63.6221C82.0751 64.1297 82.8151 64.8314 83.3494 65.7272C83.9043 66.6036 84.2053 67.6127 84.2523 68.7546L84.2693 69.2052L74.1935 68.9138L74.1891 69.0638C74.1279 71.1829 74.5485 72.8958 75.4511 74.2024C76.3543 75.489 77.5956 76.1552 79.1749 76.2009C80.1345 76.2286 81.0508 76.025 81.9237 75.5901C82.8172 75.1357 83.5454 74.5165 84.1083 73.7325L84.3756 73.8302C84.0063 74.84 83.4505 75.7243 82.7082 76.4832C81.966 77.242 81.0987 77.8272 80.1064 78.2387C79.1141 78.6502 78.0481 78.8394 76.9086 78.8065ZM74.2365 68.4649L80.3239 68.6409C80.3696 67.0616 80.1467 65.7746 79.6553 64.78C79.1838 63.786 78.4883 63.2756 77.5687 63.249C76.689 63.2236 75.9455 63.6823 75.338 64.6251C74.7304 65.5679 74.3633 66.8479 74.2365 68.4649ZM96.7856 83.6522C94.7036 84.0515 92.9597 84.0907 91.5541 83.7697C90.1719 83.4646 89.3942 82.8603 89.2209 81.9567C89.089 81.2693 89.2944 80.5884 89.8371 79.9141C90.4033 79.2557 91.2277 78.6699 92.3104 78.1568C90.3736 78.0395 89.2904 77.3817 89.0606 76.1836C88.9362 75.5354 89.0767 74.8873 89.4819 74.2394C89.8833 73.5719 90.5136 72.9826 91.3728 72.4716C90.3078 72.2278 89.4212 71.7462 88.713 71.0267C88.0244 70.3035 87.5728 69.3821 87.3581 68.2625C87.0454 66.6322 87.3547 65.2186 88.2859 64.0218C89.2368 62.8212 90.6648 62.0382 92.5701 61.6728C93.4736 61.4995 94.3839 61.4674 95.3009 61.5767L100.722 60.5369L100.529 61.1238L96.5222 61.8923C97.3945 62.1934 98.1104 62.6874 98.6698 63.3743C99.2451 64.0378 99.6288 64.8704 99.8209 65.8722C100.134 67.5025 99.8262 68.9258 98.8987 70.1423C97.9871 71.3354 96.5689 72.1165 94.644 72.4857C93.5833 72.6891 92.6202 72.7109 91.7546 72.5511C91.1901 73.0056 90.9511 73.4587 91.0378 73.9105C91.1131 74.3033 91.439 74.5157 92.0153 74.5477C92.3054 74.5736 92.7114 74.567 93.2334 74.5279C93.7554 74.4889 94.3816 74.4095 95.1122 74.2898L96.1547 74.1509C98.4286 73.7963 100.25 73.895 101.618 74.4471C103.006 74.9955 103.83 75.9473 104.09 77.3026C104.38 78.815 103.878 80.1231 102.583 81.2268C101.291 82.3502 99.3587 83.1587 96.7856 83.6522ZM94.5467 72.1378C95.1556 72.021 95.5679 71.4633 95.7837 70.4648C95.9602 69.4738 95.9015 68.2123 95.6077 66.6802C95.3101 65.1285 94.8979 63.9348 94.371 63.0991C93.8283 62.2868 93.2525 61.939 92.6436 62.0558C92.015 62.1763 91.6087 62.7125 91.4247 63.6642C91.2444 64.6355 91.3031 65.897 91.6007 67.4488C91.8983 69.0005 92.3125 70.204 92.8431 71.0594C93.3699 71.8951 93.9378 72.2546 94.5467 72.1378ZM97.0363 83.207C97.9398 83.0337 98.7482 82.7361 99.4615 82.3142C100.179 81.9119 100.718 81.4318 101.079 80.8737C101.46 80.3119 101.592 79.7265 101.475 79.1176C101.347 78.4498 100.902 77.9854 100.139 77.7244C99.3408 77.4906 98.1933 77.507 96.6968 77.7737L95.6543 77.9125C95.0809 78.0021 94.543 78.0646 94.0407 78.0998C93.5617 78.151 93.1281 78.173 92.7398 78.166C92.3537 78.3826 92.102 78.716 91.9847 79.1662C91.8674 79.6163 91.8634 80.1262 91.9726 80.6958C92.1685 81.7172 92.7079 82.4589 93.5907 82.9209C94.4735 83.3829 95.622 83.4782 97.0363 83.207ZM113.121 72.448C111.831 72.9379 110.56 73.0567 109.309 72.8044C108.077 72.545 106.967 71.9609 105.98 71.052C104.986 70.1245 104.212 68.9315 103.659 67.4731C103.091 65.9773 102.902 64.5514 103.093 63.1952C103.284 61.8391 103.795 60.6502 104.627 59.6285C105.47 58.581 106.574 57.798 107.939 57.2797C109.079 56.8466 110.174 56.6876 111.223 56.8026C112.291 56.9106 113.243 57.2765 114.079 57.9004C114.927 58.4985 115.59 59.3162 116.069 60.3535L116.257 60.7636L106.834 64.342L106.887 64.4822C107.64 66.4641 108.683 67.8865 110.016 68.7495C111.342 69.5937 112.743 69.7354 114.221 69.1745C115.118 68.8337 115.887 68.2956 116.528 67.5603C117.18 66.7991 117.617 65.9487 117.837 65.0092L118.122 64.9974C118.166 66.0717 117.99 67.1012 117.594 68.086C117.198 69.0708 116.62 69.9428 115.86 70.7021C115.1 71.4613 114.187 72.0433 113.121 72.448ZM106.702 63.9106L112.395 61.7487C111.835 60.2716 111.137 59.1673 110.303 58.4357C109.488 57.697 108.65 57.491 107.79 57.8176C106.967 58.13 106.455 58.8379 106.254 59.9412C106.052 61.0446 106.202 62.3677 106.702 63.9106ZM122.399 68.412L122.257 68.1478L122.283 68.1336C122.917 67.7924 123.324 67.3239 123.503 66.7279C123.682 66.132 123.6 65.517 123.259 64.8829L118.597 56.2177C118.237 55.5485 117.816 55.1047 117.335 54.8865C116.872 54.6588 116.2 54.7819 115.32 55.2557L115.177 54.9915L117.793 53.5842C118.726 53.0819 119.383 52.6148 119.764 52.1828C120.135 51.7332 120.337 51.3066 120.37 50.9029L120.502 50.8318L122.86 55.1502C122.804 54.4986 122.797 53.7875 122.836 53.0168C122.893 52.2365 123.09 51.5058 123.428 50.8246C123.774 50.1162 124.334 49.5535 125.109 49.1366C125.373 48.9944 125.669 48.8692 125.997 48.7609C126.325 48.6527 126.694 48.5789 127.104 48.5398L127.737 52.1851C126.914 52.174 126.226 52.226 125.675 52.341C125.141 52.4465 124.698 52.594 124.346 52.7835C123.747 53.1057 123.397 53.5323 123.297 54.0633C123.214 54.5848 123.205 55.1578 123.268 55.7822L127.064 62.8359C127.405 63.4699 127.873 63.8764 128.469 64.0554C129.065 64.2344 129.68 64.1533 130.314 63.8121L130.341 63.7979L130.483 64.0621L122.399 68.412ZM143.157 56.3852L142.975 56.1464C143.532 55.7227 143.861 55.2965 143.963 54.8678C144.068 54.4111 144.021 53.9694 143.822 53.5427C143.639 53.1039 143.384 52.6696 143.057 52.2398L133.106 39.1539C132.67 38.5808 132.136 38.2583 131.503 38.1865C130.886 38.1026 130.292 38.2786 129.719 38.7145L129.537 38.4757L131.973 36.6234C132.785 36.0059 133.339 35.4462 133.635 34.9442C133.9 34.4665 134.015 34.0397 133.981 33.6639L134.22 33.4823L141.12 42.5565C140.909 41.3859 141.035 40.247 141.5 39.1399C141.952 38.0168 142.648 37.0981 143.587 36.3839C144.336 35.8149 145.105 35.5057 145.897 35.4564C146.677 35.3912 147.42 35.5423 148.126 35.9096C148.849 36.2648 149.482 36.8005 150.027 37.5169L154.966 44.0121C155.414 44.6011 155.947 44.9376 156.563 45.0215C157.184 45.0773 157.78 44.8874 158.353 44.4515L158.535 44.6903L151.252 50.229L151.07 49.9902C151.643 49.5544 151.978 49.0362 152.074 48.4355C152.174 47.8068 152 47.198 151.552 46.609L146.431 39.875C146.164 39.5247 145.832 39.187 145.434 38.8616C145.024 38.5203 144.582 38.3033 144.109 38.2104C143.641 38.0895 143.183 38.1986 142.738 38.5376C142.324 38.8524 142.023 39.2824 141.834 39.8276C141.65 40.3449 141.545 40.9016 141.521 41.4978C141.497 42.0939 141.521 42.6538 141.593 43.1773L146.496 49.6248C146.823 50.0546 147.165 50.4223 147.523 50.7279C147.897 51.0214 148.31 51.1847 148.762 51.2177C149.218 51.2226 149.725 51.0132 150.282 50.5895L150.464 50.8283L143.157 56.3852ZM164.868 40.5752L151.848 33.0546C151.413 32.8045 150.97 32.6603 150.518 32.6222C150.082 32.5721 149.626 32.7119 149.148 33.0416L148.969 32.8007L155.714 27.7931L155.892 28.0339C155.378 28.5155 155.194 29.0386 155.339 29.6033C155.5 30.1561 155.962 30.6603 156.724 31.116L163.515 35.0787L161.769 27.5942C161.655 27.1056 161.467 26.6847 161.205 26.3315C160.907 25.93 160.542 25.6903 160.11 25.6122C159.678 25.5341 159.228 25.632 158.759 25.9057L158.58 25.6648L162.385 22.8391L162.564 23.08C162.218 23.4863 161.996 24.0252 161.896 24.6968C161.797 25.3683 161.845 26.1545 162.041 27.0555L165.085 40.4143L164.868 40.5752ZM175.541 34.6792C174.252 35.172 172.981 35.2936 171.73 35.044C170.497 34.7873 169.386 34.2057 168.397 33.299C167.401 32.3737 166.624 31.1824 166.067 29.7253C165.496 28.2307 165.304 26.8052 165.492 25.4486C165.68 24.0921 166.189 22.902 167.018 21.8785C167.859 20.8291 168.961 20.0438 170.325 19.5224C171.464 19.0868 172.559 18.9254 173.608 19.0381C174.676 19.1437 175.629 19.5075 176.466 20.1295C177.315 20.7257 177.981 21.5419 178.462 22.5782L178.651 22.9879L169.236 26.5871L169.289 26.7272C170.046 28.7075 171.092 30.1276 172.427 30.9875C173.755 31.8288 175.157 31.9674 176.633 31.4032C177.53 31.0605 178.297 30.5207 178.936 29.7839C179.587 29.0214 180.022 28.17 180.241 27.2299L180.525 27.2176C180.571 28.2918 180.398 29.3217 180.004 30.3074C179.61 31.293 179.034 32.1663 178.275 32.9272C177.517 33.6882 176.605 34.2721 175.541 34.6792ZM169.103 26.156L174.791 23.9815C174.227 22.5057 173.527 21.4029 172.692 20.6732C171.875 19.9363 171.037 19.7321 170.177 20.0606C169.355 20.3748 168.845 21.0839 168.646 22.1877C168.447 23.2915 168.599 24.6143 169.103 26.156ZM181.372 31.8747L181.322 31.5791L181.351 31.574C182.061 31.4517 182.595 31.1364 182.954 30.628C183.313 30.1197 183.431 29.5107 183.309 28.8012L181.637 19.1042C181.508 18.3552 181.25 17.801 180.864 17.4414C180.497 17.0785 179.82 16.9819 178.835 17.1518L178.784 16.8561L181.711 16.3517C182.755 16.1716 183.527 15.9372 184.025 15.6484C184.52 15.3399 184.847 14.9994 185.006 14.627L185.154 14.6015L186.019 19.4449C186.173 18.8095 186.391 18.1326 186.673 17.4142C186.975 16.6925 187.394 16.0622 187.931 15.5233C188.483 14.9612 189.193 14.6055 190.06 14.456C190.356 14.4051 190.676 14.3803 191.022 14.3817C191.367 14.3831 191.74 14.4303 192.142 14.5234L191.585 18.1812C190.808 17.9093 190.139 17.7403 189.58 17.6744C189.04 17.605 188.573 17.6043 188.179 17.6723C187.509 17.7878 187.042 18.0813 186.778 18.553C186.534 19.0212 186.343 19.5615 186.205 20.1738L187.566 28.0675C187.688 28.777 188.003 29.3112 188.512 29.6701C189.02 30.029 189.629 30.1473 190.339 30.025L190.368 30.0199L190.419 30.3155L181.372 31.8747ZM208.354 30.3637C206.981 30.2264 205.791 29.7656 204.784 28.9816C203.797 28.1995 203.064 27.1815 202.587 25.9278C202.111 24.6541 201.951 23.2412 202.106 21.6889C202.265 20.0969 202.733 18.7367 203.509 17.6083C204.285 16.4799 205.273 15.6441 206.473 15.1008C207.695 14.5396 209.032 14.3316 210.485 14.4769C211.699 14.5983 212.75 14.9446 213.638 15.5157C214.545 16.0889 215.234 16.8411 215.703 17.7725C216.195 18.6859 216.424 19.7138 216.39 20.8561L216.375 21.3069L206.345 20.3038L206.33 20.4531C206.119 22.5626 206.418 24.3009 207.225 25.6681C208.035 27.0154 209.227 27.7676 210.799 27.9248C211.754 28.0204 212.682 27.8821 213.584 27.5099C214.507 27.1199 215.277 26.5537 215.894 25.8114L216.154 25.9278C215.714 26.9089 215.097 27.7517 214.303 28.4562C213.509 29.1607 212.603 29.6831 211.584 30.0234C210.565 30.3637 209.488 30.4771 208.354 30.3637ZM206.42 19.8591L212.479 20.465C212.637 18.8929 212.505 17.5934 212.085 16.5665C211.685 15.5416 211.028 14.9834 210.112 14.8918C209.236 14.8043 208.462 15.2093 207.79 16.1068C207.117 17.0043 206.66 18.2551 206.42 19.8591ZM214.754 30.4487L214.844 30.1622L214.872 30.1711C215.56 30.3849 216.179 30.3471 216.73 30.0576C217.281 29.7681 217.663 29.2796 217.877 28.5921L220.799 19.196C221.025 18.4703 221.047 17.8594 220.866 17.3633C220.704 16.8732 220.146 16.4796 219.191 16.1827L219.28 15.8962L222.116 16.7782C223.09 17.0811 223.868 17.2077 224.449 17.158C224.992 17.0964 225.406 16.9425 225.692 16.6963L225.978 16.7854L224.76 20.8049C225.565 19.9662 226.569 19.3987 227.771 19.1024C228.973 18.806 230.138 18.8331 231.265 19.1835C232.544 19.5814 233.435 20.3193 233.938 21.3972C234.46 22.481 234.507 23.7104 234.079 25.0855L231.656 32.8774C231.442 33.5649 231.48 34.184 231.769 34.7349C232.059 35.2857 232.547 35.668 233.235 35.8818L233.263 35.8907L233.174 36.1772L224.437 33.4599L224.526 33.1735L224.555 33.1824C225.242 33.3962 225.861 33.3584 226.412 33.0689C226.963 32.7794 227.345 32.2909 227.559 31.6034L230.072 23.525C230.369 22.5701 230.415 21.7468 230.211 21.0551C230.027 20.3693 229.629 19.9314 229.018 19.7413C228.426 19.5572 227.725 19.622 226.915 19.9357C226.13 20.2363 225.366 20.742 224.621 21.4529L222.002 29.875C221.788 30.5625 221.826 31.1817 222.115 31.7325C222.405 32.2833 222.893 32.6657 223.581 32.8795L223.609 32.8884L223.52 33.1748L214.754 30.4487ZM238.229 39.471C237.008 38.8262 236.08 37.9509 235.443 36.8451C234.823 35.7486 234.529 34.5297 234.559 33.1884C234.598 31.8294 234.983 30.4603 235.711 29.0811C236.459 27.6665 237.405 26.5828 238.549 25.8303C239.693 25.0777 240.924 24.6759 242.24 24.625C243.583 24.5658 244.9 24.8773 246.191 25.5594C247.27 26.1294 248.112 26.8462 248.719 27.7098C249.344 28.5827 249.698 29.539 249.782 30.5787C249.893 31.6101 249.717 32.6484 249.256 33.6937L249.072 34.1056L240.16 29.3959L240.09 29.5285C239.099 31.4029 238.72 33.1255 238.953 34.6964C239.196 36.2496 240.015 37.3953 241.412 38.1336C242.261 38.5821 243.173 38.8039 244.148 38.799C245.151 38.7858 246.078 38.5517 246.929 38.0967L247.125 38.3024C246.348 39.0454 245.459 39.5935 244.458 39.9467C243.457 40.2999 242.421 40.4421 241.349 40.3732C240.276 40.3044 239.237 40.0036 238.229 39.471ZM240.396 29.0121L245.781 31.8575C246.519 30.4606 246.887 29.2074 246.885 28.098C246.901 26.9979 246.502 26.2329 245.689 25.8031C244.911 25.3919 244.041 25.4752 243.08 26.053C242.119 26.6308 241.224 27.6171 240.396 29.0121ZM249.668 46.3706C249.244 46.07 248.937 45.8283 248.748 45.6454C248.559 45.4624 248.384 45.2771 248.222 45.0895C248.078 44.9133 247.862 44.6991 247.575 44.4469C247.288 44.1946 246.826 43.843 246.19 43.3922L248.862 38.3736L249.18 38.599C248.355 40.3181 248.023 41.8237 248.187 43.1157C248.362 44.3914 248.873 45.3298 249.722 45.931C250.554 46.5205 251.304 46.7942 251.971 46.752C252.655 46.7214 253.204 46.4123 253.62 45.8248C253.886 45.4494 254.02 45.0536 254.02 44.6375C254.049 44.2165 253.939 43.6973 253.69 43.0799C253.452 42.4461 253.092 41.6396 252.61 40.6604L252.177 39.7658C251.638 38.6241 251.385 37.5626 251.418 36.5813C251.479 35.5953 251.787 34.7106 252.342 33.9272C253.128 32.8174 254.147 32.2274 255.397 32.1573C256.664 32.0988 257.975 32.5493 259.329 33.5088C259.672 33.7516 259.938 33.9644 260.127 34.1473C260.316 34.3302 260.491 34.5155 260.652 34.7032C260.813 34.8909 261.029 35.1051 261.3 35.3458C261.571 35.5866 261.951 35.8803 262.44 36.2271L259.991 40.4113L259.698 40.2033C260.143 39.3668 260.403 38.5334 260.476 37.7031C260.577 36.8681 260.515 36.1255 260.289 35.4754C260.075 34.809 259.731 34.3082 259.258 33.9729C258.638 33.5336 258.024 33.3443 257.418 33.4048C256.828 33.4769 256.324 33.8067 255.908 34.3943C255.596 34.8349 255.446 35.3412 255.457 35.9131C255.497 36.4802 255.774 37.265 256.29 38.2673L256.764 39.1547C257.49 40.5515 257.889 41.7531 257.961 42.7595C258.032 43.7659 257.715 44.7669 257.01 45.7625C255.207 48.3085 252.759 48.5112 249.668 46.3706ZM259.005 53.6888C258.218 53.0084 257.791 52.2027 257.724 51.2717C257.657 50.3408 257.97 49.4745 258.663 48.6729L266.22 39.9381L264.292 38.2697L264.547 37.9748C265.656 38.8021 266.874 39.2741 268.201 39.3908C269.543 39.5207 270.911 39.3155 272.304 38.7752L272.667 39.0893L269.84 42.3563L272.858 44.9668L272.278 45.1789L269.487 42.7646L262.362 51.0002C261.315 52.2102 261.2 53.1685 262.017 53.8752C262.289 54.1107 262.671 54.2958 263.163 54.4304C263.67 54.578 264.2 54.6532 264.753 54.6557L264.557 54.8826C263.508 55.086 262.48 55.0824 261.472 54.8716C260.477 54.6458 259.655 54.2515 259.005 53.6888ZM268.236 62.0722C267.235 61.1221 266.577 60.0287 266.262 58.792C265.961 57.569 266.007 56.3158 266.398 55.0324C266.802 53.7345 267.542 52.5199 268.616 51.3885C269.717 50.2281 270.921 49.44 272.226 49.0241C273.53 48.6082 274.823 48.5533 276.105 48.8595C277.414 49.165 278.598 49.8203 279.657 50.8255C280.542 51.6655 281.16 52.5831 281.511 53.5784C281.877 54.5874 281.96 55.6039 281.76 56.6276C281.589 57.6507 281.14 58.6031 280.413 59.485L280.125 59.832L272.814 52.8921L272.711 53.0009C271.251 54.5384 270.422 56.0949 270.222 57.6704C270.036 59.2314 270.517 60.5558 271.662 61.6436C272.359 62.3045 273.177 62.7643 274.117 63.0227C275.086 63.2805 276.042 63.3052 276.984 63.0967L277.118 63.3479C276.169 63.8536 275.165 64.1414 274.106 64.2114C273.047 64.2814 272.01 64.1386 270.997 63.783C269.983 63.4274 269.063 62.8571 268.236 62.0722ZM273.146 52.5864L277.563 56.7792C278.65 55.6333 279.343 54.526 279.641 53.4573C279.953 52.4023 279.775 51.5581 279.108 50.9247C278.47 50.3188 277.61 50.1643 276.528 50.4612C275.447 50.7582 274.319 51.4665 273.146 52.5864ZM293.508 81.3518L295.543 77.6089C294.62 78.2869 293.573 78.6913 292.404 78.822C291.245 78.9352 290.184 78.7258 289.221 78.1937C288.276 77.6712 287.591 76.9044 287.167 75.8932C286.744 74.8821 286.598 73.7392 286.732 72.4646C286.875 71.1724 287.309 69.87 288.035 68.5572C288.847 67.0868 289.825 65.959 290.967 65.1736C292.127 64.398 293.357 63.9923 294.657 63.9564C295.966 63.9031 297.259 64.2296 298.537 64.9358C299.255 65.3325 299.778 65.7704 300.107 66.2495C300.446 66.7111 300.655 67.3061 300.732 68.0344L303.533 62.9669C303.881 62.3368 303.961 61.7179 303.771 61.1103C303.599 60.5123 303.197 60.0392 302.567 59.6909L302.712 59.4283L305.39 60.9086C306.266 61.3924 306.979 61.6725 307.531 61.749C308.083 61.8255 308.542 61.7595 308.909 61.5508L309.171 61.6959L299.042 80.0227C298.693 80.6529 298.605 81.2669 298.778 81.8649C298.95 82.4628 299.36 82.9408 300.007 83.2987L299.862 83.5613L297.184 82.081C296.414 81.6553 295.758 81.3955 295.216 81.3014C294.691 81.2171 294.209 81.2823 293.771 81.4969L293.508 81.3518ZM291.245 77.9416C291.648 78.1641 292.118 78.2641 292.656 78.2416C293.222 78.2112 293.787 78.0779 294.351 77.8416C294.916 77.6054 295.408 77.2945 295.827 76.9089L299.368 70.5024C299.861 69.4038 300.063 68.4185 299.973 67.5465C299.902 66.6841 299.524 66.0643 298.842 65.687C297.931 65.1838 296.903 65.3696 295.757 66.2443C294.628 67.1287 293.44 68.6999 292.192 70.9579C290.073 74.7913 289.758 77.1192 291.245 77.9416ZM307.18 86.4877C306.007 86.1495 305.157 85.5609 304.629 84.7216C304.101 83.8824 303.987 82.9439 304.286 81.9062C304.413 81.4643 304.609 81.0733 304.874 80.7333C305.144 80.3741 305.546 80.0633 306.08 79.8009C306.633 79.544 307.352 79.3247 308.237 79.1429C309.127 78.9418 310.273 78.7936 311.674 78.6983L314.638 78.4915L315.261 76.3296C315.577 75.2342 315.654 74.3196 315.491 73.5857C315.333 72.8326 314.947 72.3673 314.332 72.1899C313.597 71.9985 312.833 72.2988 312.043 73.0907C311.272 73.8882 310.559 75.098 309.903 76.7199L307.306 74.0348C307.86 73.3412 308.559 72.7935 309.403 72.3918C310.248 71.9901 311.149 71.7506 312.108 71.6733C313.087 71.6016 314.056 71.7044 315.017 71.9815C316.65 72.4526 317.843 73.2963 318.596 74.5125C319.373 75.715 319.534 77.1041 319.08 78.6799L317.076 85.6266C316.754 86.7412 316.968 87.4066 317.718 87.6227C318.16 87.7502 318.661 87.6347 319.223 87.2763L319.395 87.5446C318.702 88.073 317.938 88.4461 317.105 88.6638C316.272 88.8814 315.52 88.8933 314.847 88.6993C314.117 88.4886 313.555 88.0559 313.161 87.4011C312.786 86.7518 312.651 85.9946 312.754 85.1295C311.536 85.8187 310.507 86.2818 309.669 86.5187C308.855 86.7419 308.025 86.7315 307.18 86.4877ZM309.857 85.3241C310.28 85.446 310.714 85.4567 311.159 85.3562C311.624 85.2612 312.175 85.0456 312.813 84.7093L314.53 78.8662L313.252 78.966C312.167 79.0484 311.309 79.207 310.679 79.4416C310.055 79.6571 309.571 79.9649 309.227 80.3651C308.901 80.7709 308.653 81.2717 308.481 81.8674C308.243 82.6937 308.248 83.4341 308.496 84.0885C308.769 84.7293 309.223 85.1412 309.857 85.3241ZM328.895 97.3059C326.782 97.1424 325.089 96.7205 323.818 96.0404C322.565 95.3818 321.974 94.5938 322.045 93.6766C322.099 92.9787 322.477 92.376 323.178 91.8686C323.897 91.3827 324.847 91.0349 326.027 90.8253C324.189 90.2017 323.318 89.2817 323.412 88.0653C323.463 87.4073 323.769 86.8192 324.331 86.301C324.894 85.7628 325.657 85.3605 326.621 85.094C325.658 84.5782 324.929 83.8799 324.436 82.9992C323.962 82.1201 323.77 81.1122 323.857 79.9756C323.986 78.3205 324.656 77.0385 325.87 76.1294C327.104 75.2219 328.688 74.843 330.622 74.9927C331.539 75.0636 332.426 75.2727 333.282 75.6197L338.785 76.0456L338.444 76.5609L334.377 76.2461C335.139 76.7664 335.699 77.4317 336.058 78.2417C336.438 79.0334 336.588 79.9377 336.51 80.9547C336.382 82.6098 335.71 83.9018 334.495 84.8308C333.301 85.7414 331.727 86.1211 329.773 85.9698C328.696 85.8865 327.761 85.6537 326.968 85.2714C326.304 85.561 325.954 85.9351 325.918 86.3937C325.888 86.7925 326.146 87.0833 326.693 87.2661C326.966 87.3675 327.36 87.4681 327.874 87.5681C328.387 87.668 329.012 87.7565 329.749 87.8336L330.791 87.9744C333.078 88.2316 334.809 88.8069 335.983 89.7002C337.178 90.595 337.722 91.7304 337.615 93.1062C337.497 94.6417 336.667 95.771 335.127 96.4943C333.585 97.2376 331.508 97.5081 328.895 97.3059ZM329.77 85.6086C330.389 85.6564 330.933 85.2272 331.405 84.3209C331.836 83.4114 332.112 82.179 332.232 80.6237C332.354 79.0484 332.271 77.7882 331.983 76.8432C331.674 75.9166 331.21 75.4293 330.592 75.3815C329.954 75.3321 329.421 75.7422 328.992 76.6117C328.562 77.5012 328.286 78.7336 328.165 80.3089C328.043 81.8842 328.125 83.1543 328.411 84.1193C328.699 85.0643 329.152 85.5608 329.77 85.6086ZM329.254 96.9426C330.172 97.0136 331.03 96.9396 331.829 96.7206C332.627 96.5215 333.274 96.2005 333.769 95.7574C334.285 95.3159 334.567 94.786 334.614 94.1679C334.667 93.4899 334.36 92.9245 333.693 92.4717C332.984 92.0357 331.873 91.7491 330.359 91.6119L329.317 91.4711C328.74 91.4064 328.205 91.3248 327.711 91.2264C327.235 91.1495 326.811 91.0565 326.439 90.9474C326.009 91.0546 325.678 91.3099 325.447 91.7132C325.215 92.1165 325.076 92.6073 325.032 93.1856C324.951 94.2225 325.276 95.0801 326.006 95.7584C326.736 96.4367 327.819 96.8315 329.254 96.9426Z" fill="#303030"/>
</svg>
