<svg width="1511" height="370" viewBox="0 0 1511 370" fill="none" xmlns="http://www.w3.org/2000/svg">
<g clip-path="url(#clip0_2133_1400)">
<rect width="1511" height="370" fill="#EEE5DB"/>
<path d="M540.679 160.434C248.182 384.312 58.3526 253.717 0 160.434V370H1511V235.82C1413.63 302.527 1172.99 395.919 989.327 235.82C805.667 75.7206 613.703 118.855 540.679 160.434Z" fill="#F8AD83"/>
<path d="M68.7056 172.174L83.8694 125.847C85.6062 120.662 85.51 117.259 83.581 115.638L83.4202 115.502L83.8706 114.967L101.018 129.379L100.567 129.915L100.353 129.735C98.7099 128.354 97.1999 127.938 95.8233 128.488C94.4767 129.002 93.425 130.435 92.6682 132.786L81.9383 164.916L112.012 149.045C114.007 147.978 115.013 146.599 115.032 144.908C115.117 143.212 114.225 141.517 112.356 139.824L112.807 139.288L123.256 148.071L122.805 148.607C122.097 148.072 121.13 147.808 119.905 147.815C118.716 147.852 117.442 148.061 116.084 148.444C114.792 148.821 113.592 149.306 112.484 149.899L69.2414 172.624L68.7056 172.174ZM87.0739 186.164L87.4566 185.578L87.5152 185.617C88.9219 186.535 90.3357 186.845 91.7566 186.547C93.1776 186.248 94.3473 185.396 95.2657 183.989L107.818 164.764C108.788 163.279 109.228 161.922 109.138 160.694C109.088 159.49 108.086 158.251 106.132 156.975L106.515 156.389L112.493 160.293C114.486 161.594 116.15 162.374 117.486 162.633C118.744 162.841 119.772 162.76 120.571 162.39L121.157 162.772L103.706 189.5C102.788 190.907 102.477 192.32 102.776 193.741C103.074 195.162 103.927 196.332 105.333 197.25L105.392 197.289L105.009 197.875L87.0739 186.164ZM119.289 156.286C117.882 155.368 117.004 154.153 116.653 152.642C116.366 151.117 116.682 149.652 117.601 148.245C118.519 146.838 119.721 145.979 121.207 145.667C122.757 145.342 124.235 145.638 125.642 146.556C127.009 147.449 127.836 148.658 128.123 150.183C128.448 151.733 128.165 153.192 127.272 154.559C126.379 155.927 125.157 156.774 123.607 157.099C122.096 157.45 120.657 157.179 119.289 156.286ZM117.167 204.623L117.47 203.992C118.984 204.72 120.416 204.864 121.766 204.425C123.178 203.965 124.258 202.956 125.006 201.4L142.283 165.435C143.011 163.92 143.113 162.468 142.59 161.078C142.109 159.708 141.112 158.659 139.597 157.932L139.9 157.301L146.336 160.392C148.482 161.423 150.233 161.98 151.591 162.063C152.865 162.105 153.874 161.891 154.618 161.42L155.249 161.723L134.092 205.765C133.344 207.321 133.211 208.784 133.691 210.154C134.235 211.502 135.263 212.54 136.778 213.268L136.475 213.899L117.167 204.623ZM151.931 220.057C148.898 218.975 146.461 217.263 144.621 214.922C142.824 212.597 141.737 209.88 141.359 206.773C140.997 203.621 141.427 200.331 142.65 196.903C143.904 193.386 145.727 190.568 148.118 188.449C150.51 186.329 153.217 184.99 156.239 184.434C159.322 183.848 162.467 184.128 165.676 185.273C168.357 186.229 170.542 187.603 172.232 189.395C173.966 191.202 175.103 193.293 175.644 195.666C176.244 198.01 176.185 200.467 175.468 203.035L175.181 204.047L153.028 196.145L152.91 196.475C151.248 201.134 150.949 205.239 152.011 208.789C153.089 212.295 155.364 214.667 158.837 215.906C160.946 216.658 163.127 216.866 165.377 216.529C167.688 216.164 169.75 215.314 171.564 213.979L172.086 214.389C170.54 216.364 168.669 217.926 166.475 219.076C164.282 220.226 161.935 220.9 159.437 221.099C156.938 221.298 154.436 220.95 151.931 220.057ZM153.447 195.18L166.831 199.954C168.069 196.482 168.501 193.465 168.127 190.903C167.796 188.358 166.62 186.724 164.598 186.003C162.664 185.313 160.683 185.796 158.656 187.451C156.629 189.106 154.892 191.682 153.447 195.18ZM182.854 244.155C178.015 243.13 174.229 241.636 171.497 239.674C168.8 237.767 167.674 235.763 168.119 233.663C168.458 232.065 169.516 230.787 171.293 229.828C173.106 228.924 175.41 228.41 178.203 228.287C174.143 226.282 172.409 223.887 172.999 221.102C173.318 219.595 174.207 218.329 175.664 217.302C177.132 216.229 179.021 215.532 181.331 215.211C179.261 213.723 177.79 211.885 176.918 209.697C176.092 207.518 175.954 205.127 176.506 202.525C177.308 198.736 179.253 195.976 182.339 194.245C185.47 192.523 189.25 192.131 193.679 193.07C195.779 193.515 197.765 194.269 199.639 195.334L212.239 198.004L211.293 199.091L201.98 197.118C203.583 198.555 204.676 200.265 205.257 202.249C205.894 204.197 205.966 206.335 205.473 208.663C204.67 212.452 202.72 215.235 199.625 217.012C196.585 218.753 192.828 219.15 188.354 218.202C185.888 217.679 183.797 216.855 182.08 215.727C180.455 216.194 179.531 216.952 179.308 218.002C179.115 218.915 179.623 219.667 180.834 220.258C181.434 220.576 182.314 220.929 183.472 221.317C184.63 221.706 186.048 222.102 187.728 222.505L190.096 223.15C195.307 224.445 199.134 226.306 201.578 228.732C204.067 231.167 204.978 233.96 204.311 237.11C203.566 240.625 201.301 242.984 197.517 244.185C193.722 245.433 188.835 245.423 182.854 244.155ZM188.459 217.365C189.874 217.665 191.266 216.839 192.634 214.887C193.91 212.915 194.925 210.149 195.68 206.588C196.444 202.981 196.638 200.041 196.261 197.767C195.829 195.529 194.905 194.26 193.49 193.96C192.029 193.65 190.67 194.436 189.413 196.316C188.146 198.242 187.131 201.008 186.367 204.615C185.603 208.221 185.404 211.184 185.771 213.504C186.148 215.778 187.044 217.065 188.459 217.365ZM183.796 243.425C185.896 243.87 187.904 243.961 189.82 243.699C191.726 243.483 193.321 242.938 194.603 242.065C195.931 241.202 196.744 240.062 197.044 238.647C197.373 237.095 196.835 235.693 195.431 234.441C193.926 233.216 191.443 232.213 187.983 231.432L185.615 230.787C184.301 230.461 183.088 230.109 181.975 229.73C180.899 229.406 179.947 229.062 179.118 228.695C178.091 228.812 177.248 229.301 176.589 230.163C175.929 231.025 175.459 232.118 175.178 233.442C174.675 235.816 175.164 237.899 176.645 239.691C178.125 241.484 180.509 242.728 183.796 243.425ZM220.825 234.543C217.616 234.288 214.818 233.269 212.432 231.487C210.092 229.709 208.336 227.368 207.163 224.466C205.994 221.517 205.554 218.228 205.843 214.6C206.14 210.878 207.167 207.683 208.924 205.014C210.682 202.346 212.948 200.349 215.722 199.026C218.546 197.659 221.656 197.111 225.052 197.382C227.89 197.608 230.357 198.366 232.455 199.657C234.598 200.952 236.24 202.674 237.379 204.825C238.569 206.933 239.151 209.32 239.126 211.986L239.112 213.039L215.667 211.17L215.639 211.518C215.246 216.449 216.024 220.491 217.973 223.642C219.925 226.747 222.739 228.446 226.414 228.739C228.647 228.917 230.807 228.551 232.892 227.641C235.028 226.687 236.798 225.33 238.202 223.57L238.814 223.829C237.834 226.138 236.434 228.134 234.615 229.814C232.796 231.495 230.705 232.756 228.344 233.598C225.983 234.44 223.477 234.755 220.825 234.543ZM215.82 210.128L229.985 211.258C230.278 207.583 229.91 204.557 228.883 202.181C227.901 199.809 226.341 198.538 224.201 198.367C222.154 198.204 220.367 199.185 218.84 201.311C217.313 203.436 216.306 206.375 215.82 210.128ZM238.224 235.039L238.199 234.339L238.269 234.337C239.948 234.276 241.281 233.713 242.27 232.65C243.259 231.587 243.722 230.215 243.661 228.536L242.824 205.592C242.759 203.82 242.336 202.457 241.554 201.505C240.819 200.552 239.285 200.117 236.953 200.202L236.928 199.503L243.853 199.25C246.325 199.16 248.182 198.859 249.424 198.346C250.664 197.787 251.527 197.102 252.011 196.291L252.361 196.278L252.849 207.748C253.404 206.326 254.12 204.829 254.997 203.256C255.92 201.682 257.086 200.355 258.494 199.276C259.947 198.149 261.7 197.548 263.752 197.473C264.451 197.448 265.2 197.491 265.998 197.602C266.796 197.712 267.645 197.938 268.544 198.279L266.115 206.563C264.402 205.692 262.909 205.092 261.636 204.765C260.41 204.436 259.331 204.289 258.398 204.323C256.812 204.381 255.641 204.914 254.884 205.922C254.173 206.929 253.563 208.119 253.053 209.491L253.734 228.169C253.795 229.848 254.358 231.182 255.421 232.17C256.485 233.159 257.856 233.622 259.535 233.561L259.605 233.559L259.63 234.258L238.224 235.039ZM284.43 232.214L284.292 231.528C285.893 231.206 287.019 230.647 287.668 229.851C288.354 228.999 288.706 228.024 288.723 226.926C288.787 225.818 288.694 224.647 288.446 223.412L280.899 185.801C280.569 184.154 279.776 182.933 278.522 182.137C277.313 181.333 275.885 181.096 274.238 181.426L274.1 180.74L281.101 179.335C283.434 178.867 285.168 178.257 286.303 177.506C287.346 176.773 288.022 175.995 288.333 175.171L289.019 175.033L294.253 201.113C295.002 198.44 296.428 196.179 298.532 194.329C300.626 192.433 303.023 191.214 305.723 190.673C307.873 190.241 309.804 190.377 311.516 191.081C313.219 191.739 314.625 192.813 315.733 194.304C316.887 195.786 317.671 197.556 318.084 199.615L321.83 218.283C322.17 219.976 322.944 221.225 324.152 222.029C325.398 222.779 326.844 222.989 328.491 222.658L328.629 223.344L307.696 227.545L307.558 226.859C309.205 226.528 310.436 225.782 311.25 224.619C312.1 223.401 312.355 221.946 312.016 220.253L308.132 200.898C307.93 199.892 307.577 198.844 307.073 197.755C306.559 196.621 305.854 195.715 304.957 195.039C304.096 194.307 303.025 194.07 301.744 194.327C300.554 194.566 299.484 195.161 298.533 196.114C297.618 197.011 296.832 198.073 296.174 199.3C295.515 200.527 294.995 201.726 294.611 202.898L298.329 221.428C298.577 222.664 298.921 223.785 299.361 224.791C299.847 225.788 300.548 226.552 301.463 227.082C302.415 227.558 303.692 227.635 305.293 227.313L305.431 228L284.43 232.214ZM343.357 219.926L320.638 193.191C319.879 192.3 319.018 191.636 318.055 191.198C317.136 190.746 316.023 190.696 314.715 191.046L314.511 190.376L333.258 184.658L333.462 185.327C331.954 185.982 331.139 186.987 331.015 188.342C330.937 189.684 331.556 191.154 332.873 192.752L344.691 206.785L346.721 188.967C346.854 187.805 346.771 186.732 346.472 185.75C346.131 184.634 345.517 183.821 344.63 183.311C343.743 182.801 342.676 182.663 341.43 182.897L341.226 182.227L351.804 179.001L352.009 179.67C350.93 180.292 350.018 181.302 349.274 182.7C348.529 184.098 348.019 185.864 347.742 187.997L343.96 219.742L343.357 219.926ZM374.952 208.469C371.954 209.644 368.993 209.953 366.067 209.395C363.186 208.821 360.582 207.485 358.257 205.389C355.915 203.25 354.079 200.485 352.751 197.097C351.389 193.621 350.914 190.298 351.326 187.129C351.738 183.96 352.901 181.174 354.816 178.769C356.757 176.304 359.313 174.45 362.485 173.207C365.135 172.168 367.686 171.77 370.136 172.013C372.631 172.238 374.861 173.068 376.827 174.503C378.819 175.877 380.387 177.769 381.532 180.177L381.98 181.129L360.082 189.712L360.21 190.038C362.015 194.644 364.483 197.936 367.615 199.917C370.73 201.854 374.004 202.149 377.436 200.804C379.522 199.987 381.303 198.712 382.78 196.981C384.283 195.189 385.28 193.194 385.772 190.996L386.435 190.962C386.565 193.467 386.18 195.873 385.28 198.181C384.38 200.489 383.053 202.537 381.298 204.328C379.544 206.118 377.429 207.499 374.952 208.469ZM359.764 188.709L372.994 183.524C371.649 180.091 369.994 177.532 368.03 175.846C366.109 174.142 364.15 173.682 362.151 174.466C360.239 175.215 359.062 176.879 358.619 179.459C358.177 182.038 358.558 185.122 359.764 188.709ZM390.835 201.311L390.536 200.678L390.6 200.648C392.119 199.931 393.123 198.889 393.614 197.522C394.104 196.156 393.99 194.713 393.273 193.194L383.47 172.431C382.713 170.828 381.788 169.742 380.694 169.175C379.643 168.587 378.062 168.792 375.952 169.788L375.653 169.155L381.92 166.196C384.157 165.14 385.745 164.132 386.685 163.173C387.605 162.17 388.128 161.201 388.254 160.265L388.57 160.115L393.535 170.466C393.486 168.941 393.554 167.283 393.741 165.492C393.97 163.681 394.519 162.003 395.389 160.457C396.281 158.849 397.655 157.606 399.512 156.73C400.145 156.431 400.85 156.175 401.628 155.963C402.405 155.751 403.274 155.624 404.235 155.584L405.263 164.155C403.345 164.028 401.737 164.065 400.438 164.266C399.182 164.446 398.131 164.735 397.287 165.134C395.853 165.811 394.986 166.762 394.687 167.987C394.43 169.192 394.337 170.526 394.409 171.989L402.388 188.89C403.105 190.409 404.147 191.414 405.514 191.904C406.881 192.394 408.324 192.281 409.843 191.563L409.906 191.533L410.205 192.166L390.835 201.311ZM449.164 172.252C446.377 173.866 443.496 174.618 440.52 174.509C437.585 174.376 434.81 173.449 432.195 171.728C429.556 169.967 427.325 167.511 425.5 164.362C423.628 161.131 422.657 157.919 422.586 154.724C422.515 151.529 423.244 148.599 424.773 145.933C426.32 143.203 428.567 140.984 431.515 139.276C433.978 137.849 436.439 137.071 438.898 136.94C441.398 136.786 443.728 137.27 445.888 138.392C448.065 139.45 449.901 141.083 451.396 143.291L451.983 144.164L431.632 155.955L431.807 156.258C434.287 160.538 437.224 163.42 440.619 164.905C443.991 166.35 447.272 166.148 450.462 164.299C452.4 163.177 453.968 161.648 455.167 159.713C456.382 157.715 457.067 155.592 457.221 153.345L457.871 153.211C458.378 155.668 458.361 158.105 457.82 160.522C457.278 162.939 456.276 165.165 454.812 167.2C453.348 169.234 451.465 170.918 449.164 172.252ZM431.166 155.011L443.461 147.888C441.613 144.698 439.591 142.418 437.395 141.047C435.239 139.654 433.232 139.495 431.375 140.571C429.598 141.6 428.686 143.423 428.638 146.04C428.59 148.657 429.432 151.647 431.166 155.011ZM463.79 162.779L463.405 162.195L463.463 162.156C464.867 161.232 465.715 160.059 466.008 158.637C466.301 157.215 465.985 155.802 465.061 154.399L452.435 135.222C451.46 133.741 450.391 132.797 449.229 132.389C448.105 131.955 446.569 132.38 444.62 133.663L444.235 133.078L450.023 129.268C452.011 127.959 453.39 126.744 454.16 125.622C454.853 124.552 455.188 123.576 455.167 122.696L455.752 122.311L461.2 130.458C460.879 127.764 461.34 125.113 462.585 122.506C463.83 119.899 465.602 117.838 467.901 116.324C470.513 114.604 473.163 114.089 475.851 114.777C478.578 115.44 480.866 117.175 482.713 119.981L493.183 135.884C494.107 137.287 495.28 138.135 496.702 138.428C498.124 138.721 499.537 138.406 500.94 137.482L500.999 137.443L501.384 138.028L483.551 149.768L483.166 149.184L483.225 149.145C484.628 148.221 485.476 147.048 485.769 145.626C486.062 144.204 485.747 142.792 484.823 141.389L473.968 124.901C472.685 122.952 471.268 121.65 469.719 120.994C468.208 120.312 466.83 120.382 465.582 121.203C464.374 121.998 463.454 123.359 462.821 125.284C462.202 127.144 461.983 129.272 462.163 131.667L473.48 148.856C474.404 150.259 475.577 151.107 476.999 151.4C478.421 151.693 479.834 151.378 481.237 150.454L481.296 150.416L481.681 151L463.79 162.779ZM514.797 129.058C512.201 130.963 509.418 132.021 506.447 132.232C503.515 132.416 500.656 131.793 497.871 130.364C495.058 128.897 492.575 126.696 490.422 123.761C488.213 120.751 486.902 117.662 486.487 114.493C486.072 111.324 486.482 108.333 487.716 105.517C488.959 102.637 490.955 100.189 493.701 98.174C495.997 96.4901 498.36 95.4509 500.791 95.0565C503.259 94.6345 505.628 94.8648 507.896 95.7474C510.174 96.5647 512.175 97.9906 513.899 100.025L514.577 100.83L495.613 114.743L495.82 115.025C498.746 119.014 501.977 121.563 505.512 122.674C509.02 123.747 512.26 123.193 515.232 121.012C517.038 119.687 518.433 117.998 519.416 115.946C520.409 113.828 520.861 111.644 520.773 109.394L521.405 109.19C522.173 111.579 522.418 114.003 522.14 116.465C521.862 118.926 521.105 121.247 519.869 123.427C518.633 125.607 516.942 127.484 514.797 129.058ZM495.048 113.855L506.505 105.449C504.325 102.477 502.069 100.428 499.738 99.3017C497.444 98.1481 495.432 98.2063 493.702 99.4761C492.046 100.691 491.335 102.601 491.569 105.208C491.803 107.815 492.963 110.697 495.048 113.855ZM540.923 110.6C539.923 111.288 539.147 111.765 538.594 112.032C538.042 112.299 537.495 112.533 536.954 112.736C536.452 112.911 535.809 113.212 535.026 113.638C534.242 114.063 533.101 114.792 531.602 115.824L522.758 105.935L523.508 105.419C526.609 108.609 529.641 110.545 532.602 111.227C535.537 111.87 538.004 111.503 540.003 110.128C541.964 108.779 543.166 107.357 543.61 105.861C544.093 104.34 543.858 102.887 542.906 101.503C542.297 100.619 541.537 100.009 540.626 99.6725C539.727 99.2715 538.501 99.0954 536.949 99.144C535.37 99.1543 533.314 99.2945 530.78 99.5647L528.473 99.7928C525.539 100.056 523.01 99.7565 520.888 98.8945C518.777 97.9676 517.087 96.5815 515.817 94.7361C514.018 92.1219 513.545 89.417 514.397 86.6214C515.288 83.7994 517.328 81.2906 520.519 79.095C521.327 78.5394 522.007 78.1282 522.559 77.8612C523.112 77.5942 523.659 77.3596 524.199 77.1575C524.74 76.9554 525.383 76.6547 526.128 76.2554C526.873 75.8562 527.822 75.2597 528.975 74.4661L536.171 83.195L535.479 83.6712C534.005 82.023 532.388 80.7847 530.628 79.9562C528.881 79.0628 527.204 78.602 525.599 78.5738C523.967 78.5071 522.593 78.8574 521.478 79.6245C520.017 80.6298 519.109 81.821 518.754 83.1984C518.438 84.5492 518.755 85.9167 519.708 87.3007C520.422 88.3387 521.41 89.075 522.672 89.5095C523.946 89.8791 525.888 89.9024 528.498 89.5793L530.823 89.2539C534.467 88.7861 537.419 88.8787 539.681 89.5315C541.943 90.1844 543.881 91.6834 545.495 94.0285C549.621 100.026 548.097 105.55 540.923 110.6ZM564.722 97.3952C562.516 98.4042 560.392 98.5286 558.351 97.7683C556.31 97.0081 554.775 95.5033 553.747 93.2539L542.541 68.744L537.13 71.218L536.751 70.3904C539.583 68.8393 541.766 66.7123 543.301 64.0093C544.879 61.2868 545.77 58.1855 545.975 54.7052L546.993 54.2395L551.184 63.4069L559.651 59.5358L559.539 60.9728L551.708 64.5528L562.274 87.6621C563.826 91.0574 565.748 92.2311 568.04 91.1833C568.804 90.834 569.567 90.2028 570.33 89.2897C571.135 88.3571 571.809 87.3052 572.351 86.1337L572.642 86.7704C572.056 89.1932 571.051 91.3718 569.626 93.306C568.182 95.1977 566.547 96.5608 564.722 97.3952ZM590.406 87.8086C587.346 88.8116 584.371 88.9517 581.483 88.2289C578.638 87.4916 576.115 86.0107 573.912 83.786C571.695 81.5171 570.02 78.6531 568.886 75.1942C567.723 71.6466 567.437 68.3026 568.028 65.1622C568.619 62.0218 569.939 59.3057 571.987 57.0137C574.065 54.6629 576.722 52.9569 579.959 51.8958C582.665 51.0091 585.234 50.7563 587.667 51.1374C590.144 51.5039 592.323 52.4593 594.205 54.0035C596.116 55.4887 597.574 57.4662 598.58 59.9357L598.974 60.9116L576.624 68.2378L576.733 68.5704C578.274 73.271 580.551 76.6987 583.566 78.8536C586.566 80.9641 589.818 81.4452 593.321 80.2969C595.449 79.5991 597.3 78.4278 598.872 76.7828C600.475 75.0789 601.584 73.1439 602.2 70.9776L602.864 70.9809C602.851 73.4896 602.33 75.8703 601.301 78.1231C600.271 80.3758 598.83 82.3462 596.977 84.034C595.124 85.7219 592.933 86.9801 590.406 87.8086ZM576.363 67.2182L589.866 62.792C588.718 59.2888 587.211 56.6396 585.346 54.8447C583.525 53.0352 581.595 52.4647 579.555 53.1334C577.604 53.773 576.334 55.3678 575.746 57.918C575.157 60.4681 575.363 63.5682 576.363 67.2182ZM650.743 76.2157L649.213 66.3939C648.462 68.9588 647.095 71.1906 645.112 73.0891C643.123 74.9416 640.859 76.0563 638.32 76.4335C635.827 76.8038 633.472 76.3516 631.254 75.077C629.036 73.8024 627.148 71.8891 625.589 69.3371C624.024 66.7389 622.984 63.7088 622.469 60.2468C621.893 56.3694 622.108 52.8934 623.114 49.8189C624.166 46.7375 625.871 44.2432 628.23 42.3359C630.582 40.3825 633.443 39.1555 636.812 38.6549C638.705 38.3738 640.296 38.4441 641.585 38.8659C642.868 39.2416 644.096 40.0498 645.272 41.2906L643.286 27.9272C643.04 26.2655 642.31 25.0057 641.097 24.1479C639.931 23.2832 638.517 22.9743 636.855 23.2211L636.752 22.5287L643.815 21.4796C646.123 21.1367 647.843 20.6454 648.974 20.0055C650.106 19.3656 650.864 18.5925 651.248 17.6862L651.94 17.5833L659.12 65.913C659.367 67.5748 660.073 68.838 661.24 69.7027C662.406 70.5673 663.843 70.8728 665.551 70.6191L665.654 71.3115L658.591 72.3606C656.56 72.6623 654.976 73.1101 653.837 73.7038C652.745 74.2907 651.944 75.0937 651.435 76.1129L650.743 76.2157ZM641.717 73.0982C642.778 72.9405 643.792 72.4596 644.758 71.6557C645.763 70.7987 646.621 69.7511 647.334 68.513C648.046 67.2749 648.518 66.0018 648.748 64.6938L646.238 47.7992C645.596 45.0638 644.575 42.951 643.174 41.4607C641.819 39.9635 640.242 39.3486 638.441 39.616C636.041 39.9726 634.398 41.7736 633.512 45.019C632.672 48.2576 632.694 52.8542 633.579 58.8088C635.08 68.9179 637.793 73.681 641.717 73.0982ZM675.451 72.2019C672.606 72.291 670.297 71.5929 668.523 70.1077C666.749 68.6224 665.822 66.6204 665.743 64.1017C665.71 63.0289 665.865 62.0202 666.209 61.0756C666.551 60.0844 667.221 59.1063 668.218 58.1413C669.262 57.1749 670.701 56.1727 672.536 55.1348C674.37 54.0502 676.808 52.9001 679.852 51.6843L686.284 49.1018L686.12 43.8543C686.037 41.1956 685.551 39.1098 684.663 37.5968C683.774 36.0372 682.583 35.2808 681.091 35.3275C679.32 35.4296 677.84 36.6432 676.652 38.9681C675.511 41.2916 674.794 44.4889 674.501 48.5601L666.809 44.4587C667.542 42.5215 668.703 40.8044 670.29 39.3073C671.877 37.8103 673.708 36.6324 675.782 35.7738C677.903 34.9137 680.129 34.4471 682.462 34.3741C686.426 34.2501 689.68 35.2688 692.222 37.4303C694.809 39.5437 696.163 42.5129 696.283 46.3376L696.81 63.1994C696.895 65.9047 697.847 67.2289 699.666 67.172C700.739 67.1384 701.77 66.5225 702.76 65.3243L703.335 65.7966C702.173 67.4671 700.745 68.8424 699.052 69.9226C697.358 71.0027 695.695 71.5684 694.062 71.6195C692.29 71.6749 690.732 71.1168 689.388 69.9449C688.09 68.7716 687.247 67.1872 686.858 65.1917C684.645 67.5954 682.693 69.3607 681.001 70.4875C679.353 71.5662 677.504 72.1377 675.451 72.2019ZM680.563 67.6998C681.589 67.6677 682.561 67.3805 683.478 66.8382C684.441 66.2945 685.511 65.4206 686.687 64.2166L686.313 50.0113L683.547 51.1484C681.196 52.1091 679.405 53.0756 678.175 54.0479C676.943 54.9735 676.088 56.0041 675.61 57.1396C675.179 58.2737 674.986 59.5637 675.031 61.0096C675.094 63.0153 675.636 64.6558 676.656 65.9312C677.721 67.1585 679.024 67.748 680.563 67.6998ZM718.974 87.4011C714.042 87.018 710.093 86.0326 707.127 84.4448C704.204 82.9072 702.826 81.0683 702.992 78.9281C703.119 77.2996 704 75.8937 705.637 74.7102C707.316 73.5768 709.532 72.766 712.285 72.2777C707.998 70.8214 705.965 68.6741 706.186 65.836C706.305 64.3007 707.02 62.9286 708.331 61.7198C709.645 60.4645 711.427 59.5263 713.675 58.9052C711.428 57.7009 709.729 56.0711 708.578 54.0158C707.474 51.9641 707.024 49.6123 707.23 46.9603C707.53 43.0986 709.097 40.1075 711.929 37.9872C714.809 35.8705 718.505 34.9874 723.018 35.3379C725.158 35.5042 727.226 35.9925 729.223 36.8028L742.064 37.8002L741.269 39.0023L731.777 38.265C733.555 39.4797 734.862 41.0322 735.699 42.9227C736.585 44.7702 736.936 46.8804 736.751 49.2532C736.451 53.1149 734.883 56.1292 732.047 58.2961C729.261 60.42 725.588 61.3049 721.028 60.9508C718.516 60.7556 716.335 60.2118 714.485 59.3192C712.935 59.9945 712.118 60.8672 712.035 61.9373C711.963 62.8678 712.565 63.5465 713.843 63.9734C714.48 64.2101 715.398 64.4452 716.596 64.6788C717.795 64.9123 719.254 65.1192 720.971 65.2994L723.403 65.6287C728.739 66.2304 732.777 67.5738 735.518 69.6589C738.304 71.7477 739.573 74.3972 739.323 77.6075C739.045 81.1901 737.109 83.8247 733.514 85.5114C729.916 87.2446 725.069 87.8745 718.974 87.4011ZM721.024 60.1079C722.466 60.2199 723.737 59.2187 724.838 57.1042C725.845 54.9825 726.49 52.1071 726.772 48.4781C727.057 44.8025 726.864 41.862 726.193 39.6568C725.471 37.4944 724.39 36.3572 722.947 36.2452C721.458 36.1295 720.214 37.086 719.214 39.1147C718.21 41.1899 717.566 44.0652 717.28 47.7408C716.995 51.4164 717.186 54.3801 717.853 56.6319C718.525 58.8372 719.581 59.9958 721.024 60.1079ZM719.812 86.5535C721.952 86.7197 723.955 86.5476 725.82 86.0372C727.682 85.5733 729.191 84.8246 730.348 83.791C731.551 82.7611 732.209 81.525 732.321 80.0827C732.444 78.5008 731.727 77.1813 730.171 76.1243C728.518 75.1066 725.925 74.4372 722.393 74.116L719.961 73.7867C718.616 73.6353 717.367 73.4447 716.214 73.2148C715.105 73.035 714.115 72.8177 713.246 72.563C712.243 72.8128 711.472 73.4081 710.931 74.349C710.389 75.29 710.066 76.4351 709.962 77.7843C709.774 80.2037 710.531 82.205 712.233 83.7883C713.936 85.3715 716.462 86.2933 719.812 86.5535Z" fill="#272727"/>
</g>
<defs>
<clipPath id="clip0_2133_1400">
<rect width="1511" height="370" fill="white"/>
</clipPath>
</defs>
</svg>
