<svg width="132" height="150" viewBox="0 0 132 150" fill="none" xmlns="http://www.w3.org/2000/svg">
<path d="M91.4913 94.6389C86.266 98.2581 82.0567 113.597 80.6052 120.814H54.1682C50.9335 105.044 45.3554 96.1468 42.9707 93.6691C32.5201 84.8796 32.3957 69.7564 33.6398 63.2935C35.2986 55.6459 42.7841 39.1227 59.4552 34.211C76.1264 29.2992 89.2104 40.7815 93.6685 47.1367C109.531 64.5865 98.0229 90.1149 91.4913 94.6389Z" fill="#F8AD83" stroke="#809575" stroke-width="4"/>
<path d="M77.1738 81.0633C77.1759 81.04 77.178 81.0166 77.1801 80.9931L77.1848 80.9416C77.2963 79.713 77.3646 77.8429 77.4775 76.4232C77.6635 74.0828 78.3688 71.4777 79.2664 68.6649C80.1059 66.0343 81.481 64.6321 83.0107 63.299C83.7654 62.6412 84.5062 62.6485 84.9633 62.6969C85.3643 62.7393 85.5552 63.4667 85.733 64.5958C86.0218 66.4306 85.4202 69.1422 84.5521 71.9832C83.8305 74.3445 82.7303 75.859 82.0283 76.8095C81.0998 78.0667 79.8306 79.3562 78.6587 80.4127C78.3401 80.6999 77.822 80.9108 77.1738 81.0633C76.4206 81.2406 75.4919 81.3392 74.4968 81.3875C73.9432 81.4143 73.4468 80.9965 72.9492 80.3434C72.8842 80.4537 72.8204 80.5609 72.7577 80.665C70.8338 83.8596 69.3898 84.9341 68.4526 85.447C67.1816 86.1427 64.6891 85.3775 63.0661 84.6738C61.9616 84.1949 61.1036 83.5214 60.4382 82.84C59.9666 83.2807 59.5242 83.5562 59.1266 83.783C58.5442 84.1152 57.8521 84.1312 57.2016 83.9912C56.6294 83.8681 56.0895 83.6243 55.6848 83.3688C54.7281 82.7648 53.341 80.9042 51.616 78.6899C49.3601 75.7939 49.2465 74.164 49.04 73.3487C48.9768 73.0992 48.9266 72.7974 48.8426 71.2434C48.7586 69.6893 48.6475 66.8908 48.6548 65.2336C48.6639 63.1404 49.157 62.3231 49.5632 61.6867C49.8198 61.2847 50.1694 61.0229 50.5921 60.7845C50.9443 60.5859 51.5128 60.6182 52.1253 60.6776C53.1567 60.7777 53.754 62.5882 54.3212 63.9585C54.6517 64.757 54.9436 65.8176 55.579 70.0581C56.0537 73.2263 56.6974 78.1592 57.2016 83.9912C57.8521 84.1312 58.5442 84.1152 59.1266 83.783C59.5242 83.5562 59.9666 83.2807 60.4382 82.84C59.9745 82.3651 59.6043 81.8864 59.3096 81.4671C59.0537 81.1031 58.925 80.4283 58.7228 77.1878C58.551 74.4344 58.534 69.4139 58.6066 66.4217C58.6993 62.6014 59.4771 61.1562 60.1688 59.8981C61.7735 56.9794 63.9857 55.4387 64.7691 55.0949C65.3434 54.8428 65.9285 55.1067 66.2777 55.3928C66.7158 55.7517 66.9226 56.2303 67.115 56.8173C67.4844 57.9443 67.6145 60.7838 67.5688 64.4046C67.5493 65.9516 67.2765 66.8994 66.3888 69.484C65.5011 72.0687 63.9401 76.2591 63.0054 78.6263C62.1163 80.8781 61.2355 82.0951 60.4382 82.84C61.1036 83.5214 61.9616 84.1949 63.0661 84.6738C64.6891 85.3775 67.1816 86.1427 68.4526 85.447C69.3898 84.9341 70.8338 83.8596 72.7577 80.665C72.8204 80.5609 72.8842 80.4537 72.9492 80.3434C72.5327 79.7969 72.1154 79.0856 71.6628 78.3323C71.304 77.7351 71.0738 76.7148 70.7715 74.3281C70.5638 72.6878 70.5827 70.1393 70.7908 67.7529C70.9989 65.3665 71.4818 63.21 71.9025 61.6376C72.8966 57.9214 74.0288 56.9173 74.9365 56.304C75.2783 56.073 75.8997 56.187 76.5188 56.2199C77.4944 56.2716 78.3476 58.7409 79.0732 62.4569C79.6963 65.6482 78.9171 66.9353 78.0017 69.4864C77.3791 71.2215 76.2518 73.7764 75.2744 75.8713C74.3846 77.7782 73.6084 79.224 72.9492 80.3434C73.4468 80.9965 73.9432 81.4143 74.4968 81.3875C75.4919 81.3392 76.4206 81.2406 77.1738 81.0633Z" fill="#F8AD83"/>
<path d="M73.0185 117.805C73.0185 117.799 73.0185 117.793 73.0243 116.453C73.0301 115.114 73.0417 112.441 73.2132 109.033C73.3848 105.625 73.7159 101.563 74.2991 97.6345C74.8823 93.7058 75.7075 90.0329 76.1963 87.6583C76.8806 84.3333 77.0208 82.7486 77.1848 80.9416C77.2963 79.713 77.3646 77.8429 77.4775 76.4232C77.6635 74.0828 78.3688 71.4777 79.2664 68.6649C80.1059 66.0343 81.481 64.6321 83.0107 63.299C83.7654 62.6412 84.5062 62.6485 84.9633 62.6969C85.3643 62.7393 85.5552 63.4667 85.733 64.5958C86.0218 66.4306 85.4202 69.1422 84.5521 71.9832C83.8305 74.3445 82.7303 75.859 82.0283 76.8095C81.0998 78.0667 79.8306 79.3562 78.6587 80.4127C77.9699 81.0337 76.3483 81.2976 74.4968 81.3875C73.4799 81.4368 72.6562 79.9857 71.6628 78.3323C71.304 77.7351 71.0738 76.7148 70.7715 74.3281C70.5638 72.6878 70.5827 70.1393 70.7908 67.7529C70.9989 65.3665 71.4818 63.21 71.9025 61.6376C72.8966 57.9214 74.0288 56.9173 74.9365 56.304C75.2783 56.073 75.8997 56.187 76.5188 56.2199C77.4944 56.2716 78.3476 58.7409 79.0732 62.4569C79.6963 65.6482 78.9171 66.9353 78.0017 69.4864C77.3791 71.2215 76.2518 73.7764 75.2744 75.8713C74.2969 77.9662 73.4565 79.5045 72.7577 80.665C70.8338 83.8596 69.3898 84.9341 68.4526 85.447C67.1816 86.1427 64.6891 85.3775 63.0661 84.6738C61.1917 83.8611 60.0271 82.4879 59.3096 81.4671C59.0537 81.1031 58.925 80.4283 58.7228 77.1878C58.551 74.4344 58.534 69.4139 58.6066 66.4217C58.6993 62.6014 59.4771 61.1562 60.1688 59.8981C61.7735 56.9794 63.9857 55.4387 64.7691 55.0949C65.3434 54.8428 65.9285 55.1067 66.2777 55.3928C66.7158 55.7517 66.9226 56.2303 67.115 56.8173C67.4844 57.9443 67.6145 60.7838 67.5688 64.4046C67.5493 65.9516 67.2765 66.8994 66.3888 69.484C65.5011 72.0687 63.9401 76.2591 63.0054 78.6263C61.5904 82.2101 60.1965 83.1726 59.1266 83.783C58.032 84.4075 56.5495 83.9147 55.6848 83.3688C54.7281 82.7648 53.341 80.9042 51.616 78.6899C49.3601 75.7939 49.2465 74.164 49.04 73.3487C48.9768 73.0992 48.9266 72.7974 48.8426 71.2434C48.7586 69.6893 48.6475 66.8908 48.6548 65.2336C48.6639 63.1404 49.157 62.3231 49.5632 61.6867C49.8198 61.2847 50.1694 61.0229 50.5921 60.7845C50.9443 60.5859 51.5128 60.6182 52.1253 60.6776C53.1567 60.7777 53.754 62.5882 54.3212 63.9585C54.6517 64.757 54.9436 65.8176 55.579 70.0581C56.2144 74.2986 57.1525 81.7004 57.6537 90.1884C58.1549 98.6763 58.1909 108.026 58.2279 117.659" stroke="#809575" stroke-width="4" stroke-linecap="round"/>
<line x1="53.7653" y1="125.381" x2="80.8682" y2="125.381" stroke="#809575" stroke-width="4" stroke-linecap="round"/>
<line x1="53.7653" y1="129.904" x2="80.8682" y2="129.904" stroke="#809575" stroke-width="4" stroke-linecap="round"/>
<line x1="53.7653" y1="134.427" x2="80.8682" y2="134.427" stroke="#809575" stroke-width="4" stroke-linecap="round"/>
<line x1="56.8759" y1="138.954" x2="78.3803" y2="138.954" stroke="#809575" stroke-width="4" stroke-linecap="round"/>
<line x1="59.3646" y1="143.478" x2="76.5146" y2="143.478" stroke="#809575" stroke-width="4" stroke-linecap="round"/>
<line x1="61.23" y1="148" x2="74.6476" y2="148" stroke="#809575" stroke-width="4" stroke-linecap="round"/>
<path d="M26.2608 84.7236C26.2504 84.7236 26.24 84.7236 22.293 84.7236C18.3461 84.7236 10.463 84.7236 2.00049 87.9551" stroke="#809575" stroke-width="4" stroke-linecap="round"/>
<path d="M23.1503 61.4574C23.1827 61.4574 21.4255 60.033 17.24 56.9272C11.8323 53.3503 8.16912 51.1705 7.0858 50.7884C6.57892 50.6333 6.15909 50.5567 5.11108 49.8242" stroke="#809575" stroke-width="4" stroke-linecap="round"/>
<path d="M34.9691 36.2517C34.7095 36.0155 33.6161 34.8452 30.6798 30.7776C28.7031 27.7587 25.7385 22.8013 24.1256 20.0601C22.5128 17.319 22.3416 16.9445 21.9059 16.2168" stroke="#809575" stroke-width="4" stroke-linecap="round"/>
<path d="M65.4507 24.618C65.4507 24.6333 65.4507 24.6486 65.4507 21.2128C65.4507 17.7771 65.4507 10.8897 65.4507 7.04573C65.4507 3.20175 65.4507 2.60984 65.4507 2" stroke="#809575" stroke-width="4" stroke-linecap="round"/>
<path d="M93.2557 29.5332C93.6654 29.1697 94.8347 27.8026 99.1675 22.9041C101.136 20.8006 104.01 17.8359 105.65 16.1301C107.29 14.4243 107.61 14.067 107.75 13.6321" stroke="#809575" stroke-width="4" stroke-linecap="round"/>
<path d="M108.995 52.4096C109.707 52.4096 112.909 51.8221 123.412 48.4365C125.736 47.7085 126.695 47.6374 127.886 47.5957C128.433 47.554 128.862 47.4706 129.523 47.2393" stroke="#809575" stroke-width="4" stroke-linecap="round"/>
<path d="M108.995 78.9156C109.7 78.8738 111.669 78.9777 115.49 80.5137C116.866 81.1875 118.5 82.1242 120.034 83.1557C121.568 84.1872 122.951 85.2852 124.64 86.8685" stroke="#809575" stroke-width="4" stroke-linecap="round"/>
</svg>
