<svg width="168" height="167" viewBox="0 0 168 167" fill="none" xmlns="http://www.w3.org/2000/svg">
<path d="M63.739 107.741C67.3195 118.453 70.2532 127.421 70.2532 127.421L88.9533 116.871L63.739 107.741Z" fill="#C6DC68"/>
<path d="M38.188 41.5222C38.4489 44.9899 46.7441 62.9492 51.7244 74.1918C54.9433 55.3568 60.3611 38.7816 79.4571 29.2885C61.0252 24.9071 53.9005 24.3572 53.9005 24.3572C53.9005 24.3572 37.7345 35.5423 38.188 41.5222Z" fill="#C6DC68"/>
<path d="M145.126 74.2068C145.23 66.648 145.163 47.6982 138.474 45.5473C135.635 44.7015 132.409 43.6081 129.778 42.8328C129.778 42.8328 130.18 45.4225 129.932 47.0909L127.286 63.9525C127.069 65.5143 125.945 66.6522 124.489 66.1584L113.578 62.8096C112.121 62.3158 111.207 60.7208 111.529 59.1942L112.481 54.2596C112.803 52.733 112.709 51.0654 112.345 49.5402C111.238 45.426 108.217 42.4159 103.523 40.4738C101.399 39.52 99.0191 39.0636 96.8167 38.7843C83.4811 37.5342 73.9596 46.1061 68.5772 64.9606C64.0414 81.6486 66.4279 93.6737 74.9604 101.357C79.5972 105.499 85.692 107.332 91.654 106.432C93.2193 106.145 94.6806 105.823 96.2027 105.287C97.2174 104.93 98.1281 104.538 98.9956 103.898C102.032 101.656 103.213 98.3176 103.475 94.2006C103.571 93.0648 104.604 92.2465 105.748 92.6345L115.203 95.4894C115.931 95.7364 115.977 97.9719 115.686 99.392C115.656 99.4985 115.303 101.132 115.303 101.132L118.652 98.9955C118.652 98.9955 145.022 81.7657 145.126 74.2068Z" fill="#C6DC68"/>
<path d="M157.772 75.7515C158.047 69.9679 152.65 42.5031 146.43 39.2065C140.209 35.91 60.2963 6.54347 51.2377 8.86144C42.2826 11.2147 25.439 29.8025 25.0145 38.1209C24.6151 47.1531 63.2531 145.313 71.4371 145.283C79.7853 145.073 157.497 81.535 157.772 75.7515ZM52.3588 73.8927C47.3914 62.5602 39.0869 44.5652 38.8581 40.9609C38.4079 34.9302 54.552 23.6267 54.552 23.6267C54.552 23.6267 61.7684 24.2068 80.0647 28.5652C60.9961 38.1662 55.5499 54.9985 52.3588 73.8927ZM70.8845 127.58C70.8845 127.58 68.356 119.665 65.2294 110.254L87.1037 118.418L70.8845 127.58ZM118.201 98.8138L114.866 100.968C114.866 100.968 115.218 99.3245 115.248 99.2173C115.539 97.7885 115.495 95.5399 114.77 95.2927L105.359 92.4363C104.324 92.0831 103.192 92.8726 103.095 94.0152C102.862 98.0495 101.653 101.516 98.629 103.776C97.7649 104.422 96.858 104.818 95.8475 105.179C94.3318 105.72 92.8464 106.154 91.3182 106.338C85.382 107.252 79.3154 105.418 74.7019 101.259C66.2122 93.5449 63.8139 81.5604 68.3709 64.66C73.742 45.6863 83.2269 37.0488 96.5027 38.2847C98.829 38.4903 101.064 39.0174 103.178 39.9734C107.85 41.9193 110.855 44.9422 111.955 49.0787C112.42 50.6475 112.409 52.2895 112.088 53.8256L111.136 58.7906C110.815 60.3267 111.724 61.9296 113.174 62.4239L124.034 65.7747C125.484 66.2691 127.017 65.264 127.235 63.6926L129.776 46.6926C129.994 45.1212 129.626 42.4098 129.626 42.4098C132.349 43.2207 135.041 44.1388 137.867 44.985C144.525 47.1378 144.58 66.1984 144.471 73.8018C144.466 81.4404 118.201 98.8138 118.201 98.8138Z" fill="#58644E"/>
</svg>
