<svg width="357" height="275" viewBox="0 0 357 275" fill="none" xmlns="http://www.w3.org/2000/svg">
<path d="M289.858 219.018C289.858 219.018 360.629 190.36 365.151 173.163C369.672 155.966 380.235 112.7 365.708 104.628L347.126 133.216L323.75 121.26C323.75 121.26 277.806 212.373 270.515 225.536L289.858 219.018Z" fill="#80C86A"/>
<path d="M170.588 227.332C163.43 222.595 158.885 224.24 158.885 224.24L160.211 262.48L204.171 249.134C204.962 247.762 222.04 220.744 223.319 219.044L236.892 225.652L271.125 161.606C219.2 134.711 196.538 131.393 196.538 131.393C196.538 131.393 170.402 182.437 168.781 185.768C168.649 185.997 188.418 199.529 188.418 199.529L170.588 227.332Z" fill="#80C86A"/>
<path d="M181.666 36.5931L192.043 19.1167C186.568 17.178 180.34 16.0243 180.34 16.0243C180.34 16.0243 136.07 34.066 133.526 47.8331C131.797 58.1089 152.42 138.248 152.42 138.248C152.901 141.572 160.052 141.126 161.634 138.382C179.123 103.374 205.12 47.3749 205.12 47.3749L181.666 36.5931Z" fill="#80C86A"/>
<path d="M245.993 117.866C258.93 123.497 283.795 132.351 283.795 132.351L296.646 107.466L278.575 98.2641L292.155 65.8774C280.289 59.949 266.53 52.6247 256.688 47.8635C253.764 55.0132 248.878 67.1249 248.575 68.1692C246.644 67.3603 230.52 60.5001 230.52 60.5001L209.471 101.681C209.378 101.323 221.826 107.282 245.993 117.866Z" fill="#80C86A"/>
<path d="M152.582 300.127C170.102 303.527 350.966 216.48 388.666 190.08C392.707 187.231 395.057 185.234 395.491 183.962C395.965 182.102 396.74 179.197 396.973 175.675C399.703 153.789 400.144 104.686 389.185 95.6251C376.334 85.1679 203.946 -19.7195 181.237 -18.7989C171.403 -18.376 156.488 -11.7421 142.001 -2.72953C123.379 8.77426 106.006 24.3495 102.85 35.0211C101.679 38.6113 102.144 49.2387 103.37 64.2652C109.172 133.726 136.675 297.048 152.582 300.127ZM347.126 133.222L365.709 104.634C380.235 112.706 369.672 155.972 365.151 173.169C360.629 190.366 288.811 217.202 288.811 217.202L274.82 222.235C282.242 208.843 323.618 121.495 323.618 121.495L347.126 133.222ZM153.434 137.007C153.434 137.007 131.663 58.3382 133.617 48.1921C135.936 34.2954 180.431 16.3834 180.431 16.3834C180.431 16.3834 182.943 17.223 188.194 19.0319L177.817 36.5084L201.364 47.6485C201.364 47.6485 175.142 103.518 157.878 138.655C156.428 141.171 154.047 140.102 153.434 137.007ZM233.31 62.4133C233.31 62.4133 249.302 69.5022 251.365 70.0824C251.893 69.1678 256.554 56.9264 259.478 49.7767C269.32 54.5379 280.061 59.8178 291.928 65.7462L278.348 98.133L296.419 107.334L283.568 132.22C283.568 132.22 258.928 123.496 245.766 117.735C221.374 107.021 213.223 101.407 213.223 101.407L233.31 62.4133ZM170.125 186.544C171.746 183.213 197.882 132.169 197.882 132.169C197.882 132.169 216.868 134.586 268.793 161.481L236.91 223.53L221.367 216.701C220.312 218.53 204.173 245.48 203.157 246.722L160.625 259.672L160.229 225.016C160.229 225.016 163.509 226.603 170.8 231.111L190.817 198.476C191.042 198.605 169.861 187.001 170.125 186.544Z" fill="#34562A"/>
</svg>
