<svg width="202" height="190" viewBox="0 0 202 190" fill="none" xmlns="http://www.w3.org/2000/svg">
<path d="M131.538 120.318C131.538 120.318 164.815 109.291 167.635 101.863C170.455 94.4347 177.182 75.728 170.982 71.8853L161.293 83.9975L151.269 78.266C151.269 78.266 126.391 117.152 122.502 122.756L131.538 120.318Z" fill="#80C86A"/>
<path d="M76.9715 120.927C73.9454 118.699 71.8138 119.322 71.8138 119.322L70.6848 136.104L91.1868 131.198C91.6069 130.614 100.559 119.143 101.215 118.425L107.06 121.611L125.453 94.2845C103.165 81.3899 93.0569 79.4511 93.0569 79.4511C93.0569 79.4511 78.9176 101.254 78.0332 102.679C77.9632 102.776 86.2999 109.128 86.2999 109.128L76.9715 120.927Z" fill="#80C86A"/>
<path d="M89.9862 37.4352L95.4734 30.0012C93.0827 29.0346 90.316 28.3959 90.316 28.3959C90.316 28.3959 69.4628 35.3519 67.6888 41.3286C66.4413 45.7932 72.1516 81.3427 72.1516 81.3427C72.219 82.8092 75.4758 82.7665 76.316 81.5984C85.8149 66.6365 100.114 42.6606 100.114 42.6606L89.9862 37.4352Z" fill="#80C86A"/>
<path d="M115.711 74.8494C121.331 77.6018 132.221 82.0262 132.221 82.0262L139.186 71.3671L131.397 66.9357L139.034 52.9961C133.914 50.1362 127.998 46.6223 123.744 44.3188C122.092 47.3977 119.323 52.6149 119.139 53.0673C118.298 52.6704 111.287 49.3096 111.287 49.3096L99.8594 66.9533C99.8334 66.7938 105.216 69.6797 115.711 74.8494Z" fill="#80C86A"/>
<path d="M65.2999 152.655C73.1012 154.525 159.175 120.165 177.492 109.375C179.456 108.21 180.614 107.383 180.868 106.833C181.168 106.026 181.652 104.767 181.917 103.225C184.15 93.6676 186.578 72.1036 182.013 67.8872C176.652 63.0168 103.134 13.233 92.7805 13.1499C88.2958 13.1245 81.2227 15.7189 74.2354 19.3675C65.258 24.0219 56.6629 30.4919 54.7454 35.1128C54.0508 36.665 53.78 41.3441 53.6547 47.9724C53.1379 78.6145 58.2167 150.961 65.2999 152.655ZM161.209 83.5024L170.944 71.3412C177.174 75.1994 170.415 93.9819 167.581 101.44C164.748 108.899 130.92 119.147 130.92 119.147L124.339 121.058C128.316 115.334 151.067 77.8454 151.067 77.8454L161.209 83.5024ZM73.0872 81.0065C73.0872 81.0065 66.7707 45.9758 68.1184 41.5601C69.8018 35.5043 90.8182 28.5899 90.8182 28.5899C90.8182 28.5899 91.9211 29.0128 94.2233 29.9203L88.7184 37.3758L98.9049 42.7758C98.9049 42.7758 84.4636 66.7592 75.0304 81.8262C74.2577 82.9001 73.225 82.3796 73.0872 81.0065ZM112.741 49.9487C112.741 49.9487 119.681 53.4066 120.591 53.7058C120.872 53.3153 123.544 48.0371 125.196 44.9586C129.449 47.2618 134.087 49.8122 139.206 52.6716L131.571 66.6092L139.359 71.0399L132.394 81.6974C132.394 81.6974 121.602 77.3355 115.887 74.5217C105.297 69.291 101.851 66.6493 101.851 66.6493L112.741 49.9487ZM78.4186 103.129C79.3058 101.7 93.4894 79.8353 93.4894 79.8353C93.4894 79.8353 102.001 81.3049 124.358 94.2359L107.066 120.813L100.318 117.479C99.7563 118.26 91.2051 129.754 90.6874 130.278L70.7871 135.054L72.1797 119.819C72.1797 119.819 73.5974 120.587 76.7032 122.724L87.2732 108.816C87.3694 108.877 78.2781 103.324 78.4186 103.129Z" fill="#34562A"/>
</svg>
