<svg width="500" height="409" viewBox="0 0 500 409" fill="none" xmlns="http://www.w3.org/2000/svg">
<path d="M175.836 120.013C175.836 120.013 140.876 81.3015 143.399 69.3806C145.922 57.4597 152.773 27.7092 164.269 27.0756L166.928 50.191L185.107 49.8065C185.107 49.8065 185.358 119.519 185.799 129.785L175.836 120.013Z" fill="#80C86A"/>
<path d="M246.369 161.38C252.242 160.602 254.537 162.965 254.537 162.965L241.936 186.051L218.949 164.772C218.884 163.694 216.681 142.021 216.416 140.597L206.013 140.614L204.643 91.0986C244.94 90.0391 259.932 94.7468 259.932 94.7468C259.932 94.7468 260.317 133.869 260.29 136.396C260.301 136.576 243.944 139.001 243.944 139.001L246.369 161.38Z" fill="#80C86A"/>
<path d="M296.891 41.2355L295.879 27.4148C299.852 27.8542 304.048 28.9994 304.048 28.9994C304.048 28.9994 325.784 53.2556 323.109 62.4668C321.009 69.2917 283.596 112.365 283.596 112.365C282.275 114.263 278.004 111.86 277.874 109.704C277.879 83.0013 279.108 40.8753 279.108 40.8753L296.891 41.2355Z" fill="#80C86A"/>
<path d="M232.885 71.2522C223.234 70.8614 205.289 68.9054 205.289 68.9054L205.036 49.8804L218.926 49.6101L220.523 25.7826C229.609 25.6746 240.281 25.2741 247.769 25.2799C247.371 30.5181 246.655 39.3719 246.521 40.1001C247.952 40.1778 259.931 40.7621 259.931 40.7621L260.217 72.1806C260.383 71.9891 250.932 71.9434 232.885 71.2522Z" fill="#80C86A"/>
<path d="M234.762 210.934C222.985 207.818 138.821 100.957 123.807 73.6331C122.203 70.6923 121.375 68.7746 121.499 67.8674C121.779 66.5896 122.193 64.5835 123.129 62.3605C128.161 48.1661 142.932 18.0048 152.423 15.7124C163.501 13.1274 301.266 0.09303 314.9 7.3892C320.796 10.5636 327.903 19.0428 334.02 28.8503C341.907 41.4071 347.781 56.0836 346.446 63.546C346.064 66.0889 342.523 72.4504 337.169 81.2769C312.336 122.037 245.453 213.767 234.762 210.934ZM166.679 51.1764L164.049 28.1828C152.675 28.8122 145.894 58.4051 143.397 70.263C140.899 82.1208 176.687 119.827 176.687 119.827L183.719 127.053C183.273 116.663 184.676 50.9743 184.676 50.9743L166.679 51.1764ZM284.209 110.92C284.209 110.92 321.648 69.2633 323.558 62.4787C326.394 53.2922 304.616 29.145 304.616 29.145C304.616 29.145 302.819 28.9134 299.048 28.463L300.053 42.228L282.212 42.0595C282.212 42.0595 281.165 84.0029 280.98 110.611C281.099 112.579 282.885 112.632 284.209 110.92ZM258.113 41.6174C258.113 41.6174 246.142 41.2111 244.7 40.9543C244.657 40.2386 245.551 31.37 245.949 26.1305C238.46 26.1241 230.26 26.1683 221.173 26.2757L219.573 50.1092L205.681 50.3786L205.933 69.4084C205.933 69.4084 223.704 71.3788 233.534 71.7577C251.762 72.4376 258.477 71.4209 258.477 71.4209L258.113 41.6174ZM258.806 136.267C258.833 133.75 258.454 94.7829 258.454 94.7829C258.454 94.7829 246.079 90.6317 206.023 91.6842L206.552 139.086L218.168 139.518C218.254 140.949 219.889 162.216 220.131 163.277L242.226 183.808L253.085 162.73C253.085 162.73 250.589 162.728 244.74 163.324L242.471 137.429C242.294 137.442 258.828 136.625 258.806 136.267Z" fill="#34562A"/>
<path d="M273.361 317.642C288.92 323.848 301.886 329.123 301.886 329.123L307.216 295.581L273.361 317.642Z" fill="#C6DC68"/>
<path d="M173.99 285.023C178.406 288.192 208.361 295.463 226.897 300.295C207.642 276.982 193.335 253.064 201.459 218.315C177.409 238.137 169.481 246.958 169.481 246.958C169.481 246.958 166.371 279.563 173.99 285.023Z" fill="#C6DC68"/>
<path d="M310.487 184.693C301.958 177.067 280.273 158.353 271.608 164.474C268.006 167.139 263.764 170.034 260.436 172.512C260.436 172.512 263.764 174.585 265.438 176.546L282.221 196.537C283.801 198.355 284.056 200.87 282.14 202.177L268.188 212.32C266.272 213.628 263.604 213.174 262.16 211.262L257.414 205.192C255.971 203.281 253.98 201.743 251.902 200.679C246.179 197.965 239.94 198.706 233.365 202.573C230.305 204.248 227.574 206.732 225.21 209.173C211.401 224.39 212.341 244.643 228.857 269.987C243.687 292.138 259.625 301.121 276.314 298.213C285.346 296.6 293.097 290.896 297.607 282.647C298.733 280.43 299.722 278.307 300.524 275.897C301.059 274.291 301.457 272.778 301.532 271.072C301.793 265.102 299.08 260.333 294.626 255.925C293.42 254.68 293.444 252.594 294.95 251.567L306.986 242.732C307.944 242.078 310.538 244.238 311.888 246.006C311.981 246.149 313.518 248.204 313.518 248.204L314.19 241.953C314.19 241.953 319.015 192.32 310.487 184.693Z" fill="#C6DC68"/>
<path d="M324.372 170.008C318.058 163.959 281.816 143.534 272.26 147.985C262.704 152.437 154.687 222.441 148.858 235.95C143.165 249.366 148.546 288.578 157.6 297.315C167.488 306.725 315.096 355.754 322.707 345.587C330.269 335.039 330.686 176.057 324.372 170.008ZM223.783 298.752C206.268 293.72 178.067 286.244 173.759 282.97C166.487 277.575 168.728 246.419 168.728 246.419C168.728 246.419 176.129 238.052 198.172 219.69C191.266 252.788 205.3 276.149 223.783 298.752ZM302.081 328.798C302.081 328.798 290.727 324.117 277.114 318.7L306.824 299.663L302.081 328.798ZM313.605 241.79L312.936 248.047C312.936 248.047 311.398 245.99 311.305 245.846C309.953 244.075 307.357 241.911 306.399 242.565L294.362 251.403C292.994 252.337 292.833 254.518 294.041 255.766C298.406 260.037 301.216 264.956 300.958 270.933C300.884 272.641 300.487 274.155 299.952 275.763C299.151 278.175 298.256 280.443 297.038 282.518C292.531 290.773 284.78 296.478 275.745 298.088C259.051 300.99 243.195 292.131 228.253 269.804C211.716 244.422 210.764 224.147 224.571 208.922C226.977 206.243 229.664 203.994 232.725 202.319C239.301 198.452 245.542 197.714 251.269 200.434C253.485 201.408 255.34 203.042 256.785 204.956L261.537 211.035C262.982 212.95 265.652 213.406 267.568 212.098L281.52 201.953C283.436 200.645 283.727 197.753 282.145 195.932L265.207 176.004C263.625 174.183 260.201 171.962 260.201 171.962C263.666 169.39 267.224 166.961 270.826 164.296C279.491 158.173 301.195 176.92 309.732 184.56C318.405 192.106 313.605 241.79 313.605 241.79Z" fill="#4C5524"/>
<path d="M112.436 277.524L147.377 259.21L106.625 243.124L112.436 277.524Z" fill="#96F1FE"/>
<path d="M232.33 154.111C222.416 147.473 176.208 130.632 176.208 130.632L166.519 156.054L138.498 142.935L110.699 223.59L166.457 242.904L178.927 213.392L194.495 220.281L191.783 238.983C191.783 238.983 238.046 215.906 239.298 203.509C240.483 191.282 242.243 160.75 232.33 154.111Z" fill="#96F1FE"/>
<path d="M95.4611 124.121L100.211 109.112C100.211 109.112 70.3449 124.897 70.5838 134.798C71.0052 144.777 91.1107 199.072 96.7689 193.271C102.245 187.392 118.322 136.095 118.322 136.095L95.4611 124.121Z" fill="#96F1FE"/>
<path d="M256.884 206.137C257.418 202.029 256.356 190.436 254.216 178.753C252.647 170.148 250.379 161.429 247.779 155.207C246.143 151.479 244.377 148.638 242.409 147.408C232.889 141.395 109.355 84.4599 94.8184 86.8394C93.8425 86.9826 92.8084 87.2892 91.7744 87.5958C88.6142 88.6792 84.7267 90.7682 80.8833 93.2537C67.0389 102.538 51.6004 119.433 50.664 128.839C50.3619 132.293 52.9389 143.788 57.3563 159.477C67.6386 195.633 87.3133 253.786 101.1 283.724C106.43 295.28 110.999 302.732 113.752 302.794C115.909 302.973 121.806 300.435 129.639 296.093C156.91 281.307 209.885 245.206 238.036 223.253C249.536 214.84 256.667 208.307 256.884 206.137ZM93.9868 189.693C88.9816 195.449 72.3021 145.01 72.1604 135.514C72.0186 126.018 98.6037 110.557 98.6037 110.557L92.8503 124.668L113.928 135.124C113.826 134.891 98.9339 184.101 93.9868 189.693ZM114.654 275.258L107.785 243.034L148.916 259.539L114.654 275.258ZM192.16 236.769L194.281 218.819L179.414 212.753L168.331 241.348L115.209 224.741L139.568 146.802L166.344 158.406L174.897 133.81C174.897 133.81 218.97 149.326 228.432 155.502C237.952 161.515 237.037 189.61 236.147 201.49C235.315 213.205 192.16 236.769 192.16 236.769Z" fill="#1B8691"/>
<path d="M296.496 116.265C280.77 123.518 274.763 127.246 274.763 127.246C274.763 127.246 260.352 159.749 266.415 167.281C271.099 172.882 317.094 195.537 328.662 202.472C330.628 203.645 341.36 210.497 341.36 210.497L318.695 126.943L300.942 134.892L296.496 116.265Z" fill="#FDBAD1"/>
<path d="M385.815 239.321L402.959 206.755L404.39 203.418L361.19 178.765L385.815 239.321Z" fill="#FDBAD1"/>
<path d="M407.21 74.3239L410.586 85.8753L404.122 88.9857L364.14 167.574L411.423 184.479L425.141 159.62C425.141 159.62 446.926 112.555 440.788 103.192C434.961 94.2515 418.108 72.1577 407.21 74.3239Z" fill="#FDBAD1"/>
<path d="M366.259 106.651L361.433 88.8302C354.306 91.6609 347.721 94.3053 341.497 96.8256L347.227 114.336L336.921 119.214L354.776 166.551L373.956 103.051L366.259 106.651Z" fill="#FDBAD1"/>
<path d="M456.934 93.369C455.174 90.466 449.509 84.1716 442.592 77.9578C435.628 71.5846 427.413 65.2918 420.791 61.9592C417.397 60.3213 414.402 59.4235 412.157 59.8463C401.263 61.8463 271.81 103.304 261.704 114.858C261.016 115.622 260.494 116.328 259.899 117.41C256.501 122.617 253.492 131.024 251.331 139.84C248.037 154.135 247.077 169.556 250.689 175.681C252.003 177.684 257.322 182.168 265.397 187.983C293.815 208.544 354.893 246.099 383.842 257.879C391.504 261.029 396.977 262.301 398.777 260.979C400.292 259.93 402.48 256.193 405.03 250.577C418.175 223.236 443.218 150.56 453 114.201C456.376 102.685 457.942 94.9514 456.934 93.369ZM337.061 206.273C337.061 206.273 327.759 200.004 325.969 198.866C315.865 192.347 275.643 171.292 271.555 166.033C266.081 159.146 278.291 129.846 278.291 129.846C278.291 129.846 283.546 126.632 296.938 120.086L296.984 120.245L301.425 137.314L316.684 130.3L337.061 206.273ZM338.973 119.285L348.082 114.917L343.067 99.6253C348.436 97.4239 354.302 95.0513 360.499 92.5647L364.733 108.301L371.452 105.108L354.813 161.026L338.973 119.285ZM402.049 205.457L385.2 237.584L361.003 177.843L403.502 202.324L402.049 205.457ZM423.251 159.547L411.864 184.177L366.029 166.986L404.267 89.5872L410.49 86.5653L407.136 75.0876C417.652 73.0423 432.274 95.0246 438.142 103.881C443.937 113.114 423.251 159.547 423.251 159.547Z" fill="#D01878"/>
</svg>
