<svg width="368" height="275" viewBox="0 0 368 275" fill="none" xmlns="http://www.w3.org/2000/svg">
<path d="M154.781 241.19C176.863 257.894 195.228 271.977 195.228 271.977L215.739 221.296L154.781 241.19Z" fill="#C6DC68"/>
<path d="M10.5688 140.253C16.0438 147.087 57.6847 171.718 83.3455 187.467C62.4773 143.163 49.0589 100.168 71.9723 50.7575C30.4206 70.1779 16.0002 80.0721 16.0002 80.0721C16.0002 80.0721 1.12048 128.474 10.5688 140.253Z" fill="#C6DC68"/>
<path d="M260.175 44.4663C249.56 28.5675 222.323 -10.783 206.487 -4.92085C199.861 -2.29234 192.144 0.416948 186.016 2.87066C186.016 2.87066 190.487 7.64148 192.401 11.4987L211.476 50.6957C213.295 54.2841 212.779 58.3902 209.294 59.6138L183.691 69.5094C180.206 70.733 176.181 68.8249 174.611 65.1491L169.368 53.4027C167.798 49.7269 165.232 46.4007 162.357 43.7869C154.359 36.9333 144.291 35.3351 132.558 38.549C127.142 39.8467 121.949 42.5758 117.348 45.399C90.1216 63.4129 84.2213 95.9802 100.926 143.558C116.147 185.316 137.902 206.663 165.17 209.469C179.94 210.925 194.189 205.319 204.275 194.229C206.85 191.211 209.176 188.281 211.314 184.813C212.739 182.501 213.915 180.276 214.653 177.601C217.238 168.24 214.716 159.463 209.327 150.486C207.885 147.972 208.684 144.673 211.422 143.711L233.541 135.039C235.283 134.427 238.57 139.01 240.046 142.417C240.14 142.686 241.804 146.631 241.804 146.631L245.136 137.007C245.136 137.007 270.79 60.3651 260.175 44.4663Z" fill="#C6DC68"/>
<path d="M288.215 27.9728C280.509 15.5816 231.061 -32.8787 214.436 -30.0607C197.81 -27.2428 2.70679 35.8259 -11.3713 54.658C-25.2004 73.4027 -31.053 137.959 -20.0261 155.826C-7.93524 175.132 205.914 318.347 221.571 305.604C237.288 292.235 295.921 40.364 288.215 27.9728ZM83.3502 187.466C57.6894 171.717 16.1429 147.354 10.5735 140.252C1.12516 128.472 16.0049 80.0706 16.0049 80.0706C16.0049 80.0706 30.6741 70.089 71.9769 50.756C49.0636 100.167 62.5764 143.43 83.3502 187.466ZM195.312 269.835C195.312 269.835 179.195 257.378 159.799 242.75L213.384 225.747L195.312 269.835ZM245.134 137.002L241.802 146.626C241.802 146.626 240.138 142.681 240.043 142.412C238.568 139.005 235.281 134.423 233.539 135.034L211.42 143.706C208.93 144.58 207.883 147.968 209.325 150.481C214.619 159.19 217.236 168.235 214.651 177.596C213.913 180.271 212.737 182.496 211.312 184.808C209.174 188.276 206.942 191.475 204.273 194.224C194.187 205.314 179.938 210.92 165.168 209.464C137.9 206.658 116.24 185.58 100.924 143.553C84.2193 95.9753 90.1195 63.408 117.346 45.394C122.102 42.2147 127.14 39.8418 132.556 38.544C144.289 35.3302 154.356 36.9283 162.355 43.782C165.479 46.3084 167.796 49.722 169.366 53.3978L174.609 65.1442C176.179 68.82 180.204 70.728 183.689 69.5045L209.292 59.6089C212.777 58.3853 214.288 53.9296 212.469 50.3412L193.145 11.2316C191.326 7.64316 186.761 2.60353 186.761 2.60353C193.138 0.0624209 199.61 -2.20989 206.236 -4.83839C222.072 -10.7006 249.309 28.6499 259.924 44.5488C270.788 60.3602 245.134 137.002 245.134 137.002Z" fill="#4C5524"/>
</svg>
