<svg width="150" height="135" viewBox="0 0 150 135" fill="none" xmlns="http://www.w3.org/2000/svg">
<path d="M117.444 60.222H131.75C135.544 60.222 139.183 61.7292 141.866 64.412C144.548 67.0948 146.056 70.7335 146.056 74.5276V117.444C146.056 121.238 144.548 124.877 141.866 127.56C139.183 130.243 135.544 131.75 131.75 131.75H17.3056C13.5115 131.75 9.87281 130.243 7.19 127.56C4.50719 124.877 3 121.238 3 117.444V53.0692C3 49.2752 4.50719 45.6365 7.19 42.9537C9.87281 40.2709 13.5115 38.7637 17.3056 38.7637H31.6111" fill="#BBDADD"/>
<path d="M117.444 60.222H131.75C135.544 60.222 139.183 61.7292 141.866 64.412C144.548 67.0948 146.056 70.7335 146.056 74.5276V117.444C146.056 121.238 144.548 124.877 141.866 127.56C139.183 130.243 135.544 131.75 131.75 131.75H17.3056C13.5115 131.75 9.87281 130.243 7.19 127.56C4.50719 124.877 3 121.238 3 117.444V53.0692C3 49.2752 4.50719 45.6365 7.19 42.9537C9.87281 40.2709 13.5115 38.7637 17.3056 38.7637H31.6111" stroke="#1B8691" stroke-width="6" stroke-linecap="round" stroke-linejoin="round"/>
<path d="M117.001 129V17C117.001 13.287 115.508 9.72601 112.852 7.1005C110.195 4.475 106.591 3 102.834 3H46.1675C42.4103 3 38.8069 4.475 36.1502 7.1005C33.4934 9.72601 32.0009 13.287 32.0009 17V129" fill="#BBDADD"/>
<path d="M117.001 129V17C117.001 13.287 115.508 9.72601 112.852 7.1005C110.195 4.475 106.591 3 102.834 3H46.1675C42.4103 3 38.8069 4.475 36.1502 7.1005C33.4934 9.72601 32.0009 13.287 32.0009 17V129" stroke="#1B8691" stroke-width="6" stroke-linecap="round" stroke-linejoin="round"/>
<path d="M88.8333 45.9165H60.2222H88.8333Z" fill="#1B8691"/>
<path d="M88.8333 45.9165H60.2222" stroke="#1B8691" stroke-width="6" stroke-linecap="round" stroke-linejoin="round"/>
<path d="M74.5277 31.6113V60.2224V31.6113Z" fill="#1B8691"/>
<path d="M74.5277 31.6113V60.2224" stroke="#1B8691" stroke-width="6" stroke-linecap="round" stroke-linejoin="round"/>
<path d="M89.0009 129V109.2C89.0009 105.699 87.4732 102.342 84.7539 99.8662C82.0346 97.3907 78.3465 96 74.5009 96C70.6552 96 66.9671 97.3907 64.2478 99.8662C61.5285 102.342 60.0009 105.699 60.0009 109.2V129" fill="#1B8691"/>
<path d="M89.0009 129V109.2C89.0009 105.699 87.4732 102.342 84.7539 99.8662C82.0346 97.3907 78.3465 96 74.5009 96C70.6552 96 66.9671 97.3907 64.2478 99.8662C61.5285 102.342 60.0009 105.699 60.0009 109.2V129" stroke="#1B8691" stroke-width="6" stroke-linecap="round" stroke-linejoin="round"/>
</svg>
