<svg width="170" height="141" viewBox="0 0 170 141" fill="none" xmlns="http://www.w3.org/2000/svg">
<path d="M153.845 57.8511H74.8861V78.097H153.845V57.8511Z" fill="#BBDADD"/>
<path d="M69.4871 80.7965V57.8511V57.5137H16.1729C14.5532 57.5137 14.1483 59.3133 14.1483 60.2131V88.22H153.845V83.8334H71.5117C69.8921 83.8334 69.4871 81.8088 69.4871 80.7965Z" fill="#BBDADD"/>
<path d="M55.6524 52.4522H61.0513L60.7139 6.64132H72.8615V18.0342H70.8369C69.4871 18.0342 69.1497 19.6088 69.1497 20.3962V35.5806C69.1497 36.9303 70.2745 37.2678 70.8369 37.2678H79.9475C81.0273 37.2678 81.2973 36.0312 81.2973 35.4129V20.3962C81.2973 18.5066 79.4976 18.0342 78.5978 18.0342V3.86202C78.5978 1.9724 76.5732 1.5 75.5609 1.5H40.8054C39.1858 1.5 38.5559 2.62477 38.4434 3.18716V11.623C38.4434 13.6475 39.7931 14.3224 41.4803 14.3224C43.3699 14.3224 43.8423 12.5228 43.8423 11.623V6.56148H55.6524V52.4522Z" fill="#BBDADD"/>
<path d="M153.845 57.8511H74.8861V78.097H153.845V57.8511Z" stroke="#1B8691" stroke-width="3" stroke-linejoin="round"/>
<path d="M69.4871 80.7965V57.8511V57.5137H16.1729C14.5532 57.5137 14.1483 59.3133 14.1483 60.2131V88.22H153.845V83.8334H71.5117C69.8921 83.8334 69.4871 81.8088 69.4871 80.7965Z" stroke="#1B8691" stroke-width="3" stroke-linejoin="round"/>
<path d="M55.6524 52.4522H61.0513L60.7139 6.64132H72.8615V18.0342H70.8369C69.4871 18.0342 69.1497 19.6088 69.1497 20.3962V35.5806C69.1497 36.9303 70.2745 37.2678 70.8369 37.2678H79.9475C81.0273 37.2678 81.2973 36.0312 81.2973 35.4129V20.3962C81.2973 18.5066 79.4976 18.0342 78.5978 18.0342V3.86202C78.5978 1.9724 76.5732 1.5 75.5609 1.5H40.8054C39.1858 1.5 38.5559 2.62477 38.4434 3.18716V11.623C38.4434 13.6475 39.7931 14.3224 41.4803 14.3224C43.3699 14.3224 43.8423 12.5228 43.8423 11.623V6.56148H55.6524V52.4522Z" stroke="#1B8691" stroke-width="3" stroke-linejoin="round"/>
<line x1="6.15831" y1="11.0204" x2="5.52043" y2="120.097" stroke="#1B8691" stroke-width="7" stroke-linecap="round"/>
<line x1="163.501" y1="40.0001" x2="163.5" y2="120.057" stroke="#1B8691" stroke-width="7" stroke-linecap="round"/>
<line x1="17.6483" y1="94.8459" x2="150.345" y2="94.8459" stroke="#1B8691" stroke-width="7" stroke-linecap="round"/>
<path d="M54.9782 124.326V103.068H60.7145V124.326H69.1503C73.4695 124.326 74.9992 127.7 75.2241 129.387V137.486C75.2241 138.835 73.6494 139.173 72.8621 139.173C70.7025 139.173 70.1626 138.048 70.1626 137.486V131.412C70.1626 130.062 68.8129 129.725 68.138 129.725H47.5547C45.3951 129.725 44.8552 130.85 44.8552 131.412V137.486C44.8552 138.565 43.2806 138.835 42.4932 138.835C40.8735 138.835 40.4686 137.936 40.4686 137.486V130.737C40.4686 125.608 44.2929 124.326 46.205 124.326H54.9782Z" fill="#BBDADD" stroke="#1B8691" stroke-width="2" stroke-linejoin="round"/>
<circle cx="5.73634" cy="133.236" r="4.73634" fill="#BBDADD" stroke="#1B8691" stroke-width="2"/>
<circle cx="163.736" cy="133.236" r="4.73634" fill="#BBDADD" stroke="#1B8691" stroke-width="2"/>
</svg>
