<svg width="148" height="134" viewBox="0 0 148 134" fill="none" xmlns="http://www.w3.org/2000/svg">
<path d="M34.8386 36.4884C27.3099 39.702 24.4662 41.414 24.4662 41.414C24.4662 41.414 18.4396 57.435 21.6904 61.4193C24.1951 64.3875 47.6957 77.1738 53.6475 81.0151C54.6593 81.6653 60.1952 85.4406 60.1952 85.4406L46.172 42.5298L37.6646 46.0371L34.8386 36.4884Z" fill="#FDBAD1"/>
<path d="M86.629 101.647L94.9328 84.8515L95.6087 83.1229L71.7058 69.1317L86.629 101.647Z" fill="#FDBAD1"/>
<path d="M94.5395 15.0625L96.7091 21.2957L93.3764 22.7725L74.6927 63.4582L100.365 73.738L106.844 60.8975C106.844 60.8975 116.885 36.473 113.319 31.3276C109.932 26.4151 100.259 14.2088 94.5395 15.0625Z" fill="#FDBAD1"/>
<path d="M72.2784 31.8303L69.3958 22.9668C65.8976 24.2076 62.6663 25.3683 59.6128 26.4755L62.9402 35.2056L57.9019 37.3855L68.0823 61.0362L76.0425 30.2236L72.2784 31.8303Z" fill="#FDBAD1"/>
<path d="M122.191 26.0876C121.138 24.4864 117.835 20.9721 113.845 17.4722C109.825 13.8855 105.117 10.3132 101.372 8.36895C99.455 7.41025 97.7787 6.85855 96.5538 7.03408C90.6085 7.85804 20.4691 27.16 15.2325 33.1385C14.8754 33.5331 14.6079 33.9008 14.3113 34.4689C12.5886 37.1897 11.172 41.6396 10.2347 46.3292C8.83104 53.9379 8.74539 62.2058 10.9115 65.5816C11.6933 66.689 14.7528 69.222 19.3699 72.534C35.6199 84.2425 70.3545 105.84 86.645 112.84C90.9572 114.71 94.0096 115.52 94.9635 114.851C95.7684 114.322 96.8664 112.363 98.1098 109.403C104.567 95.008 116.277 56.5163 120.622 37.196C122.151 31.083 122.792 26.9615 122.191 26.0876ZM59.3839 84.0187C59.3839 84.0187 54.0781 80.434 53.0591 79.7811C47.3043 76.0435 24.5354 63.7974 22.132 60.8761C18.9177 57.0477 24.803 41.5784 24.803 41.5784C24.803 41.5784 27.6063 39.9713 34.7973 36.7612L34.8276 36.848L37.7653 46.1263L45.9718 42.7076L59.3839 84.0187ZM57.9367 37.2997L62.8304 35.1618L59.6275 26.8256C62.5228 25.7659 65.6868 24.6257 69.0299 23.4318L71.8152 31.989L75.4258 30.4274L67.8651 60.104L57.9367 37.2997ZM95.1701 85.0786L86.8096 101.961L71.7589 69.2873L95.8808 83.4279L95.1701 85.0786ZM105.533 60.8872L99.9668 73.865L74.2166 63.5669L93.0614 22.8403L96.4034 21.3592L94.2254 15.1117C99.9614 14.2547 108.65 26.4091 112.138 31.3055C115.597 36.4024 105.533 60.8872 105.533 60.8872Z" fill="#D01878"/>
</svg>
