<svg width="345" height="275" viewBox="0 0 345 275" fill="none" xmlns="http://www.w3.org/2000/svg">
<path d="M51.0069 61.6911C31.7311 73.5617 24.4841 79.5611 24.4841 79.5611C24.4841 79.5611 9.96019 129.984 18.6449 141.203C25.3298 149.539 87.0354 181.912 102.704 191.946C105.367 193.643 119.954 203.591 119.954 203.591L80.7566 76.9233L58.9669 89.9595L51.0069 61.6911Z" fill="#FDBAD1"/>
<path d="M186.546 252.458L206.963 198.974L208.6 193.519L145.62 157.548L186.546 252.458Z" fill="#FDBAD1"/>
<path d="M195.893 -12.2216L201.851 5.98401L193.433 11.3549L148.391 139.217L214.677 163.167L230.38 122.653C230.38 122.653 254.418 46.218 244.963 31.6778C235.982 17.7908 210.452 -16.369 195.893 -12.2216Z" fill="#FDBAD1"/>
<path d="M141.526 40.9179L133.463 14.7455C124.487 19.494 116.197 23.9246 108.363 28.1432L117.569 53.7856L104.667 61.8205L132.627 130.965L151.166 34.9818L141.526 40.9179Z" fill="#FDBAD1"/>
<path d="M270.186 13.1372C267.418 8.63576 258.83 -0.974936 248.503 -10.3558C238.094 -19.9878 225.946 -29.39 216.342 -34.1861C211.427 -36.5318 207.149 -37.7261 204.06 -36.8685C189.066 -32.7897 12.7946 43.9773 -0.0708689 63.2755C-0.949041 64.5523 -1.60226 65.7245 -2.31602 67.5037C-6.49917 76.1067 -9.79532 89.7968 -11.8628 104.073C-14.9208 127.205 -14.6 151.949 -8.89786 161.454C-6.84718 164.553 1.0612 171.296 12.9627 179.944C54.8536 210.538 144.173 265.678 185.86 282.184C196.896 286.603 204.674 288.196 207.045 285.936C209.048 284.136 211.7 277.982 214.654 268.793C230.063 223.997 257.197 105.726 266.938 46.7776C270.412 28.0842 271.766 15.5869 270.186 13.1372ZM114.987 203.414C114.987 203.414 101.325 194.137 98.7029 192.461C83.8942 182.849 25.4688 152.419 19.1957 144.337C10.8113 133.763 24.7013 85.9109 24.7013 85.9109C24.7013 85.9109 31.6922 80.3441 49.6843 68.7926L49.7665 69.0438L57.8052 95.9878L78.354 83.5367L114.987 203.414ZM108.286 64.1167L120.533 56.3948L111.885 32.3396C119.144 28.3847 127.078 24.1159 135.462 19.6379L143.068 44.4675L152.105 38.8174L134.898 129.605L108.286 64.1167ZM205.632 196.861L185.569 249.61L145.351 156.005L207.324 191.733L205.632 196.861ZM230.289 121.713L217.044 162.029L151.199 138.233L196.248 11.341L204.61 6.00468L198.692 -12.0837C213.154 -16.2044 235.936 17.7768 245.082 31.4698C254.168 45.7698 230.289 121.713 230.289 121.713Z" fill="#D01878"/>
<path d="M270.186 13.1372C267.418 8.63576 258.83 -0.974936 248.503 -10.3558C238.094 -19.9878 225.946 -29.39 216.342 -34.1861C211.427 -36.5318 207.149 -37.7261 204.06 -36.8685C189.066 -32.7897 12.7946 43.9773 -0.0708689 63.2755C-0.949041 64.5523 -1.60226 65.7245 -2.31602 67.5037C-6.49917 76.1067 -9.79532 89.7968 -11.8628 104.073C-14.9208 127.205 -14.6 151.949 -8.89786 161.454C-6.84718 164.553 1.0612 171.296 12.9627 179.944C54.8536 210.538 144.173 265.678 185.86 282.184C196.896 286.603 204.674 288.196 207.045 285.936C209.048 284.136 211.7 277.982 214.654 268.793C230.063 223.997 257.197 105.726 266.938 46.7776C270.412 28.0842 271.766 15.5869 270.186 13.1372ZM114.987 203.414C114.987 203.414 101.325 194.137 98.7029 192.461C83.8942 182.849 25.4688 152.419 19.1957 144.337C10.8113 133.763 24.7013 85.9109 24.7013 85.9109C24.7013 85.9109 31.6922 80.3441 49.6843 68.7926L49.7665 69.0438L57.8052 95.9878L78.354 83.5367L114.987 203.414ZM108.286 64.1167L120.533 56.3948L111.885 32.3396C119.144 28.3847 127.078 24.1159 135.462 19.6379L143.068 44.4675L152.105 38.8174L134.898 129.605L108.286 64.1167ZM205.632 196.861L185.569 249.61L145.351 156.005L207.324 191.733L205.632 196.861ZM230.289 121.713L217.044 162.029L151.199 138.233L196.248 11.341L204.61 6.00468L198.692 -12.0837C213.154 -16.2044 235.936 17.7768 245.082 31.4698C254.168 45.7698 230.289 121.713 230.289 121.713Z" fill="#D01878"/>
</svg>
