<svg width="182" height="119" viewBox="0 0 182 119" fill="none" xmlns="http://www.w3.org/2000/svg">
<path d="M175.227 116.735H2V108.521H15.0091C13.9821 107.38 12.1334 103.865 12.955 98.9351C13.7767 94.0053 19.0031 92.3164 21.5137 92.0882L33.8381 67.097L46.8472 92.0882H56.4329V70.5205H70.469V106.809H79.7123C77.2474 99.4144 82.337 94.827 85.1898 93.4576C96.259 89.3495 118.877 80.8593 120.794 79.7638C122.711 78.6683 125.016 79.3073 125.929 79.7638L134.488 84.2143V69.8358H123.532L101.28 59.9078C96.6242 58.8123 96.3731 53.7456 96.8296 51.3492L82.4511 49.9798L85.1898 26.0156L107.1 29.0967L105.388 43.1329L128.668 52.7185L143.046 51.3492C144.301 49.0663 149.208 44.5005 158.794 44.5005C177.965 44.1581 176.938 68.4646 179.677 87.636C181.868 102.973 172.374 107.264 167.353 107.492H175.227V116.735Z" fill="#FDBAD1"/>
<path d="M56.4329 108.178V92.0882M56.4329 92.0882V70.5205H70.469V106.809H79.7123C77.2474 99.4144 82.337 94.827 85.1898 93.4576C96.259 89.3495 118.877 80.8593 120.794 79.7638C122.711 78.6683 125.016 79.3073 125.929 79.7638L134.488 84.2143V69.8358H123.532L101.28 59.9078C96.6242 58.8123 96.3731 53.7456 96.8296 51.3492L82.4511 49.9798L85.1898 26.0156L107.1 29.0967L105.388 43.1329L128.668 52.7185L143.046 51.3492C144.301 49.0663 149.208 44.5005 158.794 44.5005C177.965 44.1581 176.938 68.4646 179.677 87.636C181.868 102.973 172.374 107.264 167.353 107.492H175.227V116.735H2V108.521H15.0091C13.9821 107.38 12.1334 103.865 12.955 98.9351C13.7767 94.0053 19.0031 92.3164 21.5137 92.0882M56.4329 92.0882H46.8472M46.8472 92.0882L33.8381 67.097L21.5137 92.0882M46.8472 92.0882H34.1804M21.5137 92.0882H34.1804M21.5137 92.0882C24.5948 91.9741 31.0993 93.1837 32.4687 98.9351C33.8381 104.687 31.2134 107.95 29.7299 108.863M34.1804 92.0882V108.863" stroke="#D01878" stroke-width="4" stroke-linecap="round" stroke-linejoin="round"/>
<path d="M151.264 2C163.073 2 172.543 11.2764 172.543 22.5947C172.543 33.913 163.073 43.1895 151.264 43.1895C139.455 43.1894 129.984 33.913 129.984 22.5947C129.984 11.2765 139.455 2.00009 151.264 2Z" fill="#FDBAD1" stroke="#D01878" stroke-width="4" stroke-linecap="round" stroke-linejoin="round"/>
<path d="M145.784 106.13H102.648L123.874 97.9141L145.784 106.13Z" fill="#FFFDF9" stroke="#D01878" stroke-width="4" stroke-linecap="round" stroke-linejoin="round"/>
</svg>
