<svg width="696" height="581" viewBox="0 0 696 581" fill="none" xmlns="http://www.w3.org/2000/svg">
<path d="M344.755 503.054L430.089 420.998L291.038 423.735L344.755 503.054Z" fill="#96F1FE"/>
<path d="M557.16 44.5868C522.707 39.2844 377.036 50.6465 377.036 50.6465L377.127 127.097L285.717 126.551L294.142 365.634L468.854 349.349L472.13 259.158L522.493 258.439L534.778 309.479C534.778 309.479 638.364 195.933 628.709 162.747C619.051 130.07 591.614 49.8892 557.16 44.5868Z" fill="#96F1FE"/>
<path d="M129.214 117.981L127.837 73.6319C127.837 73.6319 64.4462 147.664 74.1465 173.206C84.3942 198.75 186.589 318.112 196.022 296.763C204.908 275.41 199.791 124.009 199.791 124.009L129.214 117.981Z" fill="#96F1FE"/>
<path d="M694.999 151.932C692.332 140.194 677.186 110.034 658.749 80.8725C645.193 59.3856 629.444 38.3953 615.295 24.5499C606.586 16.3432 598.409 10.6881 591.299 9.62629C556.846 4.3239 131.601 -7.38937 90.956 15.8125C88.21 17.3251 85.4611 19.3474 82.7121 21.3696C74.4621 27.946 65.0961 38.0834 56.2713 49.2433C24.8252 90.3384 -3.47061 153.878 3.48684 180.422C6.16583 190.121 25.7035 218.27 55.0388 255.65C122.948 341.68 241.472 476.429 313.337 541.586C341.104 566.725 362.362 581.633 370.591 578.624C377.172 576.624 392.033 562.952 410.768 542.168C476.333 470.696 596.063 311.886 656.823 220C682.218 183.965 696.605 158.058 694.999 151.932ZM194.932 295.22C186.046 316.573 84.3868 199.253 74.1391 173.708C63.8914 148.164 126.726 75.6569 126.726 75.6569L124.269 120.493L197.594 124.498C197.049 123.985 203.815 274.377 194.932 295.22ZM344.768 503.039L291.051 423.72L430.102 420.983L344.768 503.039ZM534.77 309.482L522.485 258.442L472.122 259.16L468.847 349.351L294.135 365.637L285.71 126.553L377.119 127.099L377.028 50.649C377.028 50.649 523.779 41.8417 558.229 47.6537C592.682 52.9561 619.044 130.073 628.698 163.259C638.356 195.935 534.77 309.482 534.77 309.482Z" fill="#1B8691"/>
</svg>
