<svg width="341" height="275" viewBox="0 0 341 275" fill="none" xmlns="http://www.w3.org/2000/svg">
<path d="M154.327 243.344L216.711 221.8L149.505 181.711L154.327 243.344Z" fill="#96F1FE"/>
<path d="M336.005 76.3474C323.68 65.1575 263.713 34.9953 263.713 34.9953L245.976 73.8293L210.132 51.0057L157.867 174.46L230.406 209.285L252.662 164.306L272.648 176.363L265.617 205.305C265.617 205.305 332.777 173.21 336.692 153.982C340.488 135.011 348.331 87.5374 336.005 76.3474Z" fill="#96F1FE"/>
<path d="M149.731 12.6193L158.876 -9.65134C158.876 -9.65134 106.3 4.06176 106.092 20.0692C106.194 36.2737 137.519 131.392 147.655 124.277C157.482 116.965 188.467 40.7882 188.467 40.7882L149.731 12.6193Z" fill="#96F1FE"/>
<path d="M365.175 167.494C366.554 161.525 366.837 144.138 365.618 126.392C364.732 113.323 362.881 99.9377 360.18 90.1798C358.453 84.3163 356.407 79.7386 353.831 77.5028C341.378 66.5969 176.566 -43.7002 155.782 -43.2381C154.389 -43.2317 152.889 -42.9955 151.39 -42.7593C146.785 -41.8208 141.005 -39.5467 135.226 -36.6763C114.358 -25.8471 90.086 -4.08529 87.3312 9.6425C86.3782 14.6926 88.2389 32.2523 92.0429 56.4085C100.953 112.1 119.69 202.332 134.474 249.557C140.193 267.787 145.47 279.781 149.328 280.451C152.33 281.171 161.002 278.655 172.67 273.877C213.239 257.728 293.177 215.437 336.081 188.865C353.522 178.831 364.539 170.662 365.175 167.494ZM138.873 108.853C130.961 116.32 115.251 38.1376 116.505 24.0498C117.759 9.96188 157.469 -7.32949 157.469 -7.32949L147.228 12.3498L175.236 32.2668C175.128 31.9004 146.678 101.616 138.873 108.853ZM154.809 239.877L150.092 190.726L205.342 223.82L154.809 239.877ZM269.571 199.215L275.298 173.089L255.343 160.979L235.397 200.977L163.32 165.207L209.464 54.9535L245.299 77.7703L261.079 43.1579C261.079 43.1579 320.613 75.4072 332.959 86.543C345.411 97.449 339.826 138.849 336.758 156.248C333.796 173.417 269.571 199.215 269.571 199.215Z" fill="#1B8691"/>
</svg>
