<svg width="207" height="191" viewBox="0 0 207 191" fill="none" xmlns="http://www.w3.org/2000/svg">
<path d="M79.3584 139.485L106.103 130.151L77.2643 117.521L79.3584 139.485Z" fill="#96F1FE"/>
<path d="M173.729 63.4507C167.28 59.0688 136.228 47.6917 136.228 47.6917L127.673 63.8818L109.048 55.118L83.9605 106.52L121.502 119.602L132.285 100.822L142.661 105.435L139.449 117.4C139.449 117.4 173.357 103.167 175.105 95.2297C176.795 87.3998 180.177 67.8327 173.729 63.4507Z" fill="#96F1FE"/>
<path d="M77.0624 37.7997L81.7267 28.3274C81.7267 28.3274 60.5904 37.9541 59.7143 44.2481C58.9492 50.5943 66.4114 85.3626 70.7086 81.7532C74.8949 78.0917 90.7336 45.7153 90.7336 45.7153L77.0624 37.7997Z" fill="#96F1FE"/>
<path d="M189.916 98.7005C190.688 95.9605 190.975 88.1348 190.477 80.2094C190.115 74.3723 189.249 68.4329 187.909 64.1591C187.048 61.5953 186.01 59.6226 184.674 58.7243C178.22 54.3381 92.5212 11.5874 81.5993 12.6553C80.8676 12.7158 80.0781 12.8841 79.2885 13.0523C76.862 13.6647 73.8073 14.926 70.7486 16.4553C59.6999 22.186 46.7759 32.9712 45.2192 39.2551C44.6783 41.5642 45.5157 49.3793 47.3212 60.0786C51.5575 84.7398 60.6805 124.519 68.0699 145.131C70.9288 153.088 73.605 158.26 75.6266 158.402C77.1976 158.601 81.7736 157.111 87.9408 154.481C109.381 145.544 151.712 123.228 174.462 109.51C183.704 104.278 189.556 100.151 189.916 98.7005ZM71.5034 81.7111C67.2877 85.3946 59.6587 50.9064 60.4299 44.5228C61.2011 38.1393 82.1993 28.7243 82.1993 28.7243L76.6624 37.9928L91.2165 45.7852C91.1627 45.6249 75.6612 78.1353 71.5034 81.7111ZM78.8293 139.939L76.7435 118.044L105.504 130.631L78.8293 139.939ZM139.44 116.914L142.657 104.935L132.271 100.318L121.474 119.12L83.896 106.027L109.016 54.5648L127.659 63.3365L136.224 47.1272C136.224 47.1272 167.241 59.1573 173.638 63.6512C180.092 68.0374 176.828 86.8756 175.077 94.8224C173.385 102.661 139.44 116.914 139.44 116.914Z" fill="#1B8691"/>
</svg>
