<svg width="231" height="76" viewBox="0 0 231 76" fill="none" xmlns="http://www.w3.org/2000/svg">
<path d="M50.3507 5.16954C49.2701 4.82191 48.3496 4.67481 47.7261 4.88409C46.5678 5.25671 40.6795 8.0201 33.7505 11.492L21.628 17.7645C14.5482 21.5978 8.56091 25.1491 7.73392 26.5971C7.58129 26.8461 7.45179 27.1398 7.32228 27.4335C6.95691 28.3593 6.66464 29.6439 6.50743 30.972C6.41034 31.8724 6.33824 32.9298 6.28741 33.9195L56.1755 8.04953C54.1614 6.76812 52.0391 5.71272 50.3507 5.16954Z" fill="#D01878"/>
<path d="M18.2046 31.1756C18.3568 30.3817 18.5507 29.6685 18.7835 29.1394C18.8542 28.9496 18.9457 28.8001 19.0373 28.6506C20.4518 26.4885 41.729 16.041 43.5415 15.4097C43.9176 15.2661 44.4632 15.3414 45.1157 15.5145C46.1597 15.7915 47.4802 16.3852 48.6882 17.0881C49.3353 17.4683 49.938 17.8716 50.5199 18.2345L62.2428 12.1688C61.4108 11.3224 59.0444 9.6865 56.456 8.16552C56.3699 8.10792 56.2186 8.033 56.1325 7.9754L6.26574 33.7777C6.04661 36.2916 6.17458 38.9325 6.60339 40.9579L17.9266 35.099C17.8731 33.7987 17.9971 32.4066 18.2046 31.1756Z" fill="#FDBAD1"/>
<path d="M62.2638 12.2039C61.5533 12.5715 50.5409 18.2696 50.5409 18.2696C51.381 18.8053 52.0463 19.3294 52.2574 19.6287C52.4922 19.8648 52.428 21.4814 52.1254 23.8342C52.0729 24.1679 52.0648 24.4785 52.0122 24.8122C52.0122 24.8122 62.0659 19.7634 62.113 19.6369C62.5423 15.7883 62.6055 12.5378 62.2638 12.2039Z" fill="#FF6D3B"/>
<path d="M18.9041 38.8312C18.3068 38.2208 17.9949 36.7477 17.9287 35.0965L6.6054 40.9554C6.85743 42.2041 7.26894 43.217 7.80096 43.81C8.18434 44.2246 9.45768 44.9448 11.3183 45.8208L21.7979 40.3984C20.2399 39.6722 19.1596 39.1075 18.9041 38.8312Z" fill="#FF6D3B"/>
<path d="M23.3368 41.0838C22.7731 40.8647 22.2538 40.6227 21.7998 40.3979L11.3202 45.8203C12.3796 46.3447 13.6793 46.8981 15.065 47.5091C16.2785 48.0049 17.6642 48.6158 19.0291 49.1865L29.621 43.6549C27.3009 42.7613 25.1349 41.839 23.3368 41.0838Z" fill="#1B8691"/>
<path d="M50.7987 32.8017L61.0327 27.5575C61.4584 24.6812 61.8606 21.8682 62.1396 19.5787L52.0152 24.8172C51.6946 27.0262 51.2897 29.9428 50.7987 32.8017Z" fill="#1B8691"/>
<path d="M49.2922 40.8849L59.6802 35.6121C60.1685 32.8567 60.6831 29.9345 61.0563 27.3919L50.8431 32.6764C50.3548 35.4318 49.7959 38.377 49.2922 40.8849Z" fill="#96F1FE"/>
<path d="M29.618 43.6537L18.9608 49.1679C21.4531 50.1768 24.2716 51.2723 27.0693 52.3274L38.0165 46.612C35.3675 45.7353 32.4157 44.7088 29.618 43.6537Z" fill="#96F1FE"/>
<path d="M48.1443 45.6133C47.7329 47.103 47.356 48.1152 47.0633 48.4199C46.7262 48.7476 45.3061 48.6141 43.3041 48.1177C41.8242 47.7597 40.0207 47.2117 38.0214 46.6117L27.009 52.3098C29.7859 53.3247 32.6932 54.3741 35.4284 55.3084L58.1428 43.5043C58.6493 40.8928 59.1819 38.1144 59.6258 35.382L49.2794 40.7355C48.9017 42.6165 48.4849 44.3133 48.1443 45.6133Z" fill="#34562A"/>
<path d="M44.1091 58.0675L56.4328 51.6398C56.9991 49.2527 57.6205 46.4284 58.1795 43.4832L35.3553 55.293C38.4376 56.3541 41.4782 57.3346 44.1091 58.0675Z" fill="#80C86A"/>
<path d="M47.6969 59.0203C50.9831 59.8227 53.2542 60.0777 53.8604 59.5087C54.3099 59.0718 54.946 57.3636 55.601 54.9306C55.8891 53.9643 56.1591 52.8541 56.4318 51.6404L44.0428 58.0508C45.3687 58.4373 46.6085 58.7663 47.6969 59.0203Z" fill="#C6DC68"/>
<path d="M83.5489 45.8606C82.7089 45.8606 82.1022 45.744 81.7289 45.5106C81.3556 45.254 81.1222 44.9273 81.0289 44.5306C80.9589 44.1106 80.9239 43.6673 80.9239 43.2006V23.0406C80.9239 22.574 80.9706 22.1423 81.0639 21.7456C81.1572 21.349 81.3906 21.034 81.7639 20.8006C82.1372 20.544 82.7439 20.4156 83.5839 20.4156C84.4472 20.4156 85.0539 20.544 85.4039 20.8006C85.7772 21.0573 85.9989 21.384 86.0689 21.7806C86.1622 22.1773 86.2089 22.609 86.2089 23.0756V30.2156C86.6289 29.7723 87.1656 29.3523 87.8189 28.9556C88.4956 28.559 89.2889 28.3606 90.1989 28.3606C91.6456 28.3606 92.9406 28.734 94.0839 29.4806C95.2506 30.204 96.1722 31.2073 96.8489 32.4906C97.5489 33.774 97.8989 35.244 97.8989 36.9006V43.2356C97.8989 43.7023 97.8522 44.134 97.7589 44.5306C97.6656 44.9273 97.4439 45.254 97.0939 45.5106C96.7439 45.744 96.1256 45.8606 95.2389 45.8606C94.4222 45.8606 93.8156 45.744 93.4189 45.5106C93.0456 45.254 92.8122 44.9273 92.7189 44.5306C92.6489 44.1106 92.6139 43.6673 92.6139 43.2006V36.8656C92.6139 36.189 92.4972 35.6173 92.2639 35.1506C92.0306 34.6606 91.6806 34.2756 91.2139 33.9956C90.7706 33.7156 90.2222 33.5756 89.5689 33.5756C88.7056 33.5756 87.9472 33.844 87.2939 34.3806C86.6639 34.894 86.3022 35.524 86.2089 36.2706V43.2356C86.2089 43.7023 86.1622 44.134 86.0689 44.5306C85.9756 44.9273 85.7422 45.254 85.3689 45.5106C85.0189 45.744 84.4122 45.8606 83.5489 45.8606ZM112.124 46.1756C110.49 46.1756 109.079 45.9073 107.889 45.3706C106.722 44.834 105.765 44.134 105.019 43.2706C104.272 42.384 103.712 41.404 103.339 40.3306C102.989 39.2573 102.814 38.184 102.814 37.1106C102.814 35.3606 103.21 33.809 104.004 32.4556C104.797 31.1023 105.894 30.0406 107.294 29.2706C108.694 28.4773 110.304 28.0806 112.124 28.0806C113.477 28.0806 114.644 28.3023 115.624 28.7456C116.627 29.1656 117.444 29.7256 118.074 30.4256C118.727 31.1023 119.205 31.8373 119.509 32.6306C119.835 33.424 119.999 34.1823 119.999 34.9056C119.999 36.189 119.684 37.1456 119.054 37.7756C118.447 38.3823 117.665 38.6856 116.709 38.6856H108.379C108.425 39.2923 108.635 39.8056 109.009 40.2256C109.405 40.6456 109.895 40.9723 110.479 41.2056C111.062 41.439 111.68 41.5556 112.334 41.5556C112.894 41.5556 113.384 41.5323 113.804 41.4856C114.224 41.4156 114.585 41.334 114.889 41.2406C115.192 41.124 115.472 41.019 115.729 40.9256C115.985 40.809 116.207 40.7156 116.394 40.6456C116.604 40.5756 116.802 40.529 116.989 40.5056C117.339 40.4823 117.654 40.5873 117.934 40.8206C118.237 41.0306 118.505 41.3573 118.739 41.8006C118.902 42.0573 119.007 42.3023 119.054 42.5356C119.124 42.769 119.159 43.0023 119.159 43.2356C119.159 43.7956 118.867 44.2973 118.284 44.7406C117.724 45.184 116.919 45.534 115.869 45.7906C114.842 46.0473 113.594 46.1756 112.124 46.1756ZM108.379 35.8156H113.909C114.282 35.8156 114.55 35.7573 114.714 35.6406C114.9 35.5006 114.994 35.244 114.994 34.8706C114.994 34.4506 114.865 34.089 114.609 33.7856C114.352 33.459 114.002 33.214 113.559 33.0506C113.139 32.864 112.649 32.7706 112.089 32.7706C111.365 32.7706 110.724 32.9106 110.164 33.1906C109.604 33.4706 109.16 33.844 108.834 34.3106C108.53 34.7773 108.379 35.279 108.379 35.8156ZM131.963 45.8606C131.006 45.8606 130.154 45.8023 129.408 45.6856C128.684 45.5923 128.054 45.4056 127.518 45.1256C127.004 44.8456 126.584 44.4606 126.258 43.9706C125.931 43.4806 125.686 42.8506 125.523 42.0806C125.383 41.2873 125.313 40.319 125.313 39.1756V23.0056C125.313 22.539 125.348 22.1073 125.418 21.7106C125.511 21.314 125.744 20.9873 126.118 20.7306C126.491 20.474 127.098 20.3456 127.938 20.3456C128.778 20.3456 129.373 20.474 129.723 20.7306C130.096 20.9873 130.329 21.314 130.423 21.7106C130.516 22.1073 130.563 22.539 130.563 23.0056V38.9306C130.563 39.304 130.574 39.619 130.598 39.8756C130.644 40.109 130.714 40.2956 130.808 40.4356C130.924 40.5756 131.076 40.669 131.263 40.7156C131.449 40.7623 131.694 40.7856 131.998 40.7856C132.278 40.7856 132.558 40.8206 132.838 40.8906C133.141 40.9606 133.398 41.1706 133.608 41.5206C133.818 41.8706 133.923 42.454 133.923 43.2706C133.923 44.1106 133.818 44.7173 133.608 45.0906C133.398 45.464 133.141 45.6856 132.838 45.7556C132.558 45.8256 132.266 45.8606 131.963 45.8606ZM146.364 45.8606C145.174 45.8606 144.147 45.7323 143.284 45.4756C142.444 45.219 141.744 44.8223 141.184 44.2856C140.624 43.749 140.204 43.0723 139.924 42.2556C139.667 41.4156 139.539 40.424 139.539 39.2806V25.0706C139.539 24.604 139.574 24.184 139.644 23.8106C139.737 23.4373 139.97 23.134 140.344 22.9006C140.717 22.644 141.324 22.5156 142.164 22.5156C143.004 22.5156 143.61 22.644 143.984 22.9006C144.357 23.1573 144.579 23.484 144.649 23.8806C144.742 24.2773 144.789 24.709 144.789 25.1756V39.0706C144.789 39.444 144.812 39.759 144.859 40.0156C144.929 40.249 145.022 40.424 145.139 40.5406C145.255 40.6573 145.419 40.739 145.629 40.7856C145.839 40.8323 146.095 40.8556 146.399 40.8556C146.912 40.8556 147.367 40.9023 147.764 40.9956C148.16 41.089 148.464 41.299 148.674 41.6256C148.907 41.9523 149.024 42.5006 149.024 43.2706C149.024 44.1106 148.895 44.7173 148.639 45.0906C148.382 45.464 148.044 45.6856 147.624 45.7556C147.227 45.8256 146.807 45.8606 146.364 45.8606ZM138.454 28.6406H142.304L147.134 28.5006C147.577 28.5006 147.997 28.5473 148.394 28.6406C148.79 28.7106 149.117 28.9323 149.374 29.3056C149.63 29.679 149.759 30.2973 149.759 31.1606C149.759 31.954 149.63 32.5373 149.374 32.9106C149.14 33.284 148.825 33.529 148.429 33.6456C148.032 33.739 147.6 33.7856 147.134 33.7856L142.549 33.6806H138.314C137.637 33.6573 137.159 33.459 136.879 33.0856C136.622 32.689 136.494 32.0356 136.494 31.1256C136.494 30.2856 136.657 29.6673 136.984 29.2706C137.31 28.8506 137.8 28.6406 138.454 28.6406ZM163.438 46.1756C161.805 46.1756 160.393 45.9073 159.203 45.3706C158.037 44.834 157.08 44.134 156.333 43.2706C155.587 42.384 155.027 41.404 154.653 40.3306C154.303 39.2573 154.128 38.184 154.128 37.1106C154.128 35.3606 154.525 33.809 155.318 32.4556C156.112 31.1023 157.208 30.0406 158.608 29.2706C160.008 28.4773 161.618 28.0806 163.438 28.0806C164.792 28.0806 165.958 28.3023 166.938 28.7456C167.942 29.1656 168.758 29.7256 169.388 30.4256C170.042 31.1023 170.52 31.8373 170.823 32.6306C171.15 33.424 171.313 34.1823 171.313 34.9056C171.313 36.189 170.998 37.1456 170.368 37.7756C169.762 38.3823 168.98 38.6856 168.023 38.6856H159.693C159.74 39.2923 159.95 39.8056 160.323 40.2256C160.72 40.6456 161.21 40.9723 161.793 41.2056C162.377 41.439 162.995 41.5556 163.648 41.5556C164.208 41.5556 164.698 41.5323 165.118 41.4856C165.538 41.4156 165.9 41.334 166.203 41.2406C166.507 41.124 166.787 41.019 167.043 40.9256C167.3 40.809 167.522 40.7156 167.708 40.6456C167.918 40.5756 168.117 40.529 168.303 40.5056C168.653 40.4823 168.968 40.5873 169.248 40.8206C169.552 41.0306 169.82 41.3573 170.053 41.8006C170.217 42.0573 170.322 42.3023 170.368 42.5356C170.438 42.769 170.473 43.0023 170.473 43.2356C170.473 43.7956 170.182 44.2973 169.598 44.7406C169.038 45.184 168.233 45.534 167.183 45.7906C166.157 46.0473 164.908 46.1756 163.438 46.1756ZM159.693 35.8156H165.223C165.597 35.8156 165.865 35.7573 166.028 35.6406C166.215 35.5006 166.308 35.244 166.308 34.8706C166.308 34.4506 166.18 34.089 165.923 33.7856C165.667 33.459 165.317 33.214 164.873 33.0506C164.453 32.864 163.963 32.7706 163.403 32.7706C162.68 32.7706 162.038 32.9106 161.478 33.1906C160.918 33.4706 160.475 33.844 160.148 34.3106C159.845 34.7773 159.693 35.279 159.693 35.8156ZM179.182 45.8256C178.319 45.8256 177.7 45.709 177.327 45.4756C176.977 45.219 176.755 44.8923 176.662 44.4956C176.592 44.0756 176.557 43.644 176.557 43.2006V30.8806C176.557 30.4373 176.604 30.029 176.697 29.6556C176.79 29.259 177.012 28.944 177.362 28.7106C177.735 28.4773 178.354 28.3606 179.217 28.3606C179.964 28.3606 180.512 28.4656 180.862 28.6756C181.212 28.8623 181.434 29.0956 181.527 29.3756C181.644 29.6556 181.702 29.924 181.702 30.1806C181.702 30.414 181.725 30.5773 181.772 30.6706L181.562 31.3356C181.609 30.9856 181.784 30.6356 182.087 30.2856C182.414 29.9123 182.81 29.5856 183.277 29.3056C183.767 29.0023 184.28 28.769 184.817 28.6056C185.377 28.4423 185.925 28.3606 186.462 28.3606C187.582 28.3606 188.574 28.5706 189.437 28.9906C190.324 29.3873 191.07 29.9706 191.677 30.7406C192.284 31.5106 192.739 32.4206 193.042 33.4706C193.369 34.4973 193.532 35.629 193.532 36.8656V43.2356C193.532 43.679 193.485 44.1106 193.392 44.5306C193.322 44.9273 193.1 45.2423 192.727 45.4756C192.377 45.709 191.77 45.8256 190.907 45.8256C190.02 45.8256 189.39 45.709 189.017 45.4756C188.667 45.219 188.445 44.8923 188.352 44.4956C188.259 44.0756 188.212 43.644 188.212 43.2006V36.8656C188.212 36.1656 188.095 35.5706 187.862 35.0806C187.629 34.5906 187.279 34.2173 186.812 33.9606C186.345 33.6806 185.774 33.5406 185.097 33.5406C184.42 33.5406 183.837 33.6806 183.347 33.9606C182.857 34.2406 182.472 34.6256 182.192 35.1156C181.935 35.6056 181.807 36.189 181.807 36.8656V43.2356C181.807 43.679 181.76 44.1106 181.667 44.5306C181.597 44.9273 181.375 45.2423 181.002 45.4756C180.652 45.709 180.045 45.8256 179.182 45.8256ZM207.959 46.1756C206.325 46.1756 204.914 45.9073 203.724 45.3706C202.557 44.834 201.6 44.134 200.854 43.2706C200.107 42.384 199.547 41.404 199.174 40.3306C198.824 39.2573 198.649 38.184 198.649 37.1106C198.649 35.3606 199.045 33.809 199.839 32.4556C200.632 31.1023 201.729 30.0406 203.129 29.2706C204.529 28.4773 206.139 28.0806 207.959 28.0806C209.312 28.0806 210.479 28.3023 211.459 28.7456C212.462 29.1656 213.279 29.7256 213.909 30.4256C214.562 31.1023 215.04 31.8373 215.344 32.6306C215.67 33.424 215.834 34.1823 215.834 34.9056C215.834 36.189 215.519 37.1456 214.889 37.7756C214.282 38.3823 213.5 38.6856 212.544 38.6856H204.214C204.26 39.2923 204.47 39.8056 204.844 40.2256C205.24 40.6456 205.73 40.9723 206.314 41.2056C206.897 41.439 207.515 41.5556 208.169 41.5556C208.729 41.5556 209.219 41.5323 209.639 41.4856C210.059 41.4156 210.42 41.334 210.724 41.2406C211.027 41.124 211.307 41.019 211.564 40.9256C211.82 40.809 212.042 40.7156 212.229 40.6456C212.439 40.5756 212.637 40.529 212.824 40.5056C213.174 40.4823 213.489 40.5873 213.769 40.8206C214.072 41.0306 214.34 41.3573 214.574 41.8006C214.737 42.0573 214.842 42.3023 214.889 42.5356C214.959 42.769 214.994 43.0023 214.994 43.2356C214.994 43.7956 214.702 44.2973 214.119 44.7406C213.559 45.184 212.754 45.534 211.704 45.7906C210.677 46.0473 209.429 46.1756 207.959 46.1756ZM204.214 35.8156H209.744C210.117 35.8156 210.385 35.7573 210.549 35.6406C210.735 35.5006 210.829 35.244 210.829 34.8706C210.829 34.4506 210.7 34.089 210.444 33.7856C210.187 33.459 209.837 33.214 209.394 33.0506C208.974 32.864 208.484 32.7706 207.924 32.7706C207.2 32.7706 206.559 32.9106 205.999 33.1906C205.439 33.4706 204.995 33.844 204.669 34.3106C204.365 34.7773 204.214 35.279 204.214 35.8156Z" fill="#FF6D3B"/>
</svg>
