<svg width="80" height="76" viewBox="0 0 80 76" fill="none" xmlns="http://www.w3.org/2000/svg">
<path d="M50.3508 5.16954C49.2702 4.8219 48.3497 4.67481 47.7262 4.88409C46.568 5.25671 40.6797 8.0201 33.7506 11.492L21.6281 17.7645C14.5483 21.5978 8.56103 25.1491 7.73404 26.5971C7.58141 26.8461 7.45191 27.1398 7.32241 27.4335C6.95703 28.3593 6.66476 29.6439 6.50756 30.972C6.41047 31.8724 6.33836 32.9298 6.28753 33.9195L56.1756 8.04953C54.1615 6.76812 52.0392 5.71272 50.3508 5.16954Z" fill="#D01878"/>
<path d="M18.2047 31.1756C18.3569 30.3817 18.5508 29.6685 18.7837 29.1394C18.8543 28.9496 18.9459 28.8001 19.0374 28.6506C20.4519 26.4885 41.7291 16.041 43.5416 15.4097C43.9177 15.2661 44.4633 15.3414 45.1158 15.5145C46.1598 15.7915 47.4803 16.3852 48.6884 17.0881C49.3355 17.4683 49.9382 17.8716 50.52 18.2345L62.2429 12.1688C61.4109 11.3224 59.0445 9.6865 56.4562 8.16552C56.3701 8.10791 56.2187 8.033 56.1326 7.97539L6.26586 33.7777C6.04673 36.2916 6.1747 38.9325 6.60351 40.9579L17.9268 35.099C17.8732 33.7987 17.9973 32.4066 18.2047 31.1756Z" fill="#FDBAD1"/>
<path d="M62.2639 12.2039C61.5534 12.5715 50.541 18.2696 50.541 18.2696C51.3812 18.8053 52.0464 19.3294 52.2576 19.6287C52.4923 19.8648 52.4281 21.4814 52.1256 23.8342C52.073 24.1679 52.0649 24.4785 52.0123 24.8122C52.0123 24.8122 62.066 19.7634 62.1131 19.6369C62.5424 15.7883 62.6056 12.5378 62.2639 12.2039Z" fill="#FF6D3B"/>
<path d="M18.9042 38.8312C18.3069 38.2208 17.9951 36.7477 17.9288 35.0965L6.60552 40.9554C6.85755 42.2041 7.26907 43.217 7.80108 43.81C8.18446 44.2246 9.4578 44.9448 11.3184 45.8208L21.798 40.3984C20.2401 39.6722 19.1598 39.1075 18.9042 38.8312Z" fill="#FF6D3B"/>
<path d="M23.3369 41.0838C22.7732 40.8647 22.2539 40.6227 21.7999 40.3979L11.3203 45.8203C12.3798 46.3447 13.6794 46.8981 15.0651 47.5091C16.2786 48.0048 17.6643 48.6158 19.0292 49.1865L29.6211 43.6549C27.301 42.7613 25.135 41.839 23.3369 41.0838Z" fill="#1B8691"/>
<path d="M50.7988 32.8017L61.0328 27.5575C61.4585 24.6812 61.8607 21.8682 62.1397 19.5787L52.0153 24.8172C51.6947 27.0262 51.2898 29.9428 50.7988 32.8017Z" fill="#1B8691"/>
<path d="M49.2923 40.8849L59.6804 35.6121C60.1686 32.8567 60.6832 29.9345 61.0564 27.3919L50.8432 32.6764C50.355 35.4318 49.796 38.377 49.2923 40.8849Z" fill="#96F1FE"/>
<path d="M29.6181 43.6537L18.9609 49.1679C21.4532 50.1768 24.2718 51.2722 27.0695 52.3274L38.0166 46.612C35.3676 45.7353 32.4158 44.7088 29.6181 43.6537Z" fill="#96F1FE"/>
<path d="M48.1444 45.6132C47.733 47.103 47.3561 48.1152 47.0634 48.4199C46.7263 48.7476 45.3062 48.6141 43.3042 48.1176C41.8243 47.7597 40.0208 47.2117 38.0216 46.6117L27.0091 52.3098C29.786 53.3247 32.6933 54.3741 35.4285 55.3084L58.143 43.5043C58.6494 40.8928 59.1821 38.1144 59.6259 35.382L49.2796 40.7355C48.9018 42.6164 48.485 44.3133 48.1444 45.6132Z" fill="#34562A"/>
<path d="M44.1092 58.0675L56.4329 51.6398C56.9992 49.2527 57.6207 46.4284 58.1796 43.4832L35.3555 55.2929C38.4377 56.3541 41.4783 57.3346 44.1092 58.0675Z" fill="#80C86A"/>
<path d="M47.6971 59.0203C50.9832 59.8227 53.2543 60.0777 53.8606 59.5087C54.31 59.0718 54.9461 57.3636 55.6012 54.9306C55.8893 53.9642 56.1593 52.8541 56.432 51.6404L44.043 58.0508C45.3689 58.4373 46.6086 58.7663 47.6971 59.0203Z" fill="#C6DC68"/>
</svg>
