<svg width="120" height="30" viewBox="0 0 120 30" fill="none" xmlns="http://www.w3.org/2000/svg">
<path d="M2 28.0002C6.17784 28.0002 17.2127 27.5754 24.1925 25.4765C42.4837 19.9761 52.1288 9.73555 55.4456 4.60432C55.9882 3.76489 54.6962 2.72569 53.4023 2.28683C50.3993 1.26824 46.3245 3.12208 42.849 5.35937C40.3562 6.96405 39.0649 9.42045 38.1135 12.7778C37.5597 14.7319 37.7119 17.3806 38.1221 19.0216C39.432 24.2624 48.9775 24.4383 59.6415 24.2725C68.0039 24.1425 77.6066 17.8407 86.0735 13.0132C88.6457 11.5467 90.0772 9.73651 91.2189 7.78551C91.7767 6.83236 91.971 5.78993 91.6021 5.06479C90.7923 3.47265 87.9062 3.48525 85.461 3.78083C83.0294 4.07476 81.3776 6.13749 80.1386 7.90881C78.8819 9.70547 78.8555 12.9949 79.3189 16.6001C79.7114 19.6542 83.3877 21.343 88.5143 23.365C97.3065 26.8327 101.228 27.7477 118 28.0002" stroke="#1B8691" stroke-width="4" stroke-linecap="round"/>
</svg>
