<svg width="123" height="26" viewBox="0 0 123 26" fill="none" xmlns="http://www.w3.org/2000/svg">
<path d="M2 24C6.28589 24 17.6061 23.6406 24.7665 21.8646C43.5307 17.2105 53.4252 8.54534 56.8278 4.20352C57.3844 3.49324 56.059 2.61391 54.7317 2.24257C51.651 1.38069 47.4708 2.94932 43.9054 4.84242C41.3481 6.20022 40.0235 8.27871 39.0475 11.1195C38.4794 12.773 38.6355 15.0142 39.0563 16.4027C40.4001 20.8373 50.1924 20.9861 61.1322 20.8459C69.7109 20.7358 79.5619 15.4035 88.2478 11.3187C90.8865 10.0778 92.3551 8.54615 93.5263 6.8953C94.0985 6.08879 94.2978 5.20674 93.9194 4.59316C93.0886 3.24596 90.1279 3.25662 87.6195 3.50672C85.1249 3.75544 83.4305 5.50083 82.1594 6.99963C80.8702 8.51988 80.8431 11.3032 81.3185 14.3538C81.7212 16.9381 85.4925 18.367 90.7517 20.078C99.7713 23.0122 103.794 23.7864 121 24" stroke="#FF6D3B" stroke-width="4" stroke-linecap="round"/>
</svg>
