<svg width="99" height="27" viewBox="0 0 99 27" fill="none" xmlns="http://www.w3.org/2000/svg">
<path d="M2 25.0002C5.42151 25.0002 14.4587 24.6245 20.1749 22.7677C35.1548 17.9021 43.0537 8.8431 45.7701 4.30393C46.2145 3.56136 45.1564 2.64206 44.0967 2.25384C41.6373 1.35278 38.3002 2.99272 35.4539 4.97186C33.4124 6.39139 32.3549 8.56435 31.5757 11.5343C31.1222 13.263 31.2469 15.606 31.5827 17.0577C32.6555 21.6938 40.4729 21.8494 49.2064 21.7027C56.0549 21.5877 63.9192 16.013 70.8533 11.7426C72.9598 10.4452 74.1322 8.84394 75.0672 7.11806C75.524 6.27489 75.6831 5.35274 75.3811 4.71127C74.7178 3.30284 72.3542 3.31399 70.3517 3.57546C68.3602 3.83548 67.0076 5.6602 65.9928 7.22713C64.9636 8.81648 64.942 11.7263 65.3215 14.9156C65.643 17.6173 68.6537 19.1112 72.8522 20.8999C80.0527 23.9675 83.264 24.7769 97 25.0002" stroke="#FFFDF9" stroke-width="4" stroke-linecap="round"/>
</svg>
