<svg width="22" height="15" viewBox="0 0 22 15" fill="none" xmlns="http://www.w3.org/2000/svg">
<path d="M0.80306 5.70189C1.04726 5.981 1.36124 6.29999 1.69266 6.64556C1.9892 6.93796 2.30317 7.27024 2.63459 7.60252C3.2451 8.20062 4.62311 9.50315 4.62311 9.50315C4.62311 9.50315 6.05345 10.8057 6.73374 11.4038C7.51868 12.0949 8.30362 12.7462 8.9839 13.2911C9.33277 13.5702 9.66419 13.8228 9.96072 14.0354C10.8503 14.6867 11.5132 15.0588 11.7923 14.9924C12.0016 14.9392 12.4725 14.5804 13.0656 14.0354C13.3098 13.8228 13.5715 13.5702 13.8505 13.2911C14.4087 12.7462 15.0541 12.0949 15.6995 11.4038C16.2751 10.7924 16.9031 10.1544 17.4787 9.50315C18.0543 8.87846 18.6474 8.21391 19.1533 7.6291C19.7463 6.93796 20.322 6.26012 20.7755 5.70189C21.5081 4.77151 22.0488 3.96075 21.9965 3.81455C21.8744 3.48227 20.7929 1.92721 20.7755 1.90063C20.3568 1.36898 19.8684 0.863922 19.4324 0.531645C19.1533 0.318987 18.8916 0.172785 18.6649 0.146202C18.2462 0.0930378 15.9786 0.0265822 13.2575 0H8.51294C5.70459 0.0398733 3.26255 0.146202 2.77414 0.385442C2.68692 0.425316 2.59971 0.47848 2.51249 0.531645C2.25084 0.704429 1.95431 0.970251 1.69266 1.26266C1.51823 1.46202 1.3438 1.67468 1.16937 1.90063C1.16937 1.90063 0.314652 3.22974 0.122777 3.80126C0.000674568 4.16012 -0.0342118 4.47911 0.0355609 4.70505C0.0878904 4.86455 0.366981 5.2367 0.80306 5.70189ZM4.57078 3.80126C4.57078 3.78797 4.58823 3.77468 4.58823 3.76139C4.7801 3.41582 5.04175 3.07025 5.3034 2.77784C5.47783 2.59177 5.65226 2.43227 5.80925 2.32595C5.86158 2.28607 5.91391 2.25949 5.96624 2.23291C6.75118 1.86076 15.0367 2.00696 15.6995 2.0867C15.8391 2.1 15.9961 2.19303 16.1705 2.32595C16.4496 2.5386 16.7636 2.87088 17.0252 3.21645C17.1299 3.36265 17.3043 3.61518 17.3741 3.72151C17.3915 3.7348 17.3915 3.74809 17.3915 3.76139C17.3915 3.77468 17.409 3.77468 17.409 3.77468C17.409 3.78797 17.4264 3.80126 17.4264 3.81455C17.5834 4.05379 17.688 4.26645 17.7055 4.35949C17.7404 4.45252 17.4613 4.86455 16.9903 5.43607C16.9729 5.44936 16.9205 5.51581 16.8508 5.59556C16.8333 5.62214 16.7984 5.64872 16.781 5.67531C16.4147 6.11391 15.6472 7.031 15.1762 7.54935C15.1762 7.56264 15.1588 7.56264 15.1588 7.57594C14.5832 8.21391 13.9726 8.86517 13.4319 9.4234C13.4145 9.43669 13.4145 9.44998 13.397 9.44998C12.9784 9.8753 12.5772 10.2607 12.2632 10.5531C11.8969 10.8854 11.6178 11.0981 11.4783 11.138C11.3213 11.1778 10.9027 10.9519 10.3619 10.5531C9.96072 10.2607 9.48976 9.8753 8.96646 9.44998C8.94902 9.43669 8.94902 9.4234 8.93157 9.4234C8.25129 8.85188 7.51868 8.18733 6.83839 7.54935C6.28021 7.01771 5.12896 5.86138 4.95453 5.67531L4.93709 5.66201C4.57078 5.26328 4.32658 4.97088 4.29169 4.86455C4.20448 4.62531 4.34402 4.22657 4.57078 3.80126Z" fill="#FDF3E4"/>
</svg>
