<svg width="393" height="1201" viewBox="0 0 393 1201" fill="none" xmlns="http://www.w3.org/2000/svg">
<path d="M143.627 69.6186C67.5504 138.353 18.1771 98.258 3 69.6186V1200.32H396V92.7632C370.676 113.244 308.086 141.916 260.317 92.7632C212.548 43.61 162.62 56.853 143.627 69.6186Z" fill="#F8AD83"/>
<path d="M8.87102 70.3073L15.4495 50.4793C16.2027 48.2602 16.1674 46.8015 15.3434 46.1033L15.2748 46.0451L15.4687 45.8162L22.7927 52.0226L22.5987 52.2515L22.5072 52.1739C21.8053 51.5792 21.1589 51.3984 20.568 51.6317C19.99 51.8497 19.5368 52.4619 19.2084 53.4681L14.5546 67.2198L27.4708 60.4697C28.3273 60.0158 28.7611 59.4266 28.7722 58.702C28.8115 57.975 28.4321 57.2472 27.634 56.5184L27.8279 56.2895L32.291 60.0716L32.097 60.3004C31.7942 60.07 31.3803 59.9552 30.8553 59.956C30.3456 59.9697 29.7994 60.0574 29.2168 60.2191C28.6623 60.3784 28.1472 60.5841 27.6713 60.8363L9.09989 70.5013L8.87102 70.3073ZM19.6211 78.4238L19.7613 78.1586L19.7878 78.1726C20.4243 78.5092 21.0399 78.5859 21.6345 78.4026C22.2292 78.2194 22.6948 77.8095 23.0314 77.1731L27.6318 68.4747C27.9871 67.8028 28.1215 67.2065 28.035 66.6856C27.9662 66.1741 27.4897 65.6845 26.6058 65.217L26.746 64.9518L29.451 66.3824C30.3527 66.8593 31.0936 67.1267 31.6738 67.1847C32.2187 67.224 32.6543 67.1489 32.9807 66.9596L33.2459 67.0998L26.8502 79.1927C26.5136 79.8292 26.4369 80.4448 26.6202 81.0394C26.8034 81.6341 27.2133 82.0997 27.8498 82.4363L27.8763 82.4504L27.736 82.7156L19.6211 78.4238ZM32.1936 64.4052C31.5571 64.0686 31.1342 63.5848 30.925 62.9538C30.7427 62.3144 30.8199 61.6765 31.1565 61.04C31.4932 60.4035 31.9723 59.9895 32.594 59.7979C33.2427 59.598 33.8853 59.6664 34.5218 60.003C35.1406 60.3303 35.5411 60.8136 35.7233 61.4529C35.9232 62.1017 35.8595 62.7354 35.5323 63.3542C35.205 63.973 34.717 64.3823 34.0683 64.5822C33.4373 64.7915 32.8123 64.7325 32.1936 64.4052ZM38.2818 86.7082L38.3486 86.4157C39.0505 86.5761 39.6627 86.5005 40.1852 86.1891C40.7316 85.8626 41.0873 85.3386 41.2521 84.6172L45.0608 67.9468C45.2212 67.2449 45.1261 66.6282 44.7757 66.0968C44.4447 65.5699 43.9283 65.2262 43.2264 65.0658L43.2932 64.7734L46.2763 65.4549C47.2707 65.6821 48.0556 65.7486 48.6311 65.6544C49.1675 65.5513 49.5689 65.366 49.8351 65.0986L50.1276 65.1654L45.4636 85.5794C45.2988 86.3008 45.3818 86.925 45.7128 87.452C46.0677 87.9639 46.5961 88.3 47.298 88.4604L47.2312 88.7528L38.2818 86.7082ZM57.6997 89.6814C56.3203 89.6409 55.1008 89.265 54.0412 88.5536C53.0016 87.8428 52.1995 86.8788 51.635 85.6617C51.0711 84.4246 50.812 83.0264 50.8578 81.4671C50.9048 79.8678 51.2757 78.4781 51.9706 77.298C52.6656 76.1178 53.5925 75.2147 54.7514 74.5884C55.9308 73.9427 57.2502 73.6413 58.7096 73.6842C59.9291 73.72 61.0016 73.9916 61.9271 74.499C62.8726 75.0069 63.6123 75.7089 64.1462 76.605C64.7007 77.4816 65.0012 78.4909 65.0477 79.6328L65.0645 80.0834L54.9889 79.7876L54.9845 79.9375C54.9222 82.0566 55.3421 83.7697 56.2442 85.0767C57.1468 86.3638 58.3878 87.0305 59.9671 87.0769C60.9267 87.105 61.843 86.9018 62.7162 86.4673C63.6099 86.0133 64.3383 85.3944 64.9016 84.6106L65.1688 84.7085C64.799 85.7181 64.2429 86.6021 63.5003 87.3607C62.7577 88.1192 61.8902 88.704 60.8977 89.115C59.9052 89.5261 58.8392 89.7149 57.6997 89.6814ZM55.0321 79.3387L61.1194 79.5174C61.1658 77.9381 60.9435 76.651 60.4525 75.6562C59.9814 74.6619 59.2861 74.1513 58.3665 74.1243C57.4869 74.0985 56.7431 74.5568 56.1352 75.4994C55.5273 76.442 55.1596 77.7217 55.0321 79.3387ZM77.5751 94.5354C75.4929 94.9339 73.7491 94.9724 72.3436 94.6509C70.9615 94.3452 70.184 93.7406 70.011 92.837C69.8795 92.1494 70.0852 91.4686 70.6281 90.7946C71.1945 90.1364 72.0192 89.5509 73.1021 89.0382C71.1654 88.9202 70.0824 88.262 69.853 87.0638C69.729 86.4155 69.8697 85.7675 70.2752 85.1198C70.6769 84.4524 71.3074 83.8633 72.1667 83.3527C71.1018 83.1085 70.2154 82.6265 69.5075 81.9068C68.8193 81.1833 68.368 80.2617 68.1537 79.142C67.8417 77.5116 68.1515 76.0981 69.0832 74.9017C70.0346 73.7014 71.463 72.919 73.3684 72.5544C74.272 72.3814 75.1823 72.3498 76.0992 72.4594L81.5208 71.4218L81.3277 72.0085L77.3204 72.7754C78.1926 73.0769 78.9083 73.5712 79.4674 74.2583C80.0424 74.9221 80.4258 75.7548 80.6175 76.7567C80.9295 78.3871 80.6216 79.8103 79.6936 81.0264C78.7815 82.2191 77.363 82.9997 75.4379 83.3681C74.3772 83.5711 73.414 83.5925 72.5485 83.4324C71.9838 83.8866 71.7447 84.3396 71.8312 84.7914C71.9064 85.1843 72.2321 85.3969 72.8085 85.4291C73.0985 85.455 73.5045 85.4486 74.0265 85.4098C74.5485 85.371 75.1748 85.2918 75.9054 85.1724L76.948 85.034C79.222 84.6802 81.0432 84.7797 82.4114 85.3323C83.7993 85.8812 84.623 86.8334 84.8824 88.1888C85.1719 89.7013 84.6687 91.0092 83.373 92.1124C82.0811 93.2353 80.1484 94.043 77.5751 94.5354ZM75.3408 83.0202C75.9497 82.9036 76.3623 82.3461 76.5785 81.3477C76.7554 80.3568 76.6972 79.0952 76.404 77.563C76.107 76.0112 75.6952 74.8173 75.1687 73.9814C74.6263 73.1689 74.0506 72.8209 73.4417 72.9374C72.8131 73.0577 72.4066 73.5937 72.2222 74.5453C72.0415 75.5166 72.0997 76.7781 72.3967 78.3299C72.6937 79.8818 73.1073 81.0855 73.6376 81.9411C74.1641 82.777 74.7318 83.1367 75.3408 83.0202ZM77.8259 94.0904C78.7295 93.9174 79.5381 93.6201 80.2515 93.1985C80.9688 92.7965 81.5082 92.3166 81.8697 91.7587C82.251 91.197 82.3833 90.6117 82.2667 90.0028C82.1389 89.3349 81.6937 88.8703 80.931 88.609C80.1327 88.3749 78.9853 88.3908 77.4886 88.6569L76.446 88.7953C75.8726 88.8847 75.3347 88.9469 74.8324 88.982C74.3534 89.0329 73.9198 89.0548 73.5315 89.0477C73.1453 89.2641 72.8935 89.5974 72.776 90.0475C72.6585 90.4976 72.6543 91.0075 72.7633 91.5772C72.9588 92.5986 73.4978 93.3405 74.3805 93.8029C75.2631 94.2652 76.4116 94.361 77.8259 94.0904ZM93.9156 83.3366C92.6254 83.8261 91.3548 83.9445 90.1038 83.6918C88.8715 83.4321 87.762 82.8476 86.7754 81.9385C85.7816 81.0107 85.008 79.8175 84.4547 78.3589C83.8871 76.863 83.699 75.437 83.8904 74.0809C84.0818 72.7248 84.5934 71.536 85.4251 70.5146C86.2685 69.4673 87.3727 68.6847 88.7377 68.1668C89.8784 67.734 90.9733 67.5753 92.0224 67.6907C93.0903 67.7989 94.0421 68.1651 94.8778 68.7892C95.7252 69.3875 96.3884 70.2054 96.8676 71.2429L97.0553 71.653L87.6308 75.2287L87.684 75.3689C88.4361 77.3511 89.4785 78.7738 90.8115 79.6371C92.1373 80.4817 93.5388 80.6238 95.0161 80.0633C95.9137 79.7228 96.6829 79.1849 97.3238 78.4498C97.9763 77.6888 98.4131 76.8386 98.6342 75.8991L98.9186 75.8874C98.9625 76.9617 98.7862 77.9912 98.3897 78.9759C97.9932 79.9606 97.4149 80.8324 96.6547 81.5914C95.8945 82.3505 94.9815 82.9322 93.9156 83.3366ZM87.4992 74.7973L93.1932 72.637C92.6327 71.1598 91.9356 70.0552 91.1018 69.3234C90.2866 68.5845 89.449 68.3782 88.5888 68.7046C87.7661 69.0168 87.2538 69.7245 87.0521 70.8278C86.8503 71.9311 86.9994 73.2543 87.4992 74.7973ZM103.196 79.3026L103.054 79.0384L103.08 79.0242C103.714 78.6832 104.121 78.2147 104.3 77.6188C104.479 77.0229 104.398 76.4078 104.057 75.7737L99.3961 67.1076C99.0362 66.4383 98.6158 65.9944 98.135 65.7761C97.6719 65.5483 96.9999 65.6713 96.1192 66.1449L95.9771 65.8807L98.5928 64.4739C99.5264 63.9718 100.184 63.5048 100.564 63.0729C100.936 62.6234 101.138 62.1968 101.171 61.7931L101.303 61.7221L103.659 66.0409C103.604 65.3894 103.597 64.6782 103.636 63.9075C103.693 63.1273 103.891 62.3966 104.229 61.7154C104.574 61.0071 105.135 60.4446 105.91 60.0278C106.174 59.8857 106.47 59.7605 106.798 59.6523C107.126 59.5441 107.495 59.4704 107.905 59.4314L108.537 63.0768C107.714 63.0656 107.026 63.1174 106.475 63.2323C105.941 63.3377 105.498 63.4851 105.146 63.6746C104.547 63.9967 104.197 64.4232 104.097 64.9541C104.014 65.4756 104.004 66.0486 104.068 66.6731L107.862 73.7275C108.203 74.3616 108.671 74.7682 109.267 74.9473C109.863 75.1264 110.478 75.0454 111.112 74.7044L111.139 74.6902L111.281 74.9544L103.196 79.3026ZM123.957 67.2801L123.776 67.0413C124.333 66.6177 124.662 66.1915 124.763 65.7628C124.868 65.3061 124.821 64.8644 124.623 64.4377C124.44 63.9989 124.185 63.5646 123.858 63.1347L113.908 50.0476C113.472 49.4744 112.938 49.1519 112.306 49.0801C111.689 48.9961 111.094 49.172 110.521 49.6078L110.339 49.369L112.775 47.517C113.587 46.8996 114.142 46.34 114.438 45.838C114.703 45.3603 114.819 44.9335 114.784 44.5577L115.023 44.3762L121.922 53.4512C121.711 52.2805 121.837 51.1417 122.302 50.0346C122.755 48.9116 123.451 47.993 124.39 47.2789C125.138 46.71 125.908 46.4009 126.7 46.3517C127.48 46.2866 128.223 46.4377 128.929 46.8051C129.651 47.1604 130.285 47.6963 130.83 48.4127L135.768 54.9085C136.216 55.4976 136.748 55.8341 137.365 55.9181C137.985 55.974 138.582 55.7841 139.155 55.3483L139.337 55.5871L132.053 61.125L131.871 60.8862C132.445 60.4504 132.779 59.9322 132.875 59.3315C132.975 58.7029 132.801 58.094 132.353 57.5049L127.233 50.7703C126.967 50.4201 126.635 50.0822 126.236 49.7568C125.826 49.4155 125.385 49.1984 124.912 49.1055C124.443 48.9846 123.986 49.0936 123.54 49.4325C123.126 49.7472 122.825 50.1772 122.637 50.7224C122.452 51.2397 122.348 51.7963 122.324 52.3925C122.299 52.9887 122.323 53.5485 122.395 54.0721L127.297 60.5201C127.624 60.95 127.966 61.3177 128.324 61.6234C128.698 61.917 129.111 62.0803 129.563 62.1133C130.019 62.1183 130.526 61.909 131.083 61.4853L131.265 61.7241L123.957 67.2801ZM145.673 51.466L132.65 43.9509C132.215 43.701 131.772 43.5571 131.32 43.5191C130.884 43.4692 130.428 43.6092 129.95 43.9391L129.771 43.6984L136.513 38.6878L136.692 38.9286C136.178 39.4103 135.994 39.9335 136.139 40.4982C136.301 41.0509 136.763 41.5549 137.525 42.0102L144.317 45.97L142.568 38.4863C142.454 37.9978 142.266 37.5769 142.004 37.2238C141.705 36.8225 141.34 36.5829 140.909 36.505C140.477 36.4271 140.027 36.5251 139.557 36.7991L139.378 36.5583L143.183 33.7309L143.362 33.9717C143.016 34.3782 142.794 34.9172 142.695 35.5888C142.596 36.2604 142.644 37.0466 142.84 37.9475L145.89 51.3049L145.673 51.466ZM156.343 45.5651C155.055 46.0584 153.784 46.1806 152.533 45.9316C151.3 45.6754 150.188 45.0942 149.199 44.188C148.203 43.2631 147.426 42.0722 146.868 40.6153C146.296 39.121 146.104 37.6956 146.291 36.3389C146.478 34.9823 146.987 33.792 147.815 32.7681C148.656 31.7184 149.757 30.9325 151.121 30.4106C152.26 29.9745 153.355 29.8126 154.404 29.9248C155.472 30.0299 156.425 30.3933 157.263 31.015C158.112 31.6108 158.778 32.4268 159.26 33.4629L159.449 33.8724L150.035 37.4757L150.088 37.6158C150.846 39.5957 151.893 41.0154 153.228 41.8748C154.557 42.7155 155.959 42.8535 157.434 42.2887C158.331 41.9455 159.098 41.4054 159.737 40.6684C160.387 39.9055 160.822 39.054 161.04 38.1138L161.324 38.1013C161.372 39.1755 161.198 40.2055 160.805 41.1913C160.411 42.1772 159.835 43.0507 159.077 43.812C158.319 44.5732 157.408 45.1576 156.343 45.5651ZM149.902 37.0447L155.59 34.8677C155.025 33.3921 154.324 32.2897 153.488 31.5603C152.671 30.8238 151.833 30.62 150.974 30.9488C150.152 31.2634 149.642 31.9727 149.443 33.0766C149.245 34.1805 149.398 35.5032 149.902 37.0447ZM162.173 42.7582L162.122 42.4626L162.152 42.4575C162.861 42.335 163.395 42.0195 163.754 41.511C164.113 41.0026 164.231 40.3936 164.108 39.6841L162.434 29.9876C162.304 29.2387 162.046 28.6845 161.659 28.3251C161.292 27.9623 160.616 27.866 159.631 28.0362L159.58 27.7405L162.506 27.2351C163.551 27.0547 164.322 26.82 164.82 26.5311C165.315 26.2224 165.642 25.8818 165.801 25.5093L165.948 25.4838L166.815 30.3269C166.969 29.6914 167.187 29.0144 167.469 28.296C167.771 27.5742 168.19 26.9437 168.726 26.4046C169.278 25.8424 169.988 25.4864 170.855 25.3366C171.151 25.2856 171.471 25.2607 171.816 25.262C172.162 25.2632 172.535 25.3104 172.937 25.4034L172.381 29.0613C171.603 28.7896 170.935 28.6209 170.376 28.5552C169.836 28.486 169.369 28.4854 168.975 28.5535C168.305 28.6692 167.838 28.963 167.575 29.4347C167.331 29.903 167.14 30.4434 167.002 31.0558L168.365 38.9489C168.488 39.6584 168.803 40.1925 169.312 40.5512C169.82 40.9099 170.429 41.028 171.139 40.9055L171.168 40.9004L171.219 41.196L162.173 42.7582ZM189.154 41.238C187.781 41.1012 186.591 40.6409 185.583 39.8571C184.596 39.0754 183.863 38.0577 183.385 36.8041C182.909 35.5306 182.749 34.1177 182.903 32.5654C183.062 30.9733 183.529 29.6129 184.305 28.4843C185.081 27.3556 186.068 26.5195 187.268 25.9758C188.49 25.4142 189.827 25.2058 191.28 25.3505C192.494 25.4715 193.545 25.8174 194.433 26.3883C195.34 26.9611 196.029 27.7131 196.499 28.6443C196.991 29.5576 197.22 30.5854 197.187 31.7277L197.172 32.1785L187.142 31.1789L187.127 31.3281C186.917 33.4377 187.216 35.1759 188.024 36.5428C188.835 37.8898 190.026 38.6417 191.598 38.7984C192.553 38.8936 193.482 38.7549 194.383 38.3825C195.306 37.9921 196.076 37.4257 196.693 36.6832L196.953 36.7995C196.513 37.7808 195.897 38.6238 195.103 39.3285C194.309 40.0333 193.403 40.556 192.384 40.8966C191.365 41.2373 190.288 41.3511 189.154 41.238ZM187.216 30.7341L193.276 31.338C193.433 29.7658 193.301 28.4663 192.881 27.4396C192.48 26.4148 191.823 25.8568 190.907 25.7656C190.031 25.6783 189.257 26.0836 188.585 26.9813C187.913 27.8791 187.456 29.13 187.216 30.7341ZM195.555 41.321L195.644 41.0345L195.673 41.0434C196.36 41.2569 196.979 41.2189 197.53 40.9292C198.081 40.6395 198.463 40.1508 198.676 39.4632L201.595 30.066C201.82 29.3402 201.843 28.7293 201.662 28.2333C201.5 27.7432 200.941 27.3499 199.986 27.0533L200.075 26.7668L202.912 27.6477C203.886 27.9502 204.663 28.0765 205.244 28.0266C205.787 27.9648 206.201 27.8107 206.487 27.5645L206.774 27.6534L205.557 31.6733C206.362 30.8344 207.365 30.2665 208.567 29.9697C209.769 29.6729 210.934 29.6995 212.061 30.0495C213.341 30.4469 214.232 31.1845 214.735 32.2622C215.257 33.3458 215.305 34.5752 214.877 35.9504L212.457 43.7432C212.244 44.4308 212.282 45.05 212.571 45.6007C212.861 46.1514 213.35 46.5335 214.037 46.7471L214.066 46.756L213.977 47.0425L205.239 44.3285L205.328 44.042L205.356 44.0509C206.044 44.2645 206.663 44.2264 207.214 43.9367C207.764 43.647 208.147 43.1584 208.36 42.4708L210.869 34.3915C211.166 33.4365 211.212 32.6132 211.008 31.9215C210.823 31.2358 210.425 30.798 209.814 30.6082C209.222 30.4243 208.521 30.4894 207.712 30.8034C206.927 31.1042 206.163 31.6102 205.418 32.3214L202.802 40.7445C202.589 41.4321 202.627 42.0513 202.916 42.602C203.206 43.1527 203.695 43.5348 204.382 43.7484L204.411 43.7573L204.322 44.0438L195.555 41.321ZM219.031 50.3345C217.811 49.6901 216.882 48.815 216.244 47.7094C215.624 46.6131 215.33 45.3943 215.359 44.0529C215.399 42.6939 215.782 41.3247 216.511 39.9453C217.258 38.5305 218.204 37.4466 219.348 36.6937C220.492 35.9408 221.722 35.5388 223.038 35.4875C224.381 35.428 225.699 35.7391 226.99 36.4209C228.068 36.9906 228.911 37.7072 229.518 38.5706C230.143 39.4434 230.498 40.3996 230.582 41.4393C230.693 42.4706 230.518 43.509 230.056 44.5544L229.873 44.9663L220.959 40.259L220.889 40.3916C219.899 42.2662 219.521 43.989 219.754 45.5598C219.997 47.1129 220.817 48.2584 222.214 48.9963C223.063 49.4446 223.975 49.6662 224.95 49.6611C225.953 49.6476 226.879 49.4132 227.731 48.958L227.927 49.1637C227.15 49.9068 226.261 50.4551 225.26 50.8086C224.259 51.1621 223.223 51.3046 222.151 51.236C221.079 51.1674 220.039 50.8669 219.031 50.3345ZM221.196 39.8751L226.581 42.7191C227.319 41.3219 227.687 40.0687 227.685 38.9593C227.7 37.8592 227.301 37.0943 226.488 36.6647C225.709 36.2537 224.84 36.3373 223.879 36.9153C222.917 37.4933 222.023 38.4799 221.196 39.8751ZM230.472 57.2311C230.047 56.9307 229.74 56.689 229.551 56.5061C229.362 56.3232 229.187 56.138 229.026 55.9503C228.881 55.7742 228.665 55.5601 228.378 55.3079C228.091 55.0557 227.629 54.7042 226.992 54.2535L229.664 49.2343L229.982 49.4596C229.157 51.1789 228.826 52.6846 228.99 53.9766C229.165 55.2523 229.677 56.1906 230.525 56.7915C231.358 57.3809 232.108 57.6544 232.775 57.6121C233.458 57.5813 234.008 57.2721 234.424 56.6844C234.69 56.309 234.823 55.9132 234.824 55.497C234.852 55.0761 234.742 54.5569 234.493 53.9395C234.255 53.3058 233.895 52.4994 233.412 51.5203L232.979 50.6258C232.44 49.4842 232.186 48.4227 232.219 47.4415C232.28 46.4554 232.588 45.5706 233.143 44.7871C233.929 43.6771 234.947 43.087 236.197 43.0166C237.464 42.9578 238.775 43.408 240.13 44.3672C240.473 44.6099 240.739 44.8226 240.928 45.0055C241.117 45.1884 241.292 45.3737 241.453 45.5613C241.615 45.7489 241.83 45.9631 242.101 46.2038C242.372 46.4444 242.752 46.7381 243.242 47.0848L240.794 51.2696L240.5 51.0615C240.945 50.225 241.204 49.3916 241.278 48.5613C241.379 47.7262 241.316 46.9836 241.09 46.3335C240.876 45.6672 240.532 45.1664 240.059 44.8313C239.438 44.3922 238.825 44.2029 238.218 44.2636C237.628 44.3358 237.125 44.6658 236.709 45.2534C236.397 45.6941 236.247 46.2004 236.259 46.7723C236.298 47.3395 236.576 48.1241 237.092 49.1264L237.566 50.0137C238.293 51.4103 238.692 52.6118 238.763 53.6182C238.835 54.6246 238.518 55.6256 237.814 56.6214C236.011 59.1678 233.563 59.3711 230.472 57.2311ZM239.81 64.5473C239.023 63.867 238.596 63.0614 238.529 62.1305C238.461 61.1995 238.774 60.3332 239.467 59.5314L247.022 50.7949L245.093 49.1269L245.349 48.8319C246.458 49.659 247.676 50.1307 249.003 50.2471C250.345 50.3766 251.713 50.1711 253.106 49.6305L253.469 49.9445L250.643 53.2122L253.661 55.822L253.081 56.0342L250.29 53.6206L243.167 61.8579C242.12 63.0681 242.005 64.0265 242.822 64.7329C243.095 64.9684 243.477 65.1534 243.969 65.2878C244.476 65.4354 245.006 65.5104 245.559 65.5128L245.363 65.7397C244.314 65.9434 243.286 65.94 242.278 65.7295C241.283 65.5039 240.46 65.1098 239.81 64.5473ZM249.039 72.9279C248.038 71.9777 247.38 70.8842 247.065 69.6475C246.765 68.4245 246.81 67.1713 247.201 65.8879C247.606 64.5901 248.346 63.3755 249.42 62.2442C250.521 61.0839 251.725 60.2958 253.03 59.88C254.334 59.4642 255.627 59.4095 256.909 59.7158C258.218 60.0213 259.402 60.6768 260.461 61.682C261.346 62.522 261.964 63.4397 262.315 64.435C262.681 65.4441 262.763 66.4606 262.564 67.4843C262.392 68.5073 261.943 69.4598 261.216 70.3416L260.928 70.6886L253.618 63.7481L253.515 63.8568C252.055 65.3943 251.225 66.9507 251.026 68.5262C250.84 70.0872 251.32 71.4116 252.466 72.4995C253.162 73.1605 253.98 73.6203 254.92 73.8788C255.889 74.1367 256.845 74.1614 257.787 73.953L257.921 74.2042C256.972 74.7098 255.968 74.9976 254.909 75.0675C253.85 75.1374 252.813 74.9945 251.799 74.6388C250.786 74.2831 249.866 73.7128 249.039 72.9279ZM253.95 63.4424L258.366 67.6356C259.454 66.4898 260.147 65.3825 260.444 64.3138C260.756 63.2588 260.579 62.4146 259.912 61.7811C259.274 61.1752 258.414 61.0207 257.332 61.3175C256.25 61.6144 255.123 62.3226 253.95 63.4424ZM274.304 92.2116L276.34 88.4695C275.416 89.1472 274.37 89.5511 273.201 89.6815C272.041 89.7943 270.98 89.5844 270.018 89.0519C269.073 88.5291 268.389 87.7621 267.965 86.7508C267.542 85.7394 267.397 84.5965 267.531 83.3219C267.674 82.0299 268.109 80.7275 268.835 79.415C269.648 77.945 270.626 76.8175 271.769 76.0326C272.929 75.2573 274.159 74.8521 275.459 74.8167C276.768 74.7638 278.061 75.0908 279.339 75.7975C280.056 76.1945 280.58 76.6326 280.909 77.1118C281.248 77.5735 281.456 78.1685 281.533 78.8969L284.335 73.8305C284.684 73.2004 284.763 72.5816 284.574 71.9739C284.402 71.3759 284.001 70.9026 283.371 70.5541L283.516 70.2916L286.194 71.7729C287.069 72.2569 287.782 72.5373 288.334 72.614C288.886 72.6907 289.345 72.6248 289.712 72.4163L289.974 72.5616L279.838 90.8846C279.489 91.5146 279.401 92.1287 279.573 92.7267C279.745 93.3247 280.155 93.8028 280.802 94.161L280.657 94.4235L277.98 92.9422C277.21 92.5162 276.553 92.2561 276.011 92.1619C275.487 92.0774 275.005 92.1424 274.566 92.3568L274.304 92.2116ZM272.042 88.8006C272.445 89.0233 272.915 89.1235 273.453 89.1011C274.019 89.071 274.584 88.9379 275.148 88.7018C275.713 88.4657 276.205 88.155 276.624 87.7696L280.168 81.3644C280.661 80.266 280.863 79.2808 280.774 78.4087C280.703 77.5463 280.326 76.9263 279.643 76.5488C278.733 76.0453 277.705 76.2308 276.558 77.105C275.429 77.989 274.24 79.5597 272.991 81.8173C270.871 85.6499 270.555 87.9777 272.042 88.8006ZM287.973 97.3525C286.801 97.0139 285.951 96.425 285.424 95.5855C284.896 94.7461 284.782 93.8076 285.081 92.77C285.209 92.3281 285.405 91.9372 285.67 91.5973C285.94 91.2382 286.342 90.9275 286.876 90.6653C287.429 90.4087 288.148 90.1896 289.033 90.0081C289.924 89.8074 291.07 89.6596 292.471 89.5647L295.435 89.359L296.059 87.1973C296.375 86.1021 296.452 85.1875 296.289 84.4535C296.132 83.7003 295.746 83.2349 295.131 83.0573C294.396 82.8656 293.632 83.1656 292.842 83.9573C292.07 84.7545 291.357 85.964 290.701 87.5857L288.104 84.8997C288.658 84.2063 289.358 83.6588 290.202 83.2574C291.047 82.856 291.949 82.6168 292.908 82.5399C293.886 82.4686 294.855 82.5716 295.816 82.8491C297.449 83.3209 298.642 84.1649 299.394 85.3814C300.171 86.5842 300.331 87.9733 299.876 89.5489L297.87 96.495C297.548 97.6095 297.762 98.2749 298.511 98.4913C298.953 98.619 299.455 98.5037 300.016 98.1454L300.189 98.4138C299.495 98.942 298.731 99.3148 297.898 99.5321C297.065 99.7495 296.313 99.7611 295.64 99.5668C294.91 99.356 294.348 98.923 293.954 98.2681C293.58 97.6186 293.445 96.8614 293.549 95.9963C292.33 96.6851 291.301 97.1478 290.462 97.3844C289.649 97.6073 288.819 97.5967 287.973 97.3525ZM290.651 96.1899C291.074 96.312 291.508 96.3228 291.953 96.2225C292.418 96.1277 292.969 95.9122 293.608 95.5761L295.326 89.7336L294.049 89.833C292.963 89.915 292.106 90.0733 291.476 90.3077C290.852 90.5229 290.367 90.8306 290.023 91.2307C289.697 91.6364 289.449 92.137 289.277 92.7327C289.038 93.5589 289.043 94.2993 289.291 94.9538C289.564 95.5947 290.017 96.0067 290.651 96.1899ZM309.684 108.179C307.57 108.014 305.878 107.592 304.607 106.911C303.354 106.252 302.764 105.464 302.835 104.547C302.889 103.849 303.267 103.246 303.969 102.739C304.689 102.254 305.638 101.906 306.818 101.697C304.981 101.073 304.11 100.152 304.205 98.936C304.256 98.2779 304.562 97.69 305.124 97.172C305.688 96.6341 306.451 96.2321 307.415 95.9661C306.452 95.4498 305.724 94.7512 305.231 93.8703C304.757 92.9909 304.565 91.983 304.653 90.8464C304.782 89.1914 305.454 87.9096 306.668 87.0011C307.902 86.0941 309.486 85.7159 311.42 85.8664C312.337 85.9378 313.224 86.1472 314.08 86.4946L319.583 86.9228L319.242 87.4379L315.174 87.1214C315.936 87.6421 316.496 88.3075 316.854 89.1178C317.234 89.9096 317.384 90.814 317.305 91.8309C317.176 93.4859 316.504 94.7777 315.288 95.7062C314.094 96.6162 312.52 96.9953 310.566 96.8432C309.489 96.7594 308.555 96.5262 307.762 96.1435C307.097 96.4329 306.747 96.8068 306.712 97.2654C306.681 97.6642 306.939 97.9551 307.486 98.1382C307.759 98.2396 308.153 98.3405 308.666 98.4406C309.18 98.5408 309.805 98.6296 310.541 98.7069L311.584 98.8482C313.87 99.1064 315.601 99.6824 316.775 100.576C317.969 101.472 318.513 102.607 318.406 103.983C318.286 105.518 317.456 106.647 315.915 107.37C314.373 108.113 312.296 108.382 309.684 108.179ZM310.564 96.482C311.182 96.5301 311.727 96.101 312.199 95.1949C312.631 94.2857 312.907 93.0534 313.028 91.4981C313.151 89.9229 313.068 88.6627 312.781 87.7175C312.472 86.7907 312.008 86.3033 311.39 86.2552C310.752 86.2056 310.218 86.6154 309.79 87.4848C309.359 88.3741 309.083 89.6063 308.96 91.1816C308.838 92.7568 308.92 94.027 309.206 94.9921C309.493 95.9372 309.946 96.4339 310.564 96.482ZM310.043 107.816C310.96 107.887 311.819 107.813 312.618 107.595C313.416 107.396 314.063 107.075 314.559 106.632C315.074 106.191 315.356 105.661 315.404 105.043C315.457 104.365 315.15 103.8 314.483 103.347C313.775 102.91 312.664 102.623 311.15 102.486L310.108 102.344C309.531 102.279 308.996 102.198 308.502 102.099C308.027 102.022 307.603 101.929 307.23 101.819C306.8 101.926 306.47 102.181 306.238 102.585C306.006 102.988 305.867 103.479 305.822 104.057C305.741 105.094 306.066 105.952 306.795 106.63C307.525 107.309 308.608 107.704 310.043 107.816Z" fill="#272727"/>
</svg>
