<svg width="451" height="1201" viewBox="0 0 451 1201" fill="none" xmlns="http://www.w3.org/2000/svg">
<path d="M169.502 69.6694C93.4254 138.404 44.0521 98.3087 28.875 69.6694V1200.37H421.875V92.814C396.551 113.294 333.961 141.967 286.192 92.814C238.423 43.6608 188.495 56.9037 169.502 69.6694Z" fill="#F8AD83"/>
<path d="M38.9191 70.3073L45.4976 50.4793C46.2508 48.2602 46.2155 46.8015 45.3915 46.1033L45.3229 46.0451L45.5168 45.8162L52.8408 52.0226L52.6468 52.2515L52.5553 52.1739C51.8534 51.5792 51.207 51.3984 50.6161 51.6317C50.0381 51.8497 49.5849 52.4619 49.2565 53.4681L44.6027 67.2198L57.5189 60.4697C58.3754 60.0158 58.8092 59.4266 58.8203 58.702C58.8596 57.975 58.4802 57.2472 57.6821 56.5184L57.876 56.2895L62.3391 60.0716L62.1451 60.3004C61.8423 60.07 61.4284 59.9552 60.9034 59.956C60.3937 59.9697 59.8475 60.0574 59.2649 60.2191C58.7104 60.3784 58.1953 60.5841 57.7194 60.8363L39.148 70.5013L38.9191 70.3073ZM49.6692 78.4238L49.8094 78.1586L49.8359 78.1726C50.4724 78.5092 51.088 78.5859 51.6826 78.4026C52.2773 78.2194 52.7429 77.8095 53.0795 77.1731L57.6799 68.4747C58.0352 67.8028 58.1696 67.2065 58.0831 66.6856C58.0142 66.1741 57.5378 65.6845 56.6539 65.217L56.7941 64.9518L59.4991 66.3824C60.4008 66.8593 61.1417 67.1267 61.7219 67.1847C62.2667 67.224 62.7024 67.1489 63.0288 66.9596L63.294 67.0998L56.8983 79.1927C56.5617 79.8292 56.485 80.4448 56.6683 81.0394C56.8515 81.6341 57.2614 82.0997 57.8979 82.4363L57.9244 82.4504L57.7841 82.7156L49.6692 78.4238ZM62.2416 64.4052C61.6052 64.0686 61.1823 63.5848 60.9731 62.9538C60.7908 62.3144 60.868 61.6765 61.2046 61.04C61.5413 60.4035 62.0204 59.9895 62.6421 59.7979C63.2908 59.598 63.9334 59.6664 64.5699 60.003C65.1887 60.3303 65.5892 60.8136 65.7714 61.4529C65.9713 62.1017 65.9076 62.7354 65.5804 63.3542C65.2531 63.973 64.7651 64.3823 64.1164 64.5822C63.4854 64.7915 62.8604 64.7325 62.2416 64.4052ZM68.3299 86.7082L68.3967 86.4157C69.0986 86.5761 69.7108 86.5005 70.2333 86.1891C70.7797 85.8626 71.1354 85.3386 71.3002 84.6172L75.1089 67.9468C75.2693 67.2449 75.1742 66.6282 74.8238 66.0968C74.4928 65.5699 73.9764 65.2262 73.2745 65.0658L73.3413 64.7734L76.3244 65.4549C77.3188 65.6821 78.1037 65.7486 78.6792 65.6544C79.2156 65.5513 79.6169 65.366 79.8832 65.0986L80.1757 65.1654L75.5117 85.5794C75.3469 86.3008 75.4299 86.925 75.7609 87.452C76.1158 87.9639 76.6442 88.3 77.3461 88.4604L77.2793 88.7528L68.3299 86.7082ZM87.7478 89.6814C86.3684 89.6409 85.1489 89.265 84.0893 88.5536C83.0497 87.8428 82.2476 86.8788 81.6831 85.6617C81.1192 84.4246 80.8601 83.0264 80.9059 81.4671C80.9528 79.8678 81.3238 78.4781 82.0187 77.298C82.7137 76.1178 83.6406 75.2147 84.7994 74.5884C85.9789 73.9427 87.2983 73.6413 88.7577 73.6842C89.9772 73.72 91.0497 73.9916 91.9752 74.499C92.9207 75.0069 93.6604 75.7089 94.1943 76.605C94.7488 77.4816 95.0493 78.4909 95.0958 79.6328L95.1126 80.0834L85.037 79.7876L85.0326 79.9375C84.9703 82.0566 85.3902 83.7697 86.2923 85.0767C87.1949 86.3638 88.4359 87.0305 90.0152 87.0769C90.9748 87.105 91.8911 86.9018 92.7643 86.4673C93.658 86.0133 94.3864 85.3944 94.9497 84.6106L95.2169 84.7085C94.8471 85.7181 94.2909 86.6021 93.5484 87.3607C92.8058 88.1192 91.9382 88.704 90.9458 89.115C89.9533 89.5261 88.8873 89.7149 87.7478 89.6814ZM85.0802 79.3387L91.1675 79.5174C91.2139 77.9381 90.9916 76.651 90.5006 75.6562C90.0295 74.6619 89.3342 74.1513 88.4146 74.1243C87.535 74.0985 86.7912 74.5568 86.1833 75.4994C85.5754 76.442 85.2077 77.7217 85.0802 79.3387ZM107.623 94.5354C105.541 94.9339 103.797 94.9724 102.392 94.6509C101.01 94.3452 100.232 93.7406 100.059 92.837C99.9276 92.1494 100.133 91.4686 100.676 90.7946C101.243 90.1364 102.067 89.5509 103.15 89.0382C101.213 88.9202 100.13 88.262 99.9011 87.0638C99.7771 86.4155 99.9178 85.7675 100.323 85.1198C100.725 84.4524 101.355 83.8633 102.215 83.3527C101.15 83.1085 100.264 82.6265 99.5556 81.9068C98.8674 81.1833 98.4161 80.2617 98.2018 79.142C97.8898 77.5116 98.1996 76.0981 99.1313 74.9017C100.083 73.7014 101.511 72.919 103.416 72.5544C104.32 72.3814 105.23 72.3498 106.147 72.4594L111.569 71.4218L111.376 72.0085L107.368 72.7754C108.241 73.0769 108.956 73.5712 109.515 74.2583C110.091 74.9221 110.474 75.7548 110.666 76.7567C110.978 78.3871 110.67 79.8103 109.742 81.0264C108.83 82.2191 107.411 82.9997 105.486 83.3681C104.425 83.5711 103.462 83.5925 102.597 83.4324C102.032 83.8866 101.793 84.3396 101.879 84.7914C101.954 85.1843 102.28 85.3969 102.857 85.4291C103.147 85.455 103.553 85.4486 104.075 85.4098C104.597 85.371 105.223 85.2918 105.953 85.1724L106.996 85.034C109.27 84.6802 111.091 84.7797 112.46 85.3323C113.847 85.8812 114.671 86.8334 114.93 88.1888C115.22 89.7013 114.717 91.0092 113.421 92.1124C112.129 93.2353 110.197 94.043 107.623 94.5354ZM105.389 83.0202C105.998 82.9036 106.41 82.3461 106.627 81.3477C106.803 80.3568 106.745 79.0952 106.452 77.563C106.155 76.0112 105.743 74.8173 105.217 73.9814C104.674 73.1689 104.099 72.8209 103.49 72.9374C102.861 73.0577 102.455 73.5937 102.27 74.5453C102.09 75.5166 102.148 76.7781 102.445 78.3299C102.742 79.8818 103.155 81.0855 103.686 81.9411C104.212 82.777 104.78 83.1367 105.389 83.0202ZM107.874 94.0904C108.778 93.9174 109.586 93.6201 110.3 93.1985C111.017 92.7965 111.556 92.3166 111.918 91.7587C112.299 91.197 112.431 90.6117 112.315 90.0028C112.187 89.3349 111.742 88.8703 110.979 88.609C110.181 88.3749 109.033 88.3908 107.537 88.6569L106.494 88.7953C105.921 88.8847 105.383 88.9469 104.88 88.982C104.401 89.0329 103.968 89.0548 103.58 89.0477C103.193 89.2641 102.942 89.5974 102.824 90.0475C102.707 90.4976 102.702 91.0075 102.811 91.5772C103.007 92.5986 103.546 93.3405 104.429 93.8029C105.311 94.2652 106.46 94.361 107.874 94.0904ZM123.964 83.3366C122.673 83.8261 121.403 83.9445 120.152 83.6918C118.92 83.4321 117.81 82.8476 116.823 81.9385C115.83 81.0107 115.056 79.8175 114.503 78.3589C113.935 76.863 113.747 75.437 113.939 74.0809C114.13 72.7248 114.641 71.536 115.473 70.5146C116.317 69.4673 117.421 68.6847 118.786 68.1668C119.926 67.734 121.021 67.5753 122.071 67.6907C123.138 67.7989 124.09 68.1651 124.926 68.7892C125.773 69.3875 126.437 70.2054 126.916 71.2429L127.103 71.653L117.679 75.2287L117.732 75.3689C118.484 77.3511 119.527 78.7738 120.86 79.6371C122.185 80.4817 123.587 80.6238 125.064 80.0633C125.962 79.7228 126.731 79.1849 127.372 78.4498C128.024 77.6888 128.461 76.8386 128.682 75.8991L128.967 75.8874C129.011 76.9617 128.834 77.9912 128.438 78.9759C128.041 79.9606 127.463 80.8324 126.703 81.5914C125.943 82.3505 125.03 82.9322 123.964 83.3366ZM117.547 74.7973L123.241 72.637C122.681 71.1598 121.984 70.0552 121.15 69.3234C120.335 68.5845 119.497 68.3782 118.637 68.7046C117.814 69.0168 117.302 69.7245 117.1 70.8278C116.898 71.9311 117.047 73.2543 117.547 74.7973ZM133.244 79.3026L133.102 79.0384L133.128 79.0242C133.762 78.6832 134.169 78.2147 134.348 77.6188C134.527 77.0229 134.446 76.4078 134.105 75.7737L129.444 67.1076C129.084 66.4383 128.664 65.9944 128.183 65.7761C127.72 65.5483 127.048 65.6713 126.167 66.1449L126.025 65.8807L128.641 64.4739C129.574 63.9718 130.232 63.5048 130.613 63.0729C130.984 62.6234 131.186 62.1968 131.219 61.7931L131.351 61.7221L133.708 66.0409C133.652 65.3894 133.645 64.6782 133.684 63.9075C133.742 63.1273 133.939 62.3966 134.277 61.7154C134.622 61.0071 135.183 60.4446 135.958 60.0278C136.222 59.8857 136.518 59.7605 136.846 59.6523C137.174 59.5441 137.543 59.4704 137.953 59.4314L138.586 63.0768C137.762 63.0656 137.074 63.1174 136.523 63.2323C135.989 63.3377 135.546 63.4851 135.194 63.6746C134.595 63.9967 134.245 64.4232 134.145 64.9541C134.062 65.4756 134.052 66.0486 134.116 66.6731L137.91 73.7275C138.251 74.3616 138.719 74.7682 139.315 74.9473C139.911 75.1264 140.526 75.0454 141.16 74.7044L141.187 74.6902L141.329 74.9544L133.244 79.3026ZM154.005 67.2801L153.824 67.0413C154.381 66.6177 154.71 66.1915 154.811 65.7628C154.916 65.3061 154.869 64.8644 154.671 64.4377C154.488 63.9989 154.233 63.5646 153.906 63.1347L143.956 50.0476C143.52 49.4744 142.986 49.1519 142.354 49.0801C141.737 48.9961 141.142 49.172 140.569 49.6078L140.388 49.369L142.824 47.517C143.635 46.8996 144.19 46.34 144.487 45.838C144.751 45.3603 144.867 44.9335 144.832 44.5577L145.071 44.3762L151.971 53.4512C151.759 52.2805 151.885 51.1417 152.35 50.0346C152.803 48.9116 153.499 47.993 154.438 47.2789C155.186 46.71 155.956 46.4009 156.748 46.3517C157.528 46.2866 158.271 46.4377 158.977 46.8051C159.7 47.1604 160.333 47.6963 160.878 48.4127L165.816 54.9085C166.264 55.4976 166.797 55.8341 167.413 55.9181C168.033 55.974 168.63 55.7841 169.203 55.3483L169.385 55.5871L162.101 61.125L161.919 60.8862C162.493 60.4504 162.827 59.9322 162.923 59.3315C163.023 58.7029 162.849 58.094 162.401 57.5049L157.281 50.7703C157.015 50.4201 156.683 50.0822 156.284 49.7568C155.874 49.4155 155.433 49.1984 154.96 49.1055C154.491 48.9846 154.034 49.0936 153.588 49.4325C153.174 49.7472 152.873 50.1772 152.685 50.7224C152.5 51.2397 152.396 51.7963 152.372 52.3925C152.348 52.9887 152.371 53.5485 152.443 54.0721L157.345 60.5201C157.672 60.95 158.014 61.3177 158.372 61.6234C158.746 61.917 159.159 62.0803 159.611 62.1133C160.068 62.1183 160.574 61.909 161.131 61.4853L161.313 61.7241L154.005 67.2801ZM175.721 51.466L162.698 43.9509C162.263 43.701 161.82 43.5571 161.368 43.5191C160.932 43.4692 160.476 43.6092 159.998 43.9391L159.819 43.6984L166.561 38.6878L166.74 38.9286C166.226 39.4103 166.042 39.9335 166.187 40.4982C166.349 41.0509 166.811 41.5549 167.573 42.0102L174.365 45.97L172.616 38.4863C172.502 37.9978 172.314 37.5769 172.052 37.2238C171.753 36.8225 171.388 36.5829 170.957 36.505C170.525 36.4271 170.075 36.5251 169.605 36.7991L169.427 36.5583L173.231 33.7309L173.41 33.9717C173.064 34.3782 172.842 34.9172 172.743 35.5888C172.644 36.2604 172.692 37.0466 172.889 37.9475L175.938 51.3049L175.721 51.466ZM186.391 45.5651C185.103 46.0584 183.832 46.1806 182.581 45.9316C181.348 45.6754 180.236 45.0942 179.247 44.188C178.251 43.2631 177.474 42.0722 176.916 40.6153C176.344 39.121 176.152 37.6956 176.339 36.3389C176.527 34.9823 177.035 33.792 177.863 32.7681C178.704 31.7184 179.806 30.9325 181.169 30.4106C182.308 29.9745 183.403 29.8126 184.452 29.9248C185.521 30.0299 186.473 30.3933 187.311 31.015C188.16 31.6108 188.826 32.4268 189.308 33.4629L189.497 33.8724L180.083 37.4757L180.137 37.6158C180.894 39.5957 181.941 41.0154 183.276 41.8748C184.605 42.7155 186.007 42.8535 187.482 42.2887C188.379 41.9455 189.147 41.4054 189.785 40.6684C190.436 39.9055 190.87 39.054 191.088 38.1138L191.373 38.1013C191.42 39.1755 191.246 40.2055 190.853 41.1913C190.459 42.1772 189.883 43.0507 189.125 43.812C188.367 44.5732 187.456 45.1576 186.391 45.5651ZM179.95 37.0447L185.638 34.8677C185.073 33.3921 184.372 32.2897 183.536 31.5603C182.719 30.8238 181.881 30.62 181.022 30.9488C180.2 31.2634 179.69 31.9727 179.491 33.0766C179.293 34.1805 179.446 35.5032 179.95 37.0447ZM192.221 42.7582L192.17 42.4626L192.2 42.4575C192.909 42.335 193.443 42.0195 193.802 41.511C194.161 41.0026 194.279 40.3936 194.156 39.6841L192.482 29.9876C192.352 29.2387 192.094 28.6845 191.707 28.3251C191.34 27.9623 190.664 27.866 189.679 28.0362L189.628 27.7405L192.554 27.2351C193.599 27.0547 194.37 26.82 194.868 26.5311C195.363 26.2224 195.69 25.8818 195.849 25.5093L195.997 25.4838L196.863 30.3269C197.017 29.6914 197.235 29.0144 197.517 28.296C197.819 27.5742 198.238 26.9437 198.774 26.4046C199.326 25.8424 200.036 25.4864 200.903 25.3366C201.199 25.2856 201.519 25.2607 201.864 25.262C202.21 25.2632 202.583 25.3104 202.985 25.4034L202.429 29.0613C201.652 28.7896 200.983 28.6209 200.424 28.5552C199.884 28.486 199.417 28.4854 199.023 28.5535C198.353 28.6692 197.886 28.963 197.623 29.4347C197.379 29.903 197.188 30.4434 197.05 31.0558L198.413 38.9489C198.536 39.6584 198.851 40.1925 199.36 40.5512C199.868 40.9099 200.477 41.028 201.187 40.9055L201.216 40.9004L201.267 41.196L192.221 42.7582ZM219.202 41.238C217.829 41.1012 216.639 40.6409 215.632 39.8571C214.644 39.0754 213.911 38.0577 213.433 36.8041C212.957 35.5306 212.797 34.1177 212.951 32.5654C213.11 30.9733 213.577 29.6129 214.353 28.4843C215.129 27.3556 216.117 26.5195 217.316 25.9758C218.538 25.4142 219.875 25.2058 221.328 25.3505C222.542 25.4715 223.593 25.8174 224.481 26.3883C225.388 26.9611 226.077 27.7131 226.547 28.6443C227.039 29.5576 227.268 30.5854 227.235 31.7277L227.22 32.1785L217.19 31.1789L217.175 31.3281C216.965 33.4377 217.264 35.1759 218.072 36.5428C218.883 37.8898 220.074 38.6417 221.646 38.7984C222.601 38.8936 223.53 38.7549 224.431 38.3825C225.354 37.9921 226.124 37.4257 226.741 36.6832L227.001 36.7995C226.561 37.7808 225.945 38.6238 225.151 39.3285C224.357 40.0333 223.451 40.556 222.432 40.8966C221.413 41.2373 220.337 41.3511 219.202 41.238ZM217.264 30.7341L223.324 31.338C223.481 29.7658 223.349 28.4663 222.929 27.4396C222.529 26.4148 221.871 25.8568 220.955 25.7656C220.08 25.6783 219.306 26.0836 218.633 26.9813C217.961 27.8791 217.505 29.13 217.264 30.7341ZM225.603 41.321L225.692 41.0345L225.721 41.0434C226.408 41.2569 227.027 41.2189 227.578 40.9292C228.129 40.6395 228.511 40.1508 228.725 39.4632L231.643 30.066C231.869 29.3402 231.891 28.7293 231.71 28.2333C231.548 27.7432 230.989 27.3499 230.034 27.0533L230.123 26.7668L232.96 27.6477C233.934 27.9502 234.711 28.0765 235.292 28.0266C235.835 27.9648 236.249 27.8107 236.535 27.5645L236.822 27.6534L235.605 31.6733C236.41 30.8344 237.413 30.2665 238.615 29.9697C239.818 29.6729 240.982 29.6995 242.109 30.0495C243.389 30.4469 244.28 31.1845 244.783 32.2622C245.305 33.3458 245.353 34.5752 244.925 35.9504L242.505 43.7432C242.292 44.4308 242.33 45.05 242.619 45.6007C242.909 46.1514 243.398 46.5335 244.085 46.7471L244.114 46.756L244.025 47.0425L235.287 44.3285L235.376 44.042L235.404 44.0509C236.092 44.2645 236.711 44.2264 237.262 43.9367C237.813 43.647 238.195 43.1584 238.408 42.4708L240.918 34.3915C241.214 33.4365 241.26 32.6132 241.056 31.9215C240.871 31.2358 240.473 30.798 239.862 30.6082C239.27 30.4243 238.569 30.4894 237.76 30.8034C236.975 31.1042 236.211 31.6102 235.466 32.3214L232.85 40.7445C232.637 41.4321 232.675 42.0513 232.964 42.602C233.254 43.1527 233.743 43.5348 234.43 43.7484L234.459 43.7573L234.37 44.0438L225.603 41.321ZM249.079 50.3345C247.859 49.6901 246.93 48.815 246.292 47.7094C245.673 46.6131 245.378 45.3943 245.407 44.0529C245.447 42.6939 245.83 41.3247 246.559 39.9453C247.306 38.5305 248.252 37.4466 249.396 36.6937C250.54 35.9408 251.77 35.5388 253.086 35.4875C254.43 35.428 255.747 35.7391 257.038 36.4209C258.116 36.9906 258.959 37.7072 259.566 38.5706C260.191 39.4434 260.546 40.3996 260.63 41.4393C260.741 42.4706 260.566 43.509 260.104 44.5544L259.921 44.9663L251.007 40.259L250.937 40.3916C249.947 42.2662 249.569 43.989 249.802 45.5598C250.045 47.1129 250.865 48.2584 252.262 48.9963C253.111 49.4446 254.023 49.6662 254.999 49.6611C256.001 49.6476 256.928 49.4132 257.779 48.958L257.975 49.1637C257.198 49.9068 256.309 50.4551 255.309 50.8086C254.308 51.1621 253.271 51.3046 252.199 51.236C251.127 51.1674 250.087 50.8669 249.079 50.3345ZM251.244 39.8751L256.629 42.7191C257.367 41.3219 257.735 40.0687 257.733 38.9593C257.748 37.8592 257.349 37.0943 256.536 36.6647C255.758 36.2537 254.888 36.3373 253.927 36.9153C252.966 37.4933 252.071 38.4799 251.244 39.8751ZM260.52 57.2311C260.095 56.9307 259.788 56.689 259.599 56.5061C259.41 56.3232 259.235 56.138 259.074 55.9503C258.929 55.7742 258.713 55.5601 258.426 55.3079C258.139 55.0557 257.677 54.7042 257.041 54.2535L259.712 49.2343L260.03 49.4596C259.205 51.1789 258.874 52.6846 259.038 53.9766C259.213 55.2523 259.725 56.1906 260.574 56.7915C261.406 57.3809 262.156 57.6544 262.823 57.6121C263.506 57.5813 264.056 57.2721 264.472 56.6844C264.738 56.309 264.871 55.9132 264.872 55.497C264.9 55.0761 264.79 54.5569 264.541 53.9395C264.303 53.3058 263.943 52.4994 263.46 51.5203L263.027 50.6258C262.488 49.4842 262.234 48.4227 262.268 47.4415C262.328 46.4554 262.636 45.5706 263.191 44.7871C263.977 43.6771 264.995 43.087 266.246 43.0166C267.512 42.9578 268.823 43.408 270.178 44.3672C270.521 44.6099 270.787 44.8226 270.976 45.0055C271.165 45.1884 271.34 45.3737 271.501 45.5613C271.663 45.7489 271.879 45.9631 272.149 46.2038C272.42 46.4444 272.8 46.7381 273.29 47.0848L270.842 51.2696L270.548 51.0615C270.993 50.225 271.252 49.3916 271.326 48.5613C271.427 47.7262 271.364 46.9836 271.138 46.3335C270.924 45.6672 270.58 45.1664 270.107 44.8313C269.487 44.3922 268.873 44.2029 268.267 44.2636C267.676 44.3358 267.173 44.6658 266.757 45.2534C266.445 45.6941 266.295 46.2004 266.307 46.7723C266.346 47.3395 266.624 48.1241 267.14 49.1264L267.614 50.0137C268.341 51.4103 268.74 52.6118 268.812 53.6182C268.883 54.6246 268.567 55.6256 267.862 56.6214C266.059 59.1678 263.612 59.3711 260.52 57.2311ZM269.858 64.5473C269.071 63.867 268.644 63.0614 268.577 62.1305C268.509 61.1995 268.822 60.3332 269.515 59.5314L277.07 50.7949L275.142 49.1269L275.397 48.8319C276.506 49.659 277.724 50.1307 279.051 50.2471C280.393 50.3766 281.761 50.1711 283.154 49.6305L283.517 49.9445L280.691 53.2122L283.709 55.822L283.129 56.0342L280.338 53.6206L273.215 61.8579C272.168 63.0681 272.053 64.0265 272.87 64.7329C273.143 64.9684 273.525 65.1534 274.017 65.2878C274.524 65.4354 275.054 65.5104 275.607 65.5128L275.411 65.7397C274.362 65.9434 273.334 65.94 272.326 65.7295C271.331 65.5039 270.509 65.1098 269.858 64.5473ZM279.087 72.9279C278.086 71.9777 277.428 70.8842 277.113 69.6475C276.813 68.4245 276.858 67.1713 277.249 65.8879C277.654 64.5901 278.394 63.3755 279.468 62.2442C280.569 61.0839 281.773 60.2958 283.078 59.88C284.383 59.4642 285.676 59.4095 286.957 59.7158C288.266 60.0213 289.45 60.6768 290.509 61.682C291.394 62.522 292.012 63.4397 292.363 64.435C292.729 65.4441 292.812 66.4606 292.612 67.4843C292.44 68.5073 291.991 69.4598 291.264 70.3416L290.976 70.6886L283.666 63.7481L283.563 63.8568C282.103 65.3943 281.273 66.9507 281.074 68.5262C280.888 70.0872 281.368 71.4116 282.514 72.4995C283.21 73.1605 284.028 73.6203 284.968 73.8788C285.937 74.1367 286.893 74.1614 287.835 73.953L287.969 74.2042C287.02 74.7098 286.016 74.9976 284.957 75.0675C283.898 75.1374 282.861 74.9945 281.848 74.6388C280.834 74.2831 279.914 73.7128 279.087 72.9279ZM283.998 63.4424L288.414 67.6356C289.502 66.4898 290.195 65.3825 290.492 64.3138C290.805 63.2588 290.627 62.4146 289.96 61.7811C289.322 61.1752 288.462 61.0207 287.38 61.3175C286.299 61.6144 285.171 62.3226 283.998 63.4424ZM304.352 92.2116L306.388 88.4695C305.464 89.1472 304.418 89.5511 303.249 89.6815C302.089 89.7943 301.028 89.5844 300.066 89.0519C299.121 88.5291 298.437 87.7621 298.013 86.7508C297.59 85.7394 297.445 84.5965 297.579 83.3219C297.722 82.0299 298.157 80.7275 298.883 79.415C299.696 77.945 300.674 76.8175 301.817 76.0326C302.977 75.2573 304.207 74.8521 305.507 74.8167C306.816 74.7638 308.109 75.0908 309.387 75.7975C310.104 76.1945 310.628 76.6326 310.957 77.1118C311.296 77.5735 311.504 78.1685 311.581 78.8969L314.383 73.8305C314.732 73.2004 314.812 72.5816 314.622 71.9739C314.45 71.3759 314.049 70.9026 313.419 70.5541L313.564 70.2916L316.242 71.7729C317.117 72.2569 317.83 72.5373 318.382 72.614C318.934 72.6907 319.393 72.6248 319.76 72.4163L320.022 72.5616L309.886 90.8846C309.537 91.5146 309.449 92.1287 309.621 92.7267C309.793 93.3247 310.203 93.8028 310.85 94.161L310.705 94.4235L308.028 92.9422C307.258 92.5162 306.602 92.2561 306.059 92.1619C305.535 92.0774 305.053 92.1424 304.614 92.3568L304.352 92.2116ZM302.091 88.8006C302.493 89.0233 302.963 89.1235 303.501 89.1011C304.067 89.071 304.632 88.9379 305.197 88.7018C305.761 88.4657 306.253 88.155 306.672 87.7696L310.216 81.3644C310.709 80.266 310.911 79.2808 310.822 78.4087C310.751 77.5463 310.374 76.9263 309.691 76.5488C308.781 76.0453 307.753 76.2308 306.606 77.105C305.477 77.989 304.288 79.5597 303.04 81.8173C300.919 85.6499 300.603 87.9777 302.091 88.8006ZM318.022 97.3525C316.849 97.0139 316 96.425 315.472 95.5855C314.944 94.7461 314.83 93.8076 315.13 92.77C315.257 92.3281 315.453 91.9372 315.718 91.5973C315.988 91.2382 316.39 90.9275 316.924 90.6653C317.477 90.4087 318.196 90.1896 319.081 90.0081C319.972 89.8074 321.118 89.6596 322.519 89.5647L325.483 89.359L326.107 87.1973C326.423 86.1021 326.5 85.1875 326.337 84.4535C326.18 83.7003 325.794 83.2349 325.179 83.0573C324.444 82.8656 323.681 83.1656 322.89 83.9573C322.118 84.7545 321.405 85.964 320.749 87.5857L318.152 84.8997C318.706 84.2063 319.406 83.6588 320.25 83.2574C321.095 82.856 321.997 82.6168 322.956 82.5399C323.934 82.4686 324.903 82.5716 325.864 82.8491C327.497 83.3209 328.69 84.1649 329.442 85.3814C330.219 86.5842 330.38 87.9733 329.924 89.5489L327.918 96.495C327.596 97.6095 327.81 98.2749 328.559 98.4913C329.001 98.619 329.503 98.5037 330.064 98.1454L330.237 98.4138C329.543 98.942 328.78 99.3148 327.947 99.5321C327.113 99.7495 326.361 99.7611 325.688 99.5668C324.958 99.356 324.396 98.923 324.002 98.2681C323.628 97.6186 323.493 96.8614 323.597 95.9963C322.378 96.6851 321.349 97.1478 320.51 97.3844C319.697 97.6073 318.867 97.5967 318.022 97.3525ZM320.699 96.1899C321.122 96.312 321.556 96.3228 322.001 96.2225C322.466 96.1277 323.017 95.9122 323.656 95.5761L325.374 89.7336L324.097 89.833C323.011 89.915 322.154 90.0733 321.524 90.3077C320.9 90.5229 320.415 90.8306 320.071 91.2307C319.745 91.6364 319.497 92.137 319.325 92.7327C319.086 93.5589 319.091 94.2993 319.339 94.9538C319.612 95.5947 320.065 96.0067 320.699 96.1899ZM339.732 108.179C337.618 108.014 335.926 107.592 334.655 106.911C333.402 106.252 332.812 105.464 332.883 104.547C332.937 103.849 333.315 103.246 334.017 102.739C334.737 102.254 335.686 101.906 336.866 101.697C335.029 101.073 334.158 100.152 334.253 98.936C334.304 98.2779 334.61 97.69 335.172 97.172C335.736 96.6341 336.499 96.2321 337.463 95.9661C336.5 95.4498 335.772 94.7512 335.279 93.8703C334.806 92.9909 334.613 91.983 334.702 90.8464C334.83 89.1914 335.502 87.9096 336.716 87.0011C337.95 86.0941 339.534 85.7159 341.468 85.8664C342.386 85.9378 343.272 86.1472 344.128 86.4946L349.631 86.9228L349.29 87.4379L345.222 87.1214C345.984 87.6421 346.544 88.3075 346.902 89.1178C347.282 89.9096 347.432 90.814 347.353 91.8309C347.225 93.4859 346.552 94.7777 345.337 95.7062C344.142 96.6162 342.568 96.9953 340.614 96.8432C339.537 96.7594 338.603 96.5262 337.81 96.1435C337.146 96.4329 336.795 96.8068 336.76 97.2654C336.729 97.6642 336.987 97.9551 337.534 98.1382C337.807 98.2396 338.201 98.3405 338.714 98.4406C339.228 98.5408 339.853 98.6296 340.589 98.7069L341.632 98.8482C343.919 99.1064 345.649 99.6824 346.823 100.576C348.017 101.472 348.561 102.607 348.454 103.983C348.334 105.518 347.504 106.647 345.964 107.37C344.421 108.113 342.344 108.382 339.732 108.179ZM340.612 96.482C341.23 96.5301 341.775 96.101 342.247 95.1949C342.679 94.2857 342.955 93.0534 343.076 91.4981C343.199 89.9229 343.116 88.6627 342.829 87.7175C342.52 86.7907 342.056 86.3033 341.438 86.2552C340.8 86.2056 340.267 86.6154 339.838 87.4848C339.408 88.3741 339.131 89.6063 339.009 91.1816C338.886 92.7568 338.968 94.027 339.254 94.9921C339.541 95.9372 339.994 96.4339 340.612 96.482ZM340.091 107.816C341.009 107.887 341.867 107.813 342.666 107.595C343.464 107.396 344.111 107.075 344.607 106.632C345.122 106.191 345.404 105.661 345.453 105.043C345.505 104.365 345.198 103.8 344.531 103.347C343.823 102.91 342.712 102.623 341.198 102.486L340.156 102.344C339.579 102.279 339.044 102.198 338.55 102.099C338.075 102.022 337.651 101.929 337.278 101.819C336.848 101.926 336.518 102.181 336.286 102.585C336.054 102.988 335.915 103.479 335.87 104.057C335.789 105.094 336.114 105.952 336.843 106.63C337.573 107.309 338.656 107.704 340.091 107.816Z" fill="#272727"/>
</svg>
