<svg width="280" height="255" viewBox="0 0 280 255" fill="none" xmlns="http://www.w3.org/2000/svg">
<path d="M138.259 220.643L172.495 184.62L116.737 185.852L138.259 220.643Z" fill="#96F1FE"/>
<path d="M223.533 19.4365C209.719 17.1178 151.305 22.136 151.305 22.136L151.324 55.68L114.67 55.4611L117.995 160.361L188.055 153.176L189.389 113.603L209.584 113.276L214.498 135.668C214.498 135.668 256.06 85.824 252.196 71.2652C248.331 56.9301 237.347 21.7553 223.533 19.4365Z" fill="#96F1FE"/>
<path d="M51.9178 51.7365L51.3755 32.2778C51.3755 32.2778 25.9401 64.7753 29.824 75.9797C33.9274 87.1855 74.8789 139.535 78.6662 130.165C82.234 120.794 80.2162 54.3653 80.2162 54.3653L51.9178 51.7365Z" fill="#96F1FE"/>
<path d="M278.778 66.5071C277.712 61.3573 271.645 48.1272 264.259 35.3364C258.828 25.9117 252.518 16.7054 246.847 10.6336C243.357 7.03479 240.079 4.55534 237.229 4.09107C223.415 1.77232 52.9014 -3.27114 36.5984 6.91829C35.4969 7.58259 34.3942 8.4705 33.2914 9.35842C29.9819 12.2458 26.224 16.6959 22.6829 21.5945C10.0643 39.6328 -1.29622 67.5182 1.4876 79.1633C2.55964 83.4186 10.3875 95.7648 22.1421 112.16C49.353 149.891 96.8488 208.988 125.651 237.561C136.779 248.585 145.3 255.121 148.6 253.799C151.239 252.92 157.201 246.918 164.719 237.794C191.025 206.42 239.071 136.712 263.455 96.3814C273.646 80.5649 279.421 69.1944 278.778 66.5071ZM78.2279 129.49C74.6601 138.861 33.9228 87.4075 29.8194 76.2017C25.7161 64.996 50.9279 33.168 50.9279 33.168L49.9325 52.8412L79.3337 54.5821C79.1155 54.3572 81.7944 120.343 78.2279 129.49ZM138.263 220.641L116.741 185.85L172.499 184.618L138.263 220.641ZM214.494 135.671L209.579 113.279L189.384 113.606L188.051 153.179L117.991 160.364L114.666 55.464L151.32 55.6828L151.301 22.1389C151.301 22.1389 210.147 18.2414 223.96 20.7838C237.774 23.1025 248.327 56.933 252.191 71.4917C256.056 85.8268 214.494 135.671 214.494 135.671Z" fill="#1B8691"/>
</svg>
