<svg width="238" height="195" viewBox="0 0 238 195" fill="none" xmlns="http://www.w3.org/2000/svg">
<path d="M83.4809 57.2233C83.4809 57.2233 66.8606 38.7555 68.0565 33.0716C69.2523 27.3876 72.5003 13.2026 77.9621 12.9031L79.2313 23.9263L87.8685 23.7472C87.8685 23.7472 88.0048 56.99 88.2166 61.8854L83.4809 57.2233Z" fill="#80C86A"/>
<path d="M117.024 76.946C119.815 76.5762 120.907 77.7035 120.907 77.7035L114.924 88.7101L103.994 78.5572C103.962 78.0432 102.91 67.707 102.784 67.0276L97.8395 67.0336L97.1765 43.4198C116.328 42.9238 123.454 45.1723 123.454 45.1723C123.454 45.1723 123.647 63.8292 123.635 65.0346C123.64 65.1203 115.867 66.2731 115.867 66.2731L117.024 76.946Z" fill="#80C86A"/>
<path d="M141.047 19.6553L140.562 13.0642C142.451 13.2746 144.445 13.8218 144.445 13.8218C144.445 13.8218 154.781 25.3942 153.512 29.7863C152.516 33.0405 134.746 53.5731 134.746 53.5731C134.118 54.4779 132.088 53.3311 132.025 52.3029C132.021 39.5686 132.595 19.4795 132.595 19.4795L141.047 19.6553Z" fill="#80C86A"/>
<path d="M110.613 33.9747C106.025 33.7861 97.4927 32.8489 97.4927 32.8489L97.3678 23.7739L103.971 23.6481L104.725 12.2826C109.045 12.2332 114.119 12.0446 117.679 12.0491C117.491 14.5477 117.153 18.7708 117.089 19.1181C117.769 19.1555 123.465 19.437 123.465 19.437L123.608 34.4238C123.688 34.3325 119.194 34.3086 110.613 33.9747Z" fill="#80C86A"/>
<path d="M111.527 100.59C105.927 99.1014 65.887 48.1094 58.7418 35.0725C57.9788 33.6694 57.5845 32.7545 57.6431 32.3218C57.7759 31.7123 57.9724 30.7555 58.4171 29.6954C60.8058 22.9258 67.8211 8.54233 72.333 7.45104C77.5994 6.22054 143.095 0.0348003 149.578 3.51819C152.382 5.03374 155.763 9.07993 158.674 13.7595C162.427 19.7508 165.223 26.7528 164.59 30.3121C164.409 31.525 162.727 34.5586 160.184 38.7676C148.387 58.2045 116.611 101.944 111.527 100.59ZM79.1192 24.3706L77.8635 13.4021C72.456 13.6997 69.2392 27.8139 68.0548 33.4695C66.8704 39.1251 83.8943 57.1189 83.8943 57.1189L87.2392 60.5676C87.0247 55.6113 87.6758 24.2783 87.6758 24.2783L79.1192 24.3706ZM135.012 52.8953C135.012 52.8953 152.802 33.0336 153.708 29.7977C155.054 25.4165 144.694 13.8933 144.694 13.8933C144.694 13.8933 143.84 13.7824 142.047 13.5667L142.528 20.1328L134.046 20.0484C134.046 20.0484 133.558 40.055 133.477 52.7469C133.534 53.6858 134.383 53.7113 135.012 52.8953ZM122.588 19.8319C122.588 19.8319 116.896 19.6354 116.211 19.5126C116.19 19.1712 116.613 14.941 116.801 12.4419C113.24 12.4372 109.342 12.4564 105.022 12.5055L104.267 23.8737L97.6621 23.999L97.7864 33.0762C97.7864 33.0762 106.236 34.0201 110.91 34.2031C119.576 34.5317 122.768 34.0482 122.768 34.0482L122.588 19.8319ZM122.941 64.9799C122.953 63.779 122.763 45.1918 122.763 45.1918C122.763 45.1918 116.879 43.2089 97.8346 43.7017L98.098 66.3124L103.621 66.5209C103.662 67.2037 104.444 77.3486 104.56 77.8548L115.07 87.6529L120.227 77.6013C120.227 77.6013 119.04 77.5997 116.26 77.8825L115.175 65.5304C115.091 65.5364 122.951 65.1506 122.941 64.9799Z" fill="#34562A"/>
<path d="M129.87 151.426C137.274 154.397 143.445 156.922 143.445 156.922L145.959 140.924L129.87 151.426Z" fill="#C6DC68"/>
<path d="M82.6243 135.874C84.7256 137.388 98.9708 140.874 107.785 143.19C98.617 132.062 91.8004 120.648 95.6407 104.086C84.22 113.521 80.4568 117.721 80.4568 117.721C80.4568 117.721 78.9989 133.266 82.6243 135.874Z" fill="#C6DC68"/>
<path d="M147.491 88.0716C143.431 84.429 133.108 75.49 128.991 78.4032C127.281 79.6718 125.265 81.0498 123.684 82.2294C123.684 82.2294 125.268 83.2202 126.065 84.1566L134.058 93.7012C134.811 94.5692 134.934 95.7689 134.024 96.3912L127.396 101.219C126.485 101.842 125.216 101.623 124.529 100.711L122.268 97.8127C121.581 96.9003 120.633 96.1656 119.644 95.6566C116.921 94.3584 113.955 94.7078 110.831 96.5475C109.377 97.3443 108.08 98.5273 106.958 99.6897C100.401 106.938 100.861 116.597 108.73 128.695C115.796 139.269 123.38 143.563 131.314 142.187C135.608 141.424 139.29 138.709 141.429 134.778C141.963 133.721 142.432 132.709 142.812 131.561C143.065 130.795 143.253 130.074 143.288 129.26C143.408 126.413 142.115 124.137 139.995 122.032C139.42 121.437 139.431 120.443 140.146 119.954L145.863 115.748C146.319 115.437 147.553 116.469 148.196 117.313C148.241 117.381 148.973 118.362 148.973 118.362L149.288 115.381C149.288 115.381 151.551 91.7142 147.491 88.0716Z" fill="#C6DC68"/>
<path d="M154.061 81.0832C151.055 78.1937 133.807 68.4263 129.266 70.5424C124.725 72.6586 73.4089 105.97 70.6462 112.409C67.9485 118.803 70.5342 137.509 74.8453 141.683C79.5536 146.178 149.778 169.668 153.39 164.824C156.979 159.798 157.068 83.9728 154.061 81.0832ZM106.318 142.415C97.9856 140.003 84.5703 136.417 82.5194 134.852C79.0579 132.274 80.102 117.416 80.102 117.416C80.102 117.416 83.6154 113.431 94.085 104.689C90.8234 120.47 97.513 131.622 106.318 142.415ZM143.57 156.801C143.57 156.801 138.168 154.561 131.691 151.968L145.806 142.909L143.57 156.801ZM148.99 115.312L148.677 118.295C148.677 118.295 147.944 117.313 147.899 117.245C147.256 116.399 146.02 115.365 145.564 115.676L139.847 119.883C139.197 120.327 139.122 121.368 139.697 121.963C141.776 124.004 143.115 126.352 142.997 129.202C142.963 130.017 142.775 130.739 142.522 131.505C142.142 132.655 141.719 133.736 141.141 134.725C139.003 138.659 135.321 141.375 131.026 142.136C123.09 143.508 115.544 139.271 108.423 128.612C100.542 116.494 100.076 106.823 106.63 99.5717C107.773 98.2958 109.049 97.2252 110.504 96.4286C113.628 94.5889 116.595 94.2412 119.32 95.5428C120.375 96.0087 121.258 96.7893 121.946 97.7033L124.21 100.606C124.898 101.52 126.168 101.74 127.079 101.117L133.706 96.2884C134.616 95.666 134.753 94.287 133.999 93.4175L125.931 83.9006C125.178 83.031 123.548 81.9695 123.548 81.9695C125.194 80.7451 126.884 79.5892 128.595 78.3204C132.711 75.4067 143.045 84.3634 147.109 88.0131C151.239 91.6184 148.99 115.312 148.99 115.312Z" fill="#4C5524"/>
<path d="M53.3125 132.34L69.9432 123.549L50.5893 115.918L53.3125 132.34Z" fill="#96F1FE"/>
<path d="M110.375 73.393C105.672 70.237 83.7336 62.2574 83.7336 62.2574L79.1005 74.4032L65.8008 68.1771L52.499 106.707L78.9719 115.856L84.9312 101.754L92.3208 105.023L91.0106 113.952C91.0106 113.952 113.02 102.879 113.629 96.9613C114.206 91.1239 115.078 76.549 110.375 73.393Z" fill="#96F1FE"/>
<path d="M45.2734 59.1659L47.5453 52.0006C47.5453 52.0006 33.3498 59.5674 33.4519 64.2898C33.6405 69.0493 43.1226 94.922 45.8152 92.1481C48.4212 89.337 56.1116 64.8482 56.1116 64.8482L45.2734 59.1659Z" fill="#96F1FE"/>
<path d="M121.981 98.1165C122.24 96.1541 121.75 90.6202 120.747 85.0449C120.013 80.9385 118.946 76.7785 117.718 73.8115C116.946 72.0337 116.11 70.6797 115.176 70.095C110.66 67.2373 52.0317 40.2245 45.1212 41.381C44.6572 41.4507 44.1655 41.5986 43.6738 41.7464C42.1708 42.2681 40.3209 43.271 38.4915 44.4631C31.9013 48.9152 24.5442 57.0039 24.0874 61.4964C23.9395 63.1461 25.1496 68.631 27.229 76.1159C32.0695 93.3653 41.3454 121.104 47.8588 135.38C50.3772 140.89 52.5387 144.442 53.847 144.467C54.8714 144.55 57.6769 143.33 61.4045 141.246C74.3813 134.148 99.5991 116.836 113.003 106.315C118.478 102.282 121.875 99.1532 121.981 98.1165ZM44.5969 90.4922C42.2113 93.2474 34.349 69.1873 34.2936 64.6534C34.2381 60.1195 46.8901 52.7002 46.8901 52.7002L44.1385 59.446L54.1412 64.4091C54.0929 64.2979 46.9547 87.8151 44.5969 90.4922ZM54.3099 131.319L51.0865 115.942L70.6104 123.766L54.3099 131.319ZM91.1872 112.833L92.2178 104.259L85.161 101.384L79.8584 115.053L54.6372 107.197L66.3097 69.9493L79.0183 75.4527L83.1135 63.6965C83.1135 63.6965 104.037 71.0434 108.525 73.9793C113.041 76.837 112.571 90.2532 112.133 95.9265C111.723 101.522 91.1872 112.833 91.1872 112.833Z" fill="#1B8691"/>
<path d="M140.824 55.4202C133.362 58.8658 130.512 60.6389 130.512 60.6389C130.512 60.6389 123.696 76.1296 126.581 79.7276C128.811 82.4036 150.672 93.2505 156.17 96.5685C157.105 97.1299 162.207 100.408 162.207 100.408L151.374 60.5329L142.95 64.309L140.824 55.4202Z" fill="#FDBAD1"/>
<path d="M183.38 114.109L191.493 98.5921L192.17 97.0017L171.638 85.2054L183.38 114.109Z" fill="#FDBAD1"/>
<path d="M193.475 35.4201L195.089 40.935L192.021 42.4134L173.09 79.8772L195.569 87.9853L202.066 76.1357C202.066 76.1357 212.377 53.6978 209.453 49.2247C206.677 44.9533 198.651 34.3961 193.475 35.4201Z" fill="#FDBAD1"/>
<path d="M174.027 50.8521L171.72 42.3479C168.338 43.6918 165.214 44.9473 162.261 46.1438L164.996 54.5008L160.107 56.8183L168.624 79.4125L177.679 49.1421L174.027 50.8521Z" fill="#FDBAD1"/>
<path d="M217.077 44.5571C216.238 43.1698 213.541 40.1604 210.248 37.1883C206.933 34.14 203.023 31.1291 199.873 29.5325C198.258 28.7477 196.834 28.3165 195.767 28.5163C190.591 29.4613 129.099 49.1354 124.306 54.6417C123.979 55.0056 123.732 55.3423 123.45 55.8584C121.839 58.3407 120.416 62.3508 119.396 66.557C117.843 73.3774 117.4 80.7373 119.121 83.664C119.748 84.6215 122.279 86.7664 126.122 89.549C139.646 99.3885 168.707 117.368 182.476 123.017C186.12 124.527 188.722 125.139 189.576 124.51C190.296 124.011 191.332 122.229 192.539 119.55C198.765 106.511 210.606 71.8437 215.225 54.4974C216.82 49.0034 217.558 45.3133 217.077 44.5571ZM160.198 98.3427C160.198 98.3427 155.772 95.342 154.92 94.7974C150.113 91.6766 130.978 81.5911 129.031 79.0772C126.423 75.7852 132.202 61.8107 132.202 61.8107C132.202 61.8107 134.697 60.2808 141.056 57.1682L141.078 57.2444L143.203 65.3956L150.45 62.0613L160.198 98.3427ZM161.034 56.823L165.36 54.7463L162.964 47.4427C165.514 46.3967 168.3 45.2694 171.243 44.0879L173.268 51.603L176.459 50.0848L168.598 76.7609L161.034 56.823ZM191.085 98.0108L183.104 113.331L171.553 84.7936L191.773 96.5167L191.085 98.0108ZM201.124 76.1157L195.732 87.8619L173.933 79.6159L192.042 42.7054L194.997 41.2684L193.394 35.7869C198.39 34.82 205.358 45.3255 208.154 49.5582C210.916 53.9702 201.124 76.1157 201.124 76.1157Z" fill="#D01878"/>
</svg>
