<svg width="773" height="694" viewBox="0 0 773 694" fill="none" xmlns="http://www.w3.org/2000/svg">
<g opacity="0.6">
<path d="M486.388 272.765C575.762 184.608 648.221 277.411 685.894 298.811L665.246 315.812C593.209 237.483 527.906 244.199 496.037 287.903C378.888 405.394 279.953 350.913 214.773 311.173C162.63 279.381 96.7913 314.828 80.1665 344.67L74.3419 325.253C123.561 272.098 196.005 277.325 224.944 295.964C279.999 327.067 368.791 388.761 486.388 272.765Z" fill="#4C5524"/>
<path d="M487.276 288.259C576.649 200.102 649.108 292.905 686.781 314.305L666.134 331.307C594.096 252.977 528.794 259.693 496.925 303.398C379.775 420.888 280.841 366.407 215.661 326.667C163.517 294.876 97.6787 330.322 81.0539 360.164L75.2294 340.747C124.449 287.592 196.893 292.819 225.831 311.458C280.887 342.561 369.678 404.256 487.276 288.259Z" fill="#C6DC68"/>
<path d="M490.91 303.388C580.284 215.231 652.743 308.034 690.416 329.434L669.768 346.435C597.731 268.106 532.429 274.822 500.559 318.526C383.41 436.017 284.475 381.536 219.296 341.796C167.152 310.004 101.313 345.451 84.6887 375.293L78.8642 355.876C128.083 302.721 200.528 307.948 229.466 326.587C284.521 357.69 373.313 419.384 490.91 303.388Z" fill="#1B8691"/>
<path d="M493.716 318.373C583.09 230.216 655.549 323.02 693.222 344.419L672.574 361.421C600.537 283.092 535.235 289.807 503.365 333.512C386.216 451.002 287.281 396.521 222.102 356.782C169.958 324.99 104.119 360.437 87.4946 390.278L81.6701 370.861C130.889 317.706 203.334 322.934 232.272 341.572C287.327 372.675 376.119 434.37 493.716 318.373Z" fill="#96F1FE"/>
<path d="M497.363 333.49C586.736 245.333 659.195 338.137 696.869 359.536L676.221 376.538C604.183 298.208 538.881 304.924 507.012 348.629C389.862 466.119 290.928 411.638 225.748 371.898C173.604 340.107 107.766 375.554 91.1411 405.395L85.3165 385.978C134.536 332.823 206.98 338.05 235.918 356.689C290.974 387.792 379.766 449.487 497.363 333.49Z" fill="#FDBAD1"/>
<path d="M500.475 348.955C589.848 260.798 662.307 353.602 699.981 375.001L679.333 392.003C607.295 313.674 541.993 320.39 510.124 364.094C392.975 481.584 294.04 427.104 228.86 387.364C176.716 355.572 110.878 391.019 94.2532 420.861L88.4286 401.443C137.648 348.289 210.092 353.516 239.031 372.155C294.086 403.258 382.878 464.952 500.475 348.955Z" fill="#D01878"/>
</g>
</svg>
