<svg width="1500" height="977" viewBox="0 0 1500 977" fill="none" xmlns="http://www.w3.org/2000/svg">
<g clip-path="url(#clip0_2170_1444)">
<g opacity="0.6">
<path d="M155.835 106.853C67.5344 -39.2097 -52.1653 49.304 -106.537 61.5005L-85.151 91.0063C29.7716 20.5603 111.187 54.6037 139.081 122.142C254.258 316.037 396.54 286.169 491.405 261.646C567.297 242.028 640.983 312.473 653.472 356.577L666.595 334.399C619.315 248.159 525.282 226.362 482.873 238.503C403.465 256.114 272.021 299.041 155.835 106.853Z" fill="#58644E"/>
<path d="M150.174 126.027C61.8729 -20.0359 -57.8268 68.4778 -112.198 80.6743L-90.8125 110.18C24.1101 39.7341 105.526 73.7775 133.42 141.316C248.596 335.21 390.879 305.343 485.744 280.82C561.635 261.202 635.322 331.647 647.81 375.751L660.934 353.573C613.654 267.333 519.621 245.536 477.211 257.677C397.804 275.287 266.36 318.215 150.174 126.027Z" fill="#C6DC68"/>
<path d="M141.088 143.657C52.7873 -2.40519 -66.9123 86.1085 -121.284 98.305L-99.8981 127.811C15.0246 57.3648 96.4403 91.4082 124.334 158.947C239.511 352.841 381.793 322.974 476.658 298.451C552.55 278.833 626.236 349.278 638.725 393.381L651.848 371.204C604.568 284.964 510.535 263.167 468.126 275.308C388.718 292.918 257.274 335.846 141.088 143.657Z" fill="#1B8691"/>
<path d="M133.137 161.416C44.8359 15.3534 -74.8638 103.867 -129.235 116.064L-107.85 145.569C7.07313 75.1234 88.4889 109.167 116.383 176.705C231.559 370.6 373.842 340.733 468.707 316.21C544.598 296.591 618.285 367.036 630.773 411.14L643.897 388.963C596.617 302.722 502.584 280.925 460.175 293.066C380.767 310.677 249.323 353.604 133.137 161.416Z" fill="#96F1FE"/>
<path d="M124.051 179.044C35.7504 32.9813 -83.9492 121.495 -138.32 133.691L-116.935 163.197C-2.01232 92.7513 79.4035 126.795 107.297 194.333C222.474 388.228 364.757 358.36 459.621 333.837C535.513 314.219 609.199 384.664 621.688 428.768L634.811 406.59C587.532 320.35 493.498 298.553 451.089 310.694C371.682 328.305 240.238 371.232 124.051 179.044Z" fill="#FDBAD1"/>
<path d="M115.547 197.307C27.2459 51.2443 -92.4537 139.758 -146.825 151.954L-125.439 181.46C-10.5168 111.014 70.899 145.058 98.7929 212.596C213.97 406.491 356.252 376.623 451.117 352.1C527.008 332.482 600.695 402.927 613.183 447.031L626.307 424.853C579.027 338.613 484.994 316.816 442.585 328.957C363.177 346.568 231.733 389.495 115.547 197.307Z" fill="#D01878"/>
</g>
<g opacity="0.6">
<path d="M1278.1 872.671C1382.7 1007.54 1491.36 905.768 1543.95 887.363L1519.3 860.529C1413.3 943.798 1328.49 919.403 1292.97 855.546C1156.13 676.279 1018.26 722.407 926.872 757.741C853.76 786.008 772.418 724.562 754.911 682.199L744.441 705.746C801.381 785.937 897.305 796.708 938.025 779.742C1014.86 753.063 1140.46 695.215 1278.1 872.671Z" fill="#58644E"/>
<path d="M1281.5 852.971C1386.11 987.836 1494.76 886.068 1547.36 867.663L1522.7 840.829C1416.7 924.098 1331.9 899.703 1296.38 835.845C1159.54 656.579 1021.67 702.707 930.277 738.041C857.165 766.308 775.823 704.861 758.316 662.499L747.846 686.046C804.786 766.236 900.71 777.008 941.43 760.042C1018.27 733.362 1143.86 675.515 1281.5 852.971Z" fill="#C6DC68"/>
<path d="M1288.49 834.407C1393.09 969.272 1501.75 867.504 1554.34 849.099L1529.69 822.266C1423.69 905.535 1338.88 881.14 1303.36 817.282C1166.52 638.015 1028.65 684.144 937.262 719.477C864.15 747.745 782.808 686.298 765.301 643.935L754.831 667.482C811.771 747.673 907.695 758.444 948.415 741.478C1025.25 714.799 1150.85 656.952 1288.49 834.407Z" fill="#1B8691"/>
<path d="M1294.33 815.848C1398.94 950.713 1507.59 848.945 1560.19 830.54L1535.53 803.706C1429.53 886.976 1344.72 862.58 1309.2 798.723C1172.37 619.456 1034.5 665.584 943.105 700.918C869.993 729.185 788.651 667.739 771.144 625.376L760.674 648.923C817.615 729.114 913.538 739.885 954.258 722.919C1031.09 696.24 1156.69 638.392 1294.33 815.848Z" fill="#96F1FE"/>
<path d="M1301.32 797.287C1405.92 932.152 1514.58 830.384 1567.17 811.979L1542.52 785.146C1436.52 868.415 1351.71 844.02 1316.19 780.162C1179.35 600.895 1041.48 647.024 950.09 682.358C876.978 710.625 795.636 649.178 778.129 606.815L767.659 630.362C824.6 710.553 920.523 721.324 961.243 704.358C1038.08 677.679 1163.67 619.832 1301.32 797.287Z" fill="#FDBAD1"/>
<path d="M1307.65 778.163C1412.26 913.028 1520.91 811.26 1573.51 792.855L1548.85 766.021C1442.85 849.291 1358.04 824.895 1322.52 761.038C1185.69 581.771 1047.82 627.899 956.426 663.233C883.313 691.5 801.971 630.054 784.464 587.691L773.995 611.238C830.935 691.429 926.858 702.2 967.578 685.234C1044.41 658.555 1170.01 600.707 1307.65 778.163Z" fill="#D01878"/>
</g>
</g>
<defs>
<clipPath id="clip0_2170_1444">
<rect width="1500" height="977" fill="white"/>
</clipPath>
</defs>
</svg>
