<svg width="84" height="37" viewBox="0 0 84 37" fill="none" xmlns="http://www.w3.org/2000/svg">
<path d="M81.4995 16.5602C81.419 16.5602 72.8125 16.4538 58.5631 15.9497C50.2538 15.6557 47.1447 13.908 45.9915 13.2931C44.7118 12.6106 43.7927 11.0949 43.1164 9.30986C42.4704 7.6048 42.9742 6.09469 43.5294 5.07733C44.1315 3.97375 45.4127 3.41787 46.8614 3.01682C49.1443 2.38482 51.3902 3.10969 52.6665 3.85019C54.7383 5.05232 56.2786 7.63184 57.5397 10.392C58.123 11.6686 58.019 13.5753 57.9214 15.5344C57.8556 16.8555 56.8548 17.6751 55.8341 18.3829C52.4185 20.7511 44.9479 20.8854 28.8095 20.6061C15.0023 20.3671 12.5524 17.3365 9.1398 16.1277C7.64102 15.5968 6.38476 15.1732 5.47543 14.5614C5.02252 14.2567 5.01685 13.5685 5.90358 12.5511C8.3011 9.80014 16.141 6.21622 23.1646 3.12696C31.9107 -0.719943 4.52259 14.3416 2.53393 16.1285C1.96653 17.0426 8.45445 22.3468 19.0554 29.9086C22.9538 32.6475 23.8447 33.156 26.0086 34.5007" stroke="#FF6D3B" stroke-width="5" stroke-linecap="round"/>
</svg>
