<svg width="84" height="37" viewBox="0 0 84 37" fill="none" xmlns="http://www.w3.org/2000/svg">
<path d="M2.5 16.5602C2.58054 16.5602 11.187 16.4538 25.4364 15.9497C33.7457 15.6557 36.8548 13.908 38.008 13.2931C39.2877 12.6106 40.2068 11.0949 40.8831 9.30986C41.5291 7.6048 41.0253 6.09469 40.4702 5.07733C39.868 3.97375 38.5868 3.41787 37.1382 3.01682C34.8552 2.38482 32.6093 3.10969 31.3331 3.85019C29.2612 5.05232 27.7209 7.63184 26.4598 10.392C25.8765 11.6686 25.9805 13.5753 26.0781 15.5344C26.1439 16.8555 27.1447 17.6751 28.1655 18.3829C31.581 20.7511 39.0516 20.8854 55.19 20.6061C68.9973 20.3671 71.4471 17.3365 74.8597 16.1277C76.3585 15.5968 77.6148 15.1732 78.5241 14.5614C78.977 14.2567 78.9827 13.5685 78.0959 12.5511C75.6984 9.80014 67.8585 6.21622 60.8349 3.12696C52.0888 -0.719943 79.4769 14.3416 81.4656 16.1285C82.033 17.0426 75.5451 22.3468 64.9441 29.9086C61.0458 32.6475 60.1548 33.156 57.9909 34.5007" stroke="#FF6D3B" stroke-width="5" stroke-linecap="round"/>
</svg>
