<svg width="1674" height="886" viewBox="0 0 1674 886" fill="none" xmlns="http://www.w3.org/2000/svg">
<path d="M633.269 164.74C340.772 388.619 150.943 258.023 92.5903 164.74V696.306H1603.59V240.126C1506.22 306.834 1265.58 400.225 1081.92 240.126C898.257 80.0267 706.293 123.161 633.269 164.74Z" fill="#F8AD83"/>
<path d="M161.296 176.48L176.46 130.153C178.196 124.968 178.1 121.565 176.171 119.944L176.011 119.809L176.461 119.273L193.608 133.686L193.158 134.221L192.943 134.041C191.3 132.66 189.79 132.244 188.414 132.794C187.067 133.308 186.015 134.741 185.259 137.092L174.529 169.222L204.603 153.351C206.597 152.284 207.604 150.905 207.623 149.215C207.708 147.518 206.816 145.823 204.947 144.13L205.397 143.594L215.846 152.377L215.396 152.913C214.687 152.378 213.72 152.114 212.495 152.121C211.306 152.158 210.032 152.368 208.674 152.75C207.382 153.127 206.182 153.612 205.074 154.205L161.832 176.93L161.296 176.48ZM179.664 190.471L180.047 189.884L180.106 189.923C181.512 190.841 182.926 191.151 184.347 190.853C185.768 190.554 186.938 189.702 187.856 188.295L200.408 169.07C201.378 167.585 201.818 166.229 201.729 165C201.678 163.796 200.676 162.557 198.722 161.281L199.105 160.695L205.084 164.599C207.076 165.9 208.741 166.68 210.076 166.939C211.334 167.147 212.362 167.066 213.161 166.696L213.747 167.079L196.296 193.806C195.378 195.213 195.068 196.627 195.366 198.047C195.665 199.468 196.517 200.638 197.924 201.557L197.982 201.595L197.6 202.181L179.664 190.471ZM211.879 160.592C210.473 159.674 209.594 158.459 209.243 156.948C208.956 155.423 209.272 153.958 210.191 152.551C211.109 151.144 212.311 150.285 213.797 149.973C215.347 149.648 216.825 149.944 218.232 150.863C219.6 151.756 220.427 152.964 220.713 154.489C221.039 156.039 220.755 157.498 219.862 158.866C218.969 160.233 217.748 161.08 216.197 161.405C214.686 161.756 213.247 161.485 211.879 160.592ZM209.757 208.929L210.06 208.298C211.575 209.026 213.007 209.17 214.356 208.731C215.769 208.271 216.848 207.262 217.596 205.706L234.874 169.741C235.601 168.226 235.703 166.774 235.18 165.384C234.7 164.014 233.702 162.965 232.188 162.238L232.491 161.607L238.927 164.699C241.072 165.729 242.824 166.286 244.182 166.369C245.456 166.411 246.464 166.197 247.208 165.726L247.839 166.029L226.682 210.071C225.934 211.627 225.801 213.09 226.282 214.46C226.825 215.808 227.854 216.846 229.368 217.574L229.065 218.205L209.757 208.929ZM244.521 224.363C241.488 223.281 239.051 221.57 237.211 219.228C235.415 216.903 234.327 214.187 233.949 211.079C233.587 207.927 234.018 204.637 235.24 201.209C236.495 197.693 238.318 194.875 240.709 192.755C243.1 190.635 245.807 189.297 248.83 188.74C251.912 188.155 255.058 188.434 258.266 189.579C260.947 190.535 263.133 191.909 264.822 193.701C266.556 195.509 267.693 197.599 268.234 199.972C268.834 202.317 268.776 204.773 268.058 207.341L267.771 208.354L245.618 200.452L245.501 200.781C243.839 205.44 243.539 209.545 244.601 213.095C245.679 216.601 247.955 218.973 251.427 220.212C253.537 220.964 255.717 221.172 257.968 220.835C260.278 220.47 262.34 219.62 264.154 218.286L264.677 218.695C263.13 220.67 261.26 222.233 259.066 223.382C256.872 224.532 254.526 225.206 252.027 225.405C249.528 225.604 247.026 225.256 244.521 224.363ZM246.037 199.486L259.421 204.26C260.66 200.788 261.092 197.771 260.717 195.21C260.386 192.664 259.21 191.03 257.188 190.309C255.254 189.619 253.274 190.102 251.246 191.757C249.219 193.412 247.483 195.989 246.037 199.486ZM275.445 248.462C270.605 247.436 266.819 245.942 264.087 243.98C261.39 242.073 260.264 240.069 260.709 237.969C261.048 236.371 262.106 235.093 263.883 234.134C265.697 233.23 268 232.716 270.793 232.593C266.734 230.588 264.999 228.193 265.589 225.408C265.908 223.901 266.797 222.635 268.255 221.608C269.722 220.536 271.611 219.839 273.921 219.517C271.851 218.029 270.38 216.191 269.508 214.003C268.682 211.824 268.545 209.434 269.096 206.831C269.899 203.042 271.843 200.282 274.929 198.551C278.061 196.829 281.841 196.437 286.269 197.376C288.369 197.821 290.356 198.576 292.229 199.64L304.829 202.31L303.883 203.398L294.57 201.424C296.174 202.861 297.266 204.572 297.848 206.555C298.484 208.503 298.556 210.641 298.063 212.969C297.26 216.758 295.311 219.541 292.215 221.318C289.175 223.059 285.418 223.456 280.944 222.508C278.479 221.985 276.387 221.161 274.67 220.034C273.045 220.5 272.121 221.258 271.899 222.309C271.705 223.222 272.214 223.973 273.424 224.564C274.025 224.882 274.904 225.235 276.062 225.623C277.22 226.012 278.639 226.408 280.318 226.812L282.686 227.456C287.897 228.751 291.725 230.612 294.168 233.038C296.658 235.473 297.568 238.266 296.901 241.416C296.156 244.931 293.891 247.29 290.107 248.491C286.313 249.739 281.425 249.729 275.445 248.462ZM281.049 221.671C282.465 221.971 283.856 221.145 285.224 219.193C286.5 217.221 287.516 214.455 288.27 210.894C289.034 207.288 289.228 204.347 288.851 202.073C288.419 199.835 287.496 198.566 286.08 198.266C284.619 197.956 283.26 198.742 282.003 200.622C280.737 202.548 279.721 205.314 278.957 208.921C278.193 212.527 277.994 215.491 278.361 217.81C278.738 220.085 279.634 221.372 281.049 221.671ZM276.387 247.731C278.487 248.176 280.495 248.267 282.41 248.006C284.317 247.789 285.911 247.245 287.193 246.371C288.521 245.508 289.335 244.368 289.635 242.953C289.963 241.401 289.426 239.999 288.021 238.748C286.516 237.522 284.033 236.519 280.573 235.738L278.206 235.094C276.891 234.767 275.678 234.415 274.566 234.036C273.489 233.713 272.537 233.368 271.708 233.001C270.682 233.118 269.839 233.607 269.179 234.469C268.519 235.331 268.049 236.424 267.769 237.748C267.266 240.122 267.754 242.205 269.235 243.997C270.716 245.79 273.1 247.034 276.387 247.731ZM313.416 238.85C310.206 238.594 307.408 237.575 305.022 235.793C302.683 234.015 300.926 231.674 299.753 228.772C298.584 225.823 298.144 222.534 298.433 218.906C298.73 215.184 299.757 211.989 301.515 209.32C303.272 206.652 305.538 204.655 308.312 203.332C311.136 201.965 314.246 201.417 317.642 201.688C320.48 201.914 322.947 202.673 325.045 203.963C327.189 205.258 328.83 206.98 329.97 209.131C331.159 211.239 331.741 213.626 331.716 216.293L331.703 217.345L308.257 215.476L308.229 215.825C307.836 220.756 308.614 224.797 310.563 227.948C312.516 231.053 315.33 232.752 319.005 233.045C321.238 233.223 323.397 232.857 325.483 231.947C327.618 230.993 329.388 229.636 330.793 227.876L331.404 228.135C330.424 230.445 329.025 232.44 327.205 234.12C325.386 235.801 323.296 237.062 320.935 237.904C318.574 238.746 316.067 239.061 313.416 238.85ZM308.41 214.435L322.575 215.564C322.868 211.889 322.501 208.863 321.473 206.488C320.492 204.115 318.931 202.844 316.791 202.673C314.744 202.51 312.957 203.491 311.43 205.617C309.903 207.742 308.897 210.681 308.41 214.435ZM330.815 239.345L330.789 238.646L330.859 238.643C332.538 238.582 333.872 238.02 334.86 236.956C335.849 235.893 336.313 234.522 336.251 232.843L335.414 209.898C335.349 208.126 334.926 206.764 334.144 205.811C333.409 204.858 331.875 204.423 329.544 204.508L329.518 203.809L336.444 203.556C338.915 203.466 340.772 203.165 342.014 202.652C343.255 202.094 344.117 201.408 344.601 200.597L344.951 200.584L345.439 212.054C345.995 210.633 346.711 209.136 347.587 207.563C348.51 205.988 349.676 204.661 351.084 203.582C352.537 202.455 354.29 201.854 356.342 201.779C357.042 201.754 357.79 201.797 358.588 201.908C359.386 202.019 360.235 202.245 361.135 202.585L358.705 210.869C356.992 209.998 355.499 209.399 354.226 209.071C353 208.743 351.921 208.595 350.988 208.629C349.403 208.687 348.231 209.22 347.474 210.228C346.764 211.235 346.153 212.425 345.643 213.798L346.325 232.475C346.386 234.154 346.948 235.488 348.012 236.476C349.075 237.465 350.446 237.928 352.125 237.867L352.195 237.865L352.22 238.564L330.815 239.345ZM377.02 236.52L376.882 235.834C378.484 235.512 379.609 234.953 380.258 234.157C380.944 233.305 381.296 232.33 381.314 231.232C381.377 230.125 381.285 228.953 381.037 227.718L373.49 190.108C373.159 188.46 372.367 187.239 371.112 186.444C369.904 185.639 368.476 185.402 366.829 185.733L366.691 185.046L373.691 183.641C376.025 183.173 377.759 182.563 378.893 181.812C379.936 181.079 380.613 180.301 380.923 179.477L381.61 179.339L386.843 205.419C387.592 202.747 389.018 200.485 391.122 198.635C393.217 196.739 395.614 195.52 398.313 194.979C400.464 194.547 402.395 194.683 404.107 195.387C405.809 196.045 407.215 197.119 408.323 198.61C409.477 200.092 410.261 201.863 410.674 203.921L414.42 222.589C414.76 224.282 415.534 225.531 416.743 226.336C417.988 227.085 419.434 227.295 421.081 226.964L421.219 227.651L400.286 231.851L400.149 231.165C401.796 230.834 403.026 230.088 403.84 228.925C404.69 227.707 404.946 226.252 404.606 224.559L400.722 205.205C400.52 204.198 400.167 203.15 399.663 202.062C399.15 200.927 398.445 200.021 397.547 199.345C396.686 198.613 395.615 198.376 394.334 198.633C393.145 198.872 392.074 199.467 391.123 200.42C390.208 201.317 389.422 202.379 388.764 203.606C388.106 204.833 387.585 206.032 387.201 207.204L390.92 225.735C391.168 226.97 391.512 228.091 391.952 229.097C392.437 230.094 393.138 230.858 394.053 231.388C395.006 231.864 396.282 231.941 397.884 231.619L398.021 232.306L377.02 236.52ZM435.947 224.232L413.229 197.497C412.469 196.606 411.608 195.942 410.645 195.504C409.727 195.052 408.613 195.002 407.305 195.352L407.101 194.682L425.848 188.964L426.053 189.633C424.545 190.289 423.729 191.294 423.606 192.649C423.527 193.99 424.146 195.46 425.463 197.058L437.281 211.091L439.311 193.274C439.445 192.111 439.361 191.038 439.062 190.056C438.722 188.94 438.108 188.127 437.22 187.618C436.333 187.108 435.266 186.969 434.02 187.203L433.816 186.534L444.395 183.307L444.599 183.976C443.52 184.598 442.608 185.608 441.864 187.006C441.119 188.404 440.609 190.17 440.333 192.303L436.55 224.048L435.947 224.232ZM467.542 212.775C464.544 213.95 461.583 214.259 458.658 213.701C455.776 213.127 453.172 211.791 450.847 209.695C448.505 207.556 446.67 204.792 445.341 201.403C443.979 197.927 443.504 194.604 443.916 191.436C444.328 188.267 445.491 185.48 447.406 183.075C449.347 180.611 451.903 178.756 455.075 177.513C457.725 176.475 460.276 176.076 462.727 176.319C465.221 176.544 467.451 177.374 469.417 178.809C471.409 180.184 472.978 182.075 474.122 184.483L474.57 185.435L452.672 194.018L452.8 194.344C454.605 198.95 457.074 202.243 460.206 204.223C463.321 206.16 466.594 206.456 470.027 205.11C472.112 204.293 473.893 203.018 475.37 201.287C476.873 199.495 477.87 197.5 478.362 195.302L479.025 195.268C479.155 197.773 478.77 200.18 477.87 202.487C476.97 204.795 475.643 206.844 473.889 208.634C472.134 210.424 470.019 211.805 467.542 212.775ZM452.354 193.015L465.584 187.83C464.239 184.397 462.584 181.838 460.62 180.152C458.7 178.448 456.74 177.989 454.741 178.772C452.83 179.521 451.652 181.186 451.21 183.765C450.767 186.344 451.149 189.428 452.354 193.015ZM483.426 205.617L483.127 204.984L483.19 204.955C484.709 204.237 485.714 203.195 486.204 201.829C486.694 200.462 486.58 199.019 485.863 197.5L476.061 176.737C475.304 175.134 474.378 174.048 473.285 173.481C472.233 172.894 470.653 173.098 468.543 174.094L468.244 173.461L474.51 170.503C476.747 169.447 478.335 168.439 479.276 167.479C480.196 166.477 480.719 165.507 480.844 164.571L481.161 164.421L486.125 174.773C486.076 173.248 486.145 171.589 486.331 169.798C486.56 167.987 487.109 166.309 487.979 164.763C488.871 163.155 490.246 161.912 492.103 161.036C492.736 160.737 493.441 160.481 494.218 160.269C494.995 160.057 495.864 159.931 496.825 159.89L497.853 168.461C495.936 168.335 494.327 168.371 493.029 168.572C491.772 168.752 490.722 169.042 489.878 169.44C488.443 170.117 487.576 171.069 487.277 172.293C487.02 173.498 486.928 174.832 486.999 176.295L494.978 193.196C495.696 194.715 496.738 195.72 498.104 196.21C499.471 196.7 500.914 196.587 502.433 195.869L502.496 195.84L502.795 196.473L483.426 205.617ZM541.754 176.558C538.968 178.172 536.087 178.924 533.111 178.815C530.175 178.682 527.4 177.755 524.785 176.034C522.146 174.273 519.915 171.817 518.09 168.668C516.219 165.437 515.247 162.225 515.176 159.03C515.105 155.835 515.834 152.905 517.364 150.239C518.91 147.509 521.157 145.29 524.105 143.583C526.568 142.156 529.029 141.377 531.489 141.246C533.988 141.092 536.318 141.576 538.478 142.698C540.655 143.756 542.491 145.389 543.986 147.597L544.573 148.47L524.222 160.261L524.397 160.564C526.877 164.844 529.815 167.727 533.21 169.211C536.581 170.656 539.862 170.454 543.052 168.606C544.99 167.483 546.559 165.954 547.757 164.019C548.972 162.021 549.657 159.898 549.811 157.651L550.462 157.517C550.968 159.974 550.951 162.411 550.41 164.828C549.869 167.245 548.866 169.471 547.402 171.506C545.938 173.54 544.055 175.224 541.754 176.558ZM523.756 159.318L536.052 152.194C534.203 149.004 532.181 146.724 529.985 145.353C527.829 143.96 525.823 143.801 523.965 144.877C522.189 145.906 521.276 147.729 521.228 150.346C521.18 152.963 522.023 155.953 523.756 159.318ZM556.38 167.085L555.995 166.501L556.054 166.462C557.457 165.538 558.305 164.365 558.598 162.943C558.891 161.521 558.575 160.109 557.652 158.705L545.026 139.529C544.051 138.047 542.982 137.103 541.819 136.695C540.696 136.261 539.159 136.686 537.211 137.969L536.826 137.385L542.614 133.574C544.602 132.265 545.981 131.05 546.751 129.928C547.443 128.858 547.779 127.883 547.758 127.002L548.342 126.617L553.79 134.764C553.469 132.07 553.931 129.419 555.175 126.812C556.42 124.205 558.192 122.144 560.492 120.63C563.103 118.911 565.753 118.395 568.441 119.084C571.168 119.746 573.456 121.481 575.304 124.287L585.774 140.19C586.698 141.593 587.871 142.441 589.293 142.734C590.715 143.027 592.127 142.712 593.53 141.788L593.589 141.749L593.974 142.334L576.142 154.075L575.757 153.49L575.815 153.451C577.218 152.528 578.067 151.355 578.359 149.933C578.652 148.51 578.337 147.098 577.413 145.695L566.558 129.207C565.275 127.258 563.859 125.956 562.309 125.3C560.799 124.618 559.42 124.688 558.173 125.509C556.964 126.305 556.044 127.665 555.412 129.59C554.793 131.45 554.573 133.578 554.754 135.973L566.071 153.162C566.995 154.566 568.167 155.414 569.59 155.707C571.012 155.999 572.424 155.684 573.827 154.76L573.886 154.722L574.271 155.306L556.38 167.085ZM607.388 133.364C604.791 135.269 602.008 136.327 599.038 136.538C596.105 136.722 593.246 136.099 590.461 134.67C587.648 133.203 585.165 131.002 583.012 128.067C580.804 125.057 579.492 121.968 579.077 118.799C578.663 115.631 579.072 112.639 580.306 109.824C581.55 106.943 583.545 104.495 586.292 102.48C588.587 100.796 590.95 99.7571 593.381 99.3627C595.849 98.9406 598.218 99.1709 600.486 100.054C602.764 100.871 604.765 102.297 606.489 104.331L607.167 105.136L588.203 119.049L588.41 119.331C591.337 123.32 594.567 125.869 598.102 126.98C601.61 128.053 604.85 127.499 607.822 125.318C609.628 123.993 611.023 122.304 612.006 120.252C612.999 118.134 613.451 115.95 613.363 113.7L613.995 113.497C614.763 115.885 615.009 118.309 614.731 120.771C614.453 123.232 613.696 125.553 612.459 127.733C611.223 129.914 609.532 131.791 607.388 133.364ZM587.639 118.161L599.096 109.755C596.915 106.783 594.659 104.734 592.328 103.608C590.035 102.454 588.023 102.512 586.292 103.782C584.636 104.997 583.926 106.908 584.159 109.514C584.393 112.121 585.553 115.003 587.639 118.161ZM633.513 114.906C632.513 115.594 631.737 116.071 631.185 116.338C630.632 116.605 630.085 116.84 629.545 117.042C629.042 117.217 628.399 117.518 627.616 117.944C626.833 118.37 625.691 119.098 624.192 120.13L615.348 110.241L616.098 109.725C619.2 112.916 622.231 114.852 625.192 115.533C628.127 116.176 630.594 115.81 632.593 114.434C634.554 113.085 635.757 111.663 636.201 110.168C636.683 108.646 636.448 107.193 635.496 105.809C634.887 104.925 634.128 104.315 633.217 103.979C632.318 103.578 631.092 103.402 629.539 103.45C627.96 103.46 625.904 103.601 623.371 103.871L621.064 104.099C618.129 104.362 615.601 104.063 613.478 103.201C611.367 102.274 609.677 100.888 608.407 99.0423C606.609 96.428 606.135 93.7231 606.987 90.9276C607.878 88.1056 609.919 85.5967 613.11 83.4011C613.917 82.8456 614.597 82.4343 615.15 82.1673C615.702 81.9003 616.249 81.6658 616.79 81.4637C617.33 81.2616 617.973 80.9609 618.718 80.5616C619.463 80.1623 620.412 79.5659 621.565 78.7723L628.761 87.5012L628.069 87.9773C626.595 86.3291 624.978 85.0908 623.219 84.2623C621.471 83.3689 619.795 82.9081 618.189 82.8799C616.557 82.8133 615.184 83.1635 614.069 83.9307C612.608 84.9359 611.7 86.1272 611.345 87.5045C611.028 88.8554 611.346 90.2228 612.298 91.6068C613.012 92.6448 614 93.3811 615.262 93.8156C616.536 94.1853 618.478 94.2085 621.088 93.8854L623.414 93.56C627.057 93.0923 630.01 93.1848 632.272 93.8377C634.534 94.4905 636.471 95.9895 638.085 98.3346C642.212 104.332 640.688 109.856 633.513 114.906ZM657.313 101.701C655.106 102.71 652.982 102.835 650.941 102.074C648.9 101.314 647.365 99.8094 646.337 97.56L635.131 73.0502L629.72 75.5242L629.342 74.6966C632.173 73.1455 634.356 71.0184 635.891 68.3154C637.469 65.593 638.36 62.4916 638.565 59.0114L639.583 58.5457L643.775 67.713L652.242 63.8419L652.129 65.2789L644.299 68.8589L654.864 91.9682C656.416 95.3635 658.338 96.5373 660.63 95.4895C661.394 95.1402 662.158 94.509 662.92 93.5958C663.725 92.6633 664.399 91.6113 664.941 90.4399L665.232 91.0765C664.646 93.4994 663.641 95.6779 662.217 97.6121C660.772 99.5039 659.138 100.867 657.313 101.701ZM682.996 92.1148C679.936 93.1178 676.962 93.2579 674.073 92.5351C671.228 91.7978 668.705 90.3168 666.502 88.0922C664.285 85.8232 662.61 82.9593 661.476 79.5004C660.313 75.9528 660.027 72.6088 660.619 69.4684C661.21 66.328 662.529 63.6118 664.577 61.3199C666.655 58.9691 669.313 57.2631 672.55 56.202C675.255 55.3153 677.824 55.0624 680.257 55.4435C682.734 55.8101 684.914 56.7654 686.795 58.3096C688.706 59.7949 690.165 61.7723 691.171 64.2418L691.564 65.2178L669.214 72.544L669.323 72.8766C670.864 77.5771 673.142 81.0049 676.156 83.1597C679.156 85.2703 682.408 85.7514 685.911 84.603C688.04 83.9053 689.89 82.7339 691.463 81.0889C693.065 79.3851 694.174 77.45 694.79 75.2837L695.454 75.287C695.442 77.7958 694.921 80.1765 693.891 82.4292C692.861 84.682 691.42 86.6523 689.567 88.3402C687.714 90.028 685.524 91.2862 682.996 92.1148ZM668.954 71.5244L682.457 67.0982C681.308 63.5949 679.802 60.9458 677.936 59.1508C676.115 57.3413 674.185 56.7709 672.145 57.4396C670.194 58.0791 668.924 59.674 668.336 62.2241C667.748 64.7742 667.954 67.8743 668.954 71.5244ZM743.333 80.5219L741.803 70.7001C741.052 73.265 739.685 75.4967 737.703 77.3953C735.713 79.2477 733.449 80.3625 730.91 80.7396C728.418 81.1099 726.062 80.6578 723.844 79.3832C721.626 78.1086 719.738 76.1953 718.179 73.6433C716.614 71.0451 715.574 68.015 715.06 64.553C714.484 60.6755 714.699 57.1995 715.704 54.125C716.756 51.0437 718.462 48.5494 720.821 46.6421C723.172 44.6887 726.033 43.4616 729.403 42.9611C731.295 42.6799 732.886 42.7503 734.176 43.1721C735.458 43.5477 736.687 44.3559 737.862 45.5967L735.877 32.2334C735.63 30.5716 734.9 29.3118 733.688 28.454C732.521 27.5893 731.107 27.2804 729.445 27.5273L729.343 26.8349L736.405 25.7858C738.713 25.4429 740.433 24.9515 741.564 24.3116C742.696 23.6718 743.454 22.8987 743.838 21.9924L744.531 21.8895L751.71 70.2192C751.957 71.8809 752.664 73.1441 753.83 74.0088C754.996 74.8735 756.434 75.179 758.141 74.9252L758.244 75.6176L751.182 76.6668C749.151 76.9685 747.566 77.4162 746.428 78.0099C745.335 78.5968 744.535 79.3998 744.025 80.419L743.333 80.5219ZM734.307 77.4043C735.369 77.2466 736.382 76.7658 737.348 75.9618C738.353 75.1048 739.212 74.0573 739.924 72.8192C740.637 71.581 741.108 70.308 741.338 68.9999L738.829 52.1053C738.186 49.37 737.165 47.2572 735.764 45.7668C734.409 44.2696 732.832 43.6547 731.032 43.9222C728.631 44.2787 726.988 46.0797 726.102 49.3252C725.262 52.5637 725.284 57.1603 726.169 63.115C727.671 73.2241 730.383 77.9872 734.307 77.4043ZM768.042 76.5081C765.197 76.5972 762.887 75.8991 761.113 74.4138C759.339 72.9286 758.412 70.9266 758.334 68.4078C758.3 67.335 758.455 66.3263 758.799 65.3818C759.142 64.3906 759.811 63.4125 760.808 62.4475C761.852 61.481 763.291 60.4789 765.126 59.4409C766.96 58.3564 769.399 57.2062 772.442 55.9904L778.874 53.4079L778.71 48.1605C778.627 45.5018 778.142 43.416 777.254 41.903C776.365 40.3434 775.174 39.5869 773.681 39.6336C771.91 39.7358 770.431 40.9493 769.243 43.2743C768.102 45.5978 767.385 48.7951 767.092 52.8662L759.4 48.7649C760.133 46.8277 761.293 45.1105 762.88 43.6135C764.468 42.1164 766.298 40.9386 768.372 40.0799C770.493 39.2198 772.72 38.7533 775.052 38.6803C779.017 38.5562 782.27 39.5749 784.812 41.7365C787.4 43.8499 788.753 46.819 788.873 50.6438L789.401 67.5055C789.485 70.2109 790.437 71.5351 792.256 71.4782C793.329 71.4446 794.36 70.8287 795.35 69.6305L795.925 70.1027C794.763 71.7732 793.336 73.1485 791.642 74.2287C789.948 75.3089 788.285 75.8745 786.653 75.9256C784.88 75.9811 783.322 75.4229 781.978 74.251C780.681 73.0777 779.837 71.4933 779.448 69.4979C777.236 71.9016 775.283 73.6669 773.591 74.7937C771.944 75.8724 770.094 76.4439 768.042 76.5081ZM773.153 72.006C774.18 71.9739 775.151 71.6867 776.068 71.1444C777.031 70.6007 778.101 69.7268 779.278 68.5227L778.903 54.3175L776.137 55.4546C773.786 56.4152 771.995 57.3817 770.765 58.354C769.534 59.2797 768.679 60.3102 768.201 61.4458C767.769 62.5798 767.576 63.8698 767.621 65.3158C767.684 67.3215 768.226 68.962 769.246 70.2374C770.312 71.4646 771.614 72.0542 773.153 72.006ZM811.564 91.7073C806.632 91.3242 802.684 90.3388 799.718 88.751C796.795 87.2134 795.416 85.3744 795.582 83.2342C795.709 81.6058 796.59 80.1998 798.227 79.0163C799.906 77.883 802.123 77.0722 804.875 76.5839C800.589 75.1275 798.555 72.9803 798.776 70.1422C798.895 68.6068 799.61 67.2347 800.921 66.0259C802.236 64.7706 804.017 63.8324 806.265 63.2113C804.018 62.007 802.319 60.3773 801.168 58.322C800.064 56.2703 799.615 53.9184 799.821 51.2664C800.121 47.4047 801.687 44.4137 804.52 42.2933C807.399 40.1766 811.095 39.2935 815.608 39.6441C817.748 39.8103 819.817 40.2986 821.813 41.109L834.655 42.1064L833.859 43.3084L824.368 42.5712C826.146 43.7859 827.453 45.3384 828.289 47.2288C829.175 49.0763 829.526 51.1865 829.342 53.5594C829.042 57.4211 827.474 60.4354 824.637 62.6022C821.851 64.7262 818.178 65.6111 813.619 65.2569C811.106 65.0618 808.925 64.5179 807.075 63.6253C805.525 64.3006 804.708 65.1733 804.625 66.2435C804.553 67.174 805.156 67.8527 806.433 68.2796C807.07 68.5163 807.988 68.7514 809.187 68.9849C810.386 69.2185 811.844 69.4253 813.562 69.6056L815.994 69.9349C821.33 70.5366 825.368 71.88 828.108 73.9651C830.895 76.0538 832.163 78.7034 831.914 81.9137C831.636 85.4962 829.699 88.1309 826.104 89.8175C822.506 91.5508 817.659 92.1807 811.564 91.7073ZM813.614 64.414C815.056 64.5261 816.328 63.5248 817.428 61.4104C818.435 59.2887 819.08 56.4133 819.362 52.7842C819.647 49.1086 819.454 46.1682 818.783 43.9629C818.062 41.8006 816.98 40.6634 815.538 40.5513C814.049 40.4357 812.804 41.3922 811.804 43.4208C810.801 45.496 810.156 48.3714 809.87 52.047C809.585 55.7226 809.776 58.6863 810.444 60.9381C811.115 63.1434 812.172 64.302 813.614 64.414ZM812.402 90.8596C814.543 91.0259 816.545 90.8538 818.41 90.3433C820.272 89.8794 821.781 89.1307 822.938 88.0972C824.141 87.0673 824.799 85.8312 824.911 84.3888C825.034 82.8069 824.317 81.4875 822.761 80.4305C821.108 79.4128 818.516 78.7433 814.983 78.4221L812.552 78.0928C811.206 77.9415 809.957 77.7509 808.805 77.521C807.695 77.3412 806.706 77.1239 805.836 76.8691C804.834 77.1189 804.062 77.7143 803.521 78.6552C802.98 79.5961 802.657 80.7412 802.552 82.0905C802.364 84.5099 803.121 86.5112 804.824 88.0944C806.526 89.6777 809.053 90.5994 812.402 90.8596Z" fill="#272727"/>
</svg>
