<svg width="133" height="33" viewBox="0 0 133 33" fill="none" xmlns="http://www.w3.org/2000/svg">
<path d="M3 29.4359C7.5402 29.4359 19.5321 29.004 27.1173 26.8699C46.995 21.2774 57.4766 10.8652 61.0811 5.64794C61.6707 4.79444 60.2667 3.73782 58.8606 3.2916C55.5971 2.25594 51.1689 4.14085 47.3919 6.41565C44.6829 8.04722 43.2796 10.5448 42.2457 13.9584C41.6439 15.9453 41.8093 18.6384 42.2551 20.3068C43.6786 25.6355 54.052 25.8144 65.6409 25.6458C74.7286 25.5136 85.1641 19.1062 94.3654 14.1978C97.1607 12.7067 98.7164 10.8661 99.9571 8.88245C100.563 7.91332 100.774 6.85342 100.374 6.11613C99.4935 4.4973 96.357 4.51011 93.6998 4.81064C91.0573 5.10951 89.2623 7.20681 87.9158 9.00781C86.5501 10.8346 86.5214 14.1791 87.0249 17.8447C87.4515 20.9501 91.4466 22.6672 97.0179 24.7231C106.573 28.2489 110.834 29.1792 129.061 29.4359" stroke="#FF6D3B" stroke-width="6" stroke-linecap="round"/>
</svg>
