<svg width="1073" height="908" viewBox="0 0 1073 908" fill="none" xmlns="http://www.w3.org/2000/svg">
<g opacity="0.6">
<path d="M688.028 345.649C827.223 222.261 911.4 323.082 959.853 342.671L928.282 367.063C842.162 283.866 750.528 303.475 698.752 362.474C515.959 526.576 388.416 477.232 305.06 440.021C238.376 410.251 140.983 465.083 112.745 504.472L108.065 481.748C185.526 408.165 284.969 401.911 321.804 419.649C392.642 448.068 504.875 508.002 688.028 345.649Z" fill="#4C5524"/>
<path d="M686.552 364.439C825.748 241.051 909.925 341.872 958.378 361.461L926.807 385.852C840.687 302.655 749.053 322.265 697.277 381.264C514.484 545.365 386.941 496.022 303.585 458.81C236.901 429.041 139.508 483.873 111.27 523.261L106.59 500.537C184.051 426.955 283.494 420.701 320.329 438.439C391.167 466.858 503.4 526.792 686.552 364.439Z" fill="#C6DC68"/>
<path d="M688.947 382.302C828.142 258.914 912.319 359.735 960.772 379.324L929.201 403.715C843.081 320.518 751.447 340.128 699.671 399.127C516.878 563.228 389.335 513.885 305.979 476.673C239.295 446.904 141.902 501.736 113.664 541.125L108.984 518.4C186.445 444.818 285.888 438.564 322.723 456.302C393.561 484.721 505.794 544.655 688.947 382.302Z" fill="#1B8691"/>
<path d="M690.218 400.134C829.413 276.747 913.591 377.568 962.044 397.156L930.473 421.548C844.353 338.351 752.719 357.961 700.942 416.96C518.149 581.061 390.606 531.718 307.251 494.506C240.566 464.737 143.174 519.569 114.935 558.957L110.256 536.233C187.716 462.651 287.16 456.397 323.994 474.135C394.832 502.554 507.065 562.488 690.218 400.134Z" fill="#96F1FE"/>
<path d="M692.631 417.981C831.826 294.593 916.003 395.414 964.456 415.003L932.886 439.395C846.765 356.197 755.131 375.807 703.355 434.806C520.562 598.907 393.019 549.564 309.663 512.352C242.979 482.583 145.587 537.415 117.348 576.804L112.668 554.079C190.129 480.497 289.572 474.243 326.407 491.981C397.245 520.4 509.478 580.334 692.631 417.981Z" fill="#FDBAD1"/>
<path d="M694.242 436.347C833.438 312.959 917.615 413.78 966.068 433.369L934.497 457.761C848.377 374.563 756.743 394.173 704.966 453.172C522.174 617.273 394.631 567.93 311.275 530.718C244.591 500.949 147.198 555.781 118.959 595.17L114.28 572.445C191.741 498.863 291.184 492.609 328.019 510.347C398.857 538.766 511.09 598.7 694.242 436.347Z" fill="#D01878"/>
</g>
</svg>
