<svg width="1043" height="685" viewBox="0 0 1043 685" fill="none" xmlns="http://www.w3.org/2000/svg">
<g opacity="0.6">
<path d="M324.751 327.248C130.566 282.558 112.812 481.684 80.75 546.745L122.751 552.248C152.25 374.245 245.075 324.235 324.751 357.748C580.931 419.1 666.589 250.702 719.751 134.248C762.281 41.0844 880.251 31.748 927.803 59.3208L919.063 26.183C808.207 -5.02635 716.008 68.6159 693.252 121.745C646.253 216.58 580.259 386.051 324.751 327.248Z" fill="#4C5524"/>
<path d="M336.751 350.252C142.566 305.562 124.812 504.688 92.75 569.748L134.751 575.252C164.25 397.248 257.075 347.239 336.751 380.752C592.931 442.103 678.589 273.706 731.751 157.251C774.281 64.088 892.251 54.7515 939.803 82.3243L931.063 49.1866C820.207 17.9772 728.008 91.6194 705.252 144.748C658.253 239.584 592.259 409.054 336.751 350.252Z" fill="#C6DC68"/>
<path d="M344.751 375.252C150.566 330.562 132.812 529.688 100.75 594.748L142.751 600.252C172.25 422.248 265.075 372.239 344.751 405.752C600.931 467.103 686.589 298.706 739.751 182.251C782.281 89.088 900.251 79.7515 947.803 107.324L939.063 74.1866C828.207 42.9772 736.008 116.619 713.252 169.748C666.253 264.584 600.259 434.054 344.751 375.252Z" fill="#1B8691"/>
<path d="M353.751 399.252C159.566 354.562 141.812 553.688 109.75 618.748L151.751 624.252C181.25 446.248 274.075 396.239 353.751 429.752C609.931 491.103 695.589 322.706 748.751 206.251C791.281 113.088 909.251 103.752 956.803 131.324L948.063 98.1866C837.207 66.9772 745.008 140.619 722.252 193.748C675.253 288.584 609.259 458.054 353.751 399.252Z" fill="#96F1FE"/>
<path d="M361.751 424.252C167.566 379.562 149.812 578.688 117.75 643.748L159.751 649.252C189.25 471.248 282.075 421.239 361.751 454.752C617.931 516.103 703.589 347.706 756.751 231.251C799.281 138.088 917.251 128.752 964.803 156.324L956.063 123.187C845.207 91.9772 753.008 165.619 730.252 218.748C683.253 313.584 617.259 483.054 361.751 424.252Z" fill="#FDBAD1"/>
<path d="M370.751 449.252C176.566 404.562 158.812 603.688 126.75 668.748L168.751 674.252C198.25 496.248 291.075 446.239 370.751 479.752C626.931 541.103 712.589 372.706 765.751 256.251C808.281 163.088 926.251 153.752 973.803 181.324L965.063 148.187C854.207 116.977 762.008 190.619 739.252 243.748C692.253 338.584 626.259 508.054 370.751 449.252Z" fill="#D01878"/>
</g>
</svg>
