<svg width="330" height="60" viewBox="0 0 330 60" fill="none" xmlns="http://www.w3.org/2000/svg">
<g clip-path="url(#clip0_1332_2111)">
<rect width="330" height="60" fill="#303030"/>
<g opacity="0.73">
<rect width="20.765" height="109.739" transform="matrix(-0.824967 -0.565182 -0.55321 0.833042 196.766 -15.264)" fill="#D01878"/>
<rect width="20.765" height="98.8972" transform="matrix(-0.824967 -0.565182 -0.55321 0.833042 168.623 -8.26404)" fill="#FDBAD1"/>
<rect width="20.765" height="87.3986" transform="matrix(-0.824967 -0.565182 -0.55321 0.833042 141.588 -2.26404)" fill="#FF6D3B"/>
<rect width="20.765" height="89.108" transform="matrix(-0.824967 -0.565182 -0.55321 0.833042 118.942 -3.26404)" fill="#23A2AF"/>
<rect width="20.765" height="89.108" transform="matrix(-0.824967 -0.565182 -0.55321 0.833042 96.2979 -4.26404)" fill="#96F1FE"/>
<rect width="20.765" height="89.108" transform="matrix(-0.824967 -0.565182 -0.55321 0.833042 71.6846 -3.26404)" fill="#34562A"/>
<rect width="20.765" height="109.739" transform="matrix(-0.824967 -0.565182 -0.55321 0.833042 385.507 -15.264)" fill="#D01878"/>
<rect width="20.765" height="98.8972" transform="matrix(-0.824967 -0.565182 -0.55321 0.833042 357.364 -8.26404)" fill="#FDBAD1"/>
<rect width="20.765" height="87.3986" transform="matrix(-0.824967 -0.565182 -0.55321 0.833042 330.329 -2.26404)" fill="#FF6D3B"/>
<rect width="20.765" height="89.108" transform="matrix(-0.824967 -0.565182 -0.55321 0.833042 307.684 -3.26404)" fill="#23A2AF"/>
<rect width="20.765" height="89.108" transform="matrix(-0.824967 -0.565182 -0.55321 0.833042 285.039 -4.26404)" fill="#96F1FE"/>
<rect width="20.765" height="89.108" transform="matrix(-0.824967 -0.565182 -0.55321 0.833042 260.426 -3.26404)" fill="#34562A"/>
<rect width="20.765" height="92.2037" transform="matrix(-0.824967 -0.565182 -0.55321 0.833042 48.7832 -4.8429)" fill="#80C86A"/>
<rect width="20.765" height="108.943" transform="matrix(-0.824967 -0.565182 -0.55321 0.833042 237.398 -3.20813)" fill="#80C86A"/>
<rect width="20.765" height="89.108" transform="matrix(-0.824967 -0.565182 -0.55321 0.833042 24.4258 -4.26404)" fill="#C6DC68"/>
<rect width="20.765" height="95.5186" transform="matrix(-0.824967 -0.565182 -0.55321 0.833042 213.973 -4.60437)" fill="#C6DC68"/>
</g>
</g>
<defs>
<clipPath id="clip0_1332_2111">
<rect width="330" height="60" fill="white"/>
</clipPath>
</defs>
</svg>
