<svg width="1893" height="1504" viewBox="0 0 1893 1504" fill="none" xmlns="http://www.w3.org/2000/svg">
<g opacity="0.6">
<path d="M384.835 370.853C296.534 224.79 176.835 313.304 122.463 325.501L143.849 355.006C258.772 284.56 340.187 318.604 368.081 386.142C483.258 580.037 625.54 550.169 720.405 525.646C796.297 506.028 869.983 576.473 882.472 620.577L895.595 598.399C848.315 512.159 754.282 490.362 711.873 502.503C632.465 520.114 501.021 563.041 384.835 370.853Z" fill="#58644E"/>
<path d="M379.174 390.027C290.873 243.964 171.173 332.478 116.802 344.674L138.187 374.18C253.11 303.734 334.526 337.778 362.42 405.316C477.596 599.21 619.879 569.343 714.744 544.82C790.635 525.202 864.322 595.647 876.81 639.751L889.934 617.573C842.654 531.333 748.621 509.536 706.211 521.677C626.804 539.287 495.36 582.215 379.174 390.027Z" fill="#C6DC68"/>
<path d="M370.088 407.657C281.787 261.595 162.088 350.109 107.716 362.305L129.102 391.811C244.025 321.365 325.44 355.408 353.334 422.947C468.511 616.841 610.793 586.974 705.658 562.451C781.55 542.833 855.236 613.278 867.725 657.381L880.848 635.204C833.568 548.964 739.535 527.167 697.126 539.308C617.718 556.918 486.274 599.846 370.088 407.657Z" fill="#1B8691"/>
<path d="M362.137 425.416C273.836 279.353 154.136 367.867 99.765 380.063L121.15 409.569C236.073 339.123 317.489 373.167 345.383 440.705C460.559 634.6 602.842 604.732 697.707 580.209C773.598 560.591 847.285 631.036 859.773 675.14L872.897 652.962C825.617 566.722 731.584 544.925 689.175 557.066C609.767 574.677 478.323 617.604 362.137 425.416Z" fill="#96F1FE"/>
<path d="M353.051 443.044C264.75 296.981 145.051 385.495 90.6796 397.692L112.065 427.197C226.988 356.751 308.403 390.795 336.297 458.333C451.474 652.228 593.757 622.36 688.621 597.838C764.513 578.219 838.199 648.664 850.688 692.768L863.811 670.591C816.532 584.35 722.498 562.553 680.089 574.694C600.682 592.305 469.238 635.232 353.051 443.044Z" fill="#FDBAD1"/>
<path d="M344.547 461.307C256.246 315.244 136.546 403.758 82.175 415.954L103.561 445.46C218.483 375.014 299.899 409.058 327.793 476.596C442.97 670.491 585.252 640.623 680.117 616.1C756.008 596.482 829.695 666.927 842.183 711.031L855.307 688.853C808.027 602.613 713.994 580.816 671.585 592.957C592.177 610.568 460.733 653.495 344.547 461.307Z" fill="#D01878"/>
</g>
<g opacity="0.6">
<path d="M1507.1 1136.67C1611.7 1271.54 1720.36 1169.77 1772.95 1151.36L1748.3 1124.53C1642.3 1207.8 1557.49 1183.4 1521.97 1119.55C1385.13 940.279 1247.26 986.407 1155.87 1021.74C1082.76 1050.01 1001.42 988.562 983.911 946.199L973.441 969.746C1030.38 1049.94 1126.3 1060.71 1167.02 1043.74C1243.86 1017.06 1369.46 959.215 1507.1 1136.67Z" fill="#58644E"/>
<path d="M1510.5 1116.97C1615.11 1251.84 1723.76 1150.07 1776.36 1131.66L1751.7 1104.83C1645.7 1188.1 1560.9 1163.7 1525.38 1099.85C1388.54 920.579 1250.67 966.707 1159.28 1002.04C1086.16 1030.31 1004.82 968.861 987.316 926.499L976.846 950.046C1033.79 1030.24 1129.71 1041.01 1170.43 1024.04C1247.27 997.362 1372.86 939.515 1510.5 1116.97Z" fill="#C6DC68"/>
<path d="M1517.49 1098.41C1622.09 1233.27 1730.75 1131.5 1783.34 1113.1L1758.69 1086.27C1652.69 1169.53 1567.88 1145.14 1532.36 1081.28C1395.52 902.015 1257.65 948.144 1166.26 983.477C1093.15 1011.74 1011.81 950.298 994.3 907.935L983.831 931.482C1040.77 1011.67 1136.69 1022.44 1177.41 1005.48C1254.25 978.799 1379.85 920.952 1517.49 1098.41Z" fill="#1B8691"/>
<path d="M1523.33 1079.85C1627.94 1214.71 1736.59 1112.94 1789.19 1094.54L1764.53 1067.71C1658.53 1150.98 1573.72 1126.58 1538.2 1062.72C1401.37 883.456 1263.5 929.584 1172.11 964.918C1098.99 993.185 1017.65 931.739 1000.14 889.376L989.674 912.923C1046.61 993.114 1142.54 1003.89 1183.26 986.919C1260.09 960.24 1385.69 902.392 1523.33 1079.85Z" fill="#96F1FE"/>
<path d="M1530.32 1061.29C1634.92 1196.15 1743.58 1094.38 1796.17 1075.98L1771.52 1049.15C1665.52 1132.41 1580.71 1108.02 1545.19 1044.16C1408.35 864.895 1270.48 911.024 1179.09 946.358C1105.98 974.625 1024.64 913.178 1007.13 870.815L996.659 894.362C1053.6 974.553 1149.52 985.324 1190.24 968.358C1267.08 941.679 1392.67 883.832 1530.32 1061.29Z" fill="#FDBAD1"/>
<path d="M1536.65 1042.16C1641.26 1177.03 1749.91 1075.26 1802.51 1056.85L1777.85 1030.02C1671.85 1113.29 1587.04 1088.9 1551.52 1025.04C1414.69 845.771 1276.82 891.899 1185.43 927.233C1112.31 955.5 1030.97 894.054 1013.46 851.691L1002.99 875.238C1059.93 955.429 1155.86 966.2 1196.58 949.234C1273.41 922.555 1399.01 864.707 1536.65 1042.16Z" fill="#D01878"/>
</g>
</svg>
