<svg width="29" height="21" viewBox="0 0 29 21" fill="none" xmlns="http://www.w3.org/2000/svg">
<path d="M1.05858 7.98264C1.38048 8.3734 1.79436 8.81998 2.23124 9.30378C2.62212 9.71315 3.036 10.1783 3.47287 10.6435C4.27764 11.4809 6.0941 13.3044 6.0941 13.3044C6.0941 13.3044 7.97955 15.1279 8.87629 15.9653C9.91098 16.9329 10.9457 17.8447 11.8424 18.6076C12.3023 18.9983 12.7392 19.3519 13.13 19.6496C14.3027 20.5614 15.1764 21.0824 15.5443 20.9893C15.8203 20.9149 16.4411 20.4125 17.2228 19.6496C17.5447 19.3519 17.8896 18.9983 18.2575 18.6076C18.9933 17.8447 19.8441 16.9329 20.6948 15.9653C21.4536 15.1093 22.2814 14.2162 23.0401 13.3044C23.7989 12.4298 24.5807 11.4995 25.2475 10.6807C26.0293 9.71315 26.788 8.76416 27.3859 7.98264C28.3516 6.68011 29.0644 5.54505 28.9954 5.34037C28.8344 4.87518 27.4089 2.6981 27.3859 2.66088C26.834 1.91658 26.1902 1.20949 25.6154 0.744302C25.2475 0.446581 24.9026 0.241898 24.6037 0.204683C24.0518 0.130253 21.0627 0.0372151 17.4758 0H11.2216C7.51969 0.0558227 4.30063 0.204683 3.65682 0.539619C3.54185 0.595442 3.42688 0.669872 3.31192 0.744302C2.96702 0.986201 2.57613 1.35835 2.23124 1.76772C2.0013 2.04683 1.77137 2.34455 1.54144 2.66088C1.54144 2.66088 0.414768 4.52164 0.161842 5.32176C0.000889203 5.82417 -0.0450973 6.27075 0.0468757 6.58708C0.115856 6.81037 0.483748 7.33138 1.05858 7.98264ZM6.02512 5.32176C6.02512 5.30315 6.04812 5.28455 6.04812 5.26594C6.30104 4.78214 6.64594 4.29835 6.99084 3.88898C7.22077 3.62847 7.45071 3.40518 7.65765 3.25632C7.72663 3.2005 7.79561 3.16329 7.86459 3.12607C8.89928 2.60506 19.8211 2.80974 20.6948 2.92139C20.8788 2.93999 21.0857 3.07025 21.3156 3.25632C21.6835 3.55404 22.0974 4.01923 22.4423 4.50303C22.5803 4.70771 22.8102 5.06126 22.9022 5.21012C22.9252 5.22872 22.9252 5.24733 22.9252 5.26594C22.9252 5.28455 22.9482 5.28455 22.9482 5.28455C22.9482 5.30315 22.9712 5.32176 22.9712 5.34037C23.1781 5.67531 23.3161 5.97303 23.3391 6.10328C23.385 6.23353 23.0171 6.81037 22.3963 7.61049C22.3733 7.6291 22.3044 7.72214 22.2124 7.83378C22.1894 7.871 22.1434 7.90821 22.1204 7.94543C21.6375 8.55948 20.6258 9.8434 20.005 10.5691C20.005 10.5877 19.982 10.5877 19.982 10.6063C19.2233 11.4995 18.4185 12.4112 17.7057 13.1928C17.6827 13.2114 17.6827 13.23 17.6597 13.23C17.1079 13.8254 16.579 14.365 16.1652 14.7744C15.6823 15.2396 15.3144 15.5373 15.1305 15.5931C14.9235 15.649 14.3717 15.3326 13.6589 14.7744C13.13 14.365 12.5092 13.8254 11.8194 13.23C11.7964 13.2114 11.7964 13.1928 11.7734 13.1928C10.8767 12.3926 9.91098 11.4623 9.01425 10.5691C8.27846 9.82479 6.76091 8.20593 6.53098 7.94543L6.50798 7.92682C6.02512 7.36859 5.70322 6.95923 5.65723 6.81037C5.54227 6.47543 5.72621 5.9172 6.02512 5.32176Z" fill="#FFFDF9"/>
<path d="M15.2255 17.7693L3.48047 5.6539L5.65547 2.01929H22.6205L25.6655 5.6539L15.2255 17.7693Z" fill="#FFFDF9"/>
</svg>
