<svg width="53" height="1620" viewBox="0 0 53 1620" fill="none" xmlns="http://www.w3.org/2000/svg">
<path d="M26.5 2.5C26.5 2.53068 26.5 2.56137 26.5 16.05C26.5 29.5386 26.5 56.4842 26.305 70.8227C26.017 92.0046 24.5748 104.198 23.579 113.289C23.037 118.237 22.5047 122.112 21.0993 126.3C20.3936 128.404 18.511 130.09 15.753 131.13C14.3649 131.653 12.2494 131.609 10.5639 131.322C7.1112 130.735 5.22362 128.786 3.73809 127.026C2.34883 125.38 2.27466 122.812 2.80342 119.931C3.03231 118.684 4.38967 117.958 5.90134 117.433C9.00366 116.355 13.8212 116.338 18.1932 116.683C25.7027 117.276 25.5436 123.164 25.9615 128.873C26.0555 131.852 26.2436 136.909 26.2385 153.138C26.2333 169.366 26.0291 196.612 26.2428 225.5" stroke="#FF6D3B" stroke-width="5" stroke-linecap="round"/>
<path d="M26.5 362.5C26.5 362.531 26.5 362.561 26.5 375.989C26.5 389.417 26.5 416.242 26.305 430.516C26.017 451.603 24.5748 463.742 23.579 472.792C23.037 477.718 22.5047 481.575 21.0993 485.745C20.3936 487.84 18.511 489.518 15.753 490.553C14.3649 491.074 12.2494 491.03 10.5639 490.745C7.1112 490.16 5.22362 488.22 3.73809 486.468C2.34883 484.829 2.27466 482.273 2.80342 479.405C3.03231 478.163 4.38967 477.44 5.90134 476.917C9.00366 475.844 13.8212 475.827 18.1932 476.171C25.7027 476.761 25.5436 482.623 25.9615 488.307C26.0555 491.272 26.2436 496.307 26.2385 512.462C26.2333 528.617 26.0291 555.741 26.2428 584.5" stroke="#FF6D3B" stroke-width="5" stroke-linecap="round"/>
<path d="M26.5 722.5C26.5 722.531 26.5 722.561 26.5 735.989C26.5 749.417 26.5 776.242 26.305 790.516C26.017 811.603 24.5748 823.742 23.579 832.792C23.037 837.718 22.5047 841.575 21.0993 845.745C20.3936 847.84 18.511 849.518 15.753 850.553C14.3649 851.074 12.2494 851.03 10.5639 850.745C7.1112 850.16 5.22362 848.22 3.73809 846.468C2.34883 844.829 2.27466 842.273 2.80342 839.405C3.03231 838.163 4.38967 837.44 5.90134 836.917C9.00366 835.844 13.8212 835.827 18.1932 836.171C25.7027 836.761 25.5436 842.623 25.9615 848.307C26.0555 851.272 26.2436 856.307 26.2385 872.462C26.2333 888.617 26.0291 915.741 26.2428 944.5" stroke="#FF6D3B" stroke-width="5" stroke-linecap="round"/>
<path d="M26.5 1058.5C26.5 1058.53 26.5 1058.56 26.5 1072.05C26.5 1085.54 26.5 1112.48 26.305 1126.82C26.017 1148 24.5748 1160.2 23.579 1169.29C23.037 1174.24 22.5047 1178.11 21.0993 1182.3C20.3936 1184.4 18.511 1186.09 15.753 1187.13C14.3649 1187.65 12.2494 1187.61 10.5639 1187.32C7.1112 1186.73 5.22362 1184.79 3.73809 1183.03C2.34883 1181.38 2.27466 1178.81 2.80342 1175.93C3.03231 1174.68 4.38967 1173.96 5.90134 1173.43C9.00366 1172.35 13.8212 1172.34 18.1932 1172.68C25.7027 1173.28 25.5436 1179.16 25.9615 1184.87C26.0555 1187.85 26.2436 1192.91 26.2385 1209.14C26.2333 1225.37 26.0291 1252.61 26.2428 1281.5" stroke="#FF6D3B" stroke-width="5" stroke-linecap="round"/>
<path d="M26.5 1394.5C26.5 1394.53 26.5 1394.56 26.5 1408.05C26.5 1421.54 26.5 1448.48 26.305 1462.82C26.017 1484 24.5748 1496.2 23.579 1505.29C23.037 1510.24 22.5047 1514.11 21.0993 1518.3C20.3936 1520.4 18.511 1522.09 15.753 1523.13C14.3649 1523.65 12.2494 1523.61 10.5639 1523.32C7.1112 1522.73 5.22362 1520.79 3.73809 1519.03C2.34883 1517.38 2.27466 1514.81 2.80342 1511.93C3.03231 1510.68 4.38967 1509.96 5.90134 1509.43C9.00366 1508.35 13.8212 1508.34 18.1932 1508.68C25.7027 1509.28 25.5436 1515.16 25.9615 1520.87C26.0555 1523.85 26.2436 1528.91 26.2385 1545.14C26.2333 1561.37 26.0291 1588.61 26.2428 1617.5" stroke="#FF6D3B" stroke-width="5" stroke-linecap="round"/>
<path d="M26.5 185.5C26.5 185.531 26.5 185.561 26.5 198.989C26.5 212.417 26.5 239.242 26.695 253.516C26.983 274.603 28.4252 286.742 29.421 295.792C29.963 300.718 30.4953 304.575 31.9007 308.745C32.6064 310.84 34.489 312.518 37.247 313.553C38.6351 314.074 40.7506 314.03 42.4361 313.745C45.8888 313.16 47.7764 311.22 49.2619 309.468C50.6512 307.829 50.7253 305.273 50.1966 302.405C49.9677 301.163 48.6103 300.44 47.0987 299.917C43.9963 298.844 39.1788 298.827 34.8068 299.171C27.2973 299.761 27.4564 305.623 27.0385 311.307C26.9445 314.272 26.7564 319.307 26.7615 335.462C26.7667 351.617 26.9709 378.741 26.7572 407.5" stroke="#FF6D3B" stroke-width="5" stroke-linecap="round"/>
<path d="M26.5 537.5C26.5 537.531 26.5 537.561 26.5 551.05C26.5 564.539 26.5 591.484 26.695 605.823C26.983 627.005 28.4252 639.198 29.421 648.289C29.963 653.237 30.4953 657.112 31.9007 661.3C32.6064 663.404 34.489 665.09 37.247 666.13C38.6351 666.653 40.7506 666.609 42.4361 666.322C45.8888 665.735 47.7764 663.786 49.2619 662.026C50.6512 660.38 50.7253 657.812 50.1966 654.931C49.9677 653.684 48.6103 652.958 47.0987 652.433C43.9963 651.355 39.1788 651.338 34.8068 651.683C27.2973 652.276 27.4564 658.164 27.0385 663.873C26.9445 666.852 26.7564 671.909 26.7615 688.138C26.7667 704.366 26.9709 731.612 26.7572 760.5" stroke="#FF6D3B" stroke-width="5" stroke-linecap="round"/>
<path d="M26.5 892.5C26.5 892.531 26.5 892.561 26.5 906.05C26.5 919.539 26.5 946.484 26.695 960.823C26.983 982.005 28.4252 994.198 29.421 1003.29C29.963 1008.24 30.4953 1012.11 31.9007 1016.3C32.6064 1018.4 34.489 1020.09 37.247 1021.13C38.6351 1021.65 40.7506 1021.61 42.4361 1021.32C45.8888 1020.73 47.7764 1018.79 49.2619 1017.03C50.6512 1015.38 50.7253 1012.81 50.1966 1009.93C49.9677 1008.68 48.6103 1007.96 47.0987 1007.43C43.9963 1006.35 39.1788 1006.34 34.8068 1006.68C27.2973 1007.28 27.4564 1013.16 27.0385 1018.87C26.9445 1021.85 26.7564 1026.91 26.7615 1043.14C26.7667 1059.37 26.9709 1086.61 26.7572 1115.5" stroke="#FF6D3B" stroke-width="5" stroke-linecap="round"/>
<path d="M26.5 1217.5C26.5 1217.53 26.5 1217.56 26.5 1231.05C26.5 1244.54 26.5 1271.48 26.695 1285.82C26.983 1307 28.4252 1319.2 29.421 1328.29C29.963 1333.24 30.4953 1337.11 31.9007 1341.3C32.6064 1343.4 34.489 1345.09 37.247 1346.13C38.6351 1346.65 40.7506 1346.61 42.4361 1346.32C45.8888 1345.73 47.7764 1343.79 49.2619 1342.03C50.6512 1340.38 50.7253 1337.81 50.1966 1334.93C49.9677 1333.68 48.6103 1332.96 47.0987 1332.43C43.9963 1331.35 39.1788 1331.34 34.8068 1331.68C27.2973 1332.28 27.4564 1338.16 27.0385 1343.87C26.9445 1346.85 26.7564 1351.91 26.7615 1368.14C26.7667 1384.37 26.9709 1411.61 26.7572 1440.5" stroke="#FF6D3B" stroke-width="5" stroke-linecap="round"/>
</svg>
